{"glyphs":{"0":{"ha":901,"x_min":163,"x_max":919,"o":"m 532 1017 l 718 1017 q 885 956 839 1017 q 919 840 919 910 q 915 792 919 817 l 825 225 q 557 0 789 0 l 371 0 q 208 54 267 0 q 164 174 164 96 q 168 225 164 197 l 258 792 q 351 958 275 900 q 532 1017 428 1017 m 199 183 q 240 76 199 119 q 376 33 281 33 l 563 33 q 792 225 763 33 l 882 792 q 886 838 886 817 q 713 983 886 983 l 526 983 q 369 933 432 983 q 292 792 306 882 l 201 225 q 199 183 199 203 z "},"1":{"ha":564,"x_min":186,"x_max":540,"o":"m 186 868 l 192 889 q 333 921 253 889 q 461 985 413 953 l 510 1017 l 540 1017 l 382 0 l 349 0 l 504 975 q 362 903 450 939 q 186 868 274 868 z "},"2":{"ha":797,"x_min":65,"x_max":843,"o":"m 806 815 q 767 938 806 897 q 586 996 713 996 l 214 996 l 217 1017 q 600 1031 329 1031 q 803 953 747 1031 q 842 813 842 897 q 835 736 842 778 q 128 33 793 489 l 724 33 l 718 0 l 65 0 l 71 32 q 219 138 92 42 q 383 263 347 233 q 476 340 418 292 q 571 423 535 388 q 652 505 607 458 q 724 589 697 551 q 797 730 789 679 q 806 815 806 781 z "},"3":{"ha":804,"x_min":54,"x_max":813,"o":"m 438 25 q 682 231 649 25 l 694 313 q 697 351 697 329 q 685 403 697 374 q 642 453 672 433 q 513 489 585 486 l 218 499 l 221 518 l 518 526 q 677 572 607 528 q 760 700 747 617 l 774 796 q 778 839 778 819 q 734 945 778 904 q 599 986 690 986 l 201 986 l 204 1006 q 415 1021 288 1021 q 610 1019 543 1021 q 775 956 728 1018 q 811 840 811 908 q 807 790 811 817 l 793 694 q 676 532 775 583 q 596 507 636 511 q 690 455 647 499 q 733 346 733 411 q 731 306 733 326 l 718 224 q 435 -10 682 -10 q 54 6 126 -10 l 58 25 l 438 25 z "},"4":{"ha":794,"x_min":76,"x_max":800,"o":"m 76 329 l 611 1017 l 649 1017 l 117 328 l 642 328 l 693 656 l 724 760 l 743 760 l 675 328 l 800 328 l 797 308 l 669 294 l 624 3 l 590 3 l 636 294 l 88 294 l 76 329 z "},"5":{"ha":871,"x_min":110,"x_max":889,"o":"m 525 28 q 676 82 606 28 q 761 233 746 136 l 782 365 q 786 419 786 394 q 626 565 786 565 l 414 565 q 279 513 343 565 q 206 392 215 460 l 172 392 l 301 1017 l 889 1017 l 883 983 l 328 983 l 229 507 q 260 541 242 524 q 322 578 279 558 q 414 599 365 599 l 625 599 q 786 536 742 599 q 819 422 819 492 q 815 368 819 397 l 793 231 q 751 115 782 164 q 681 42 721 65 q 529 -6 603 -6 q 110 8 207 -6 l 113 28 l 525 28 z "},"6":{"ha":882,"x_min":151,"x_max":864,"o":"m 489 1025 q 864 1013 757 1025 l 861 992 l 492 992 q 377 946 429 992 q 292 826 325 900 q 207 547 231 692 q 590 563 340 563 q 765 508 721 563 q 799 406 799 468 q 794 360 799 383 l 769 206 q 694 46 751 93 q 533 -1 636 -1 l 361 -1 q 258 23 301 -1 q 185 108 215 47 q 153 278 153 172 q 172 533 153 385 q 298 906 213 786 q 489 1025 383 1025 m 185 310 q 360 32 185 32 l 525 32 q 735 203 707 32 l 758 350 q 763 403 763 379 q 727 496 763 464 q 596 528 692 528 l 204 528 q 185 310 185 403 z "},"7":{"ha":750,"x_min":186,"x_max":817,"o":"m 186 983 l 192 1017 l 800 1017 l 817 985 l 331 0 l 292 0 l 778 983 l 186 983 z "},"8":{"ha":894,"x_min":163,"x_max":893,"o":"m 164 158 l 168 214 l 189 351 q 252 466 200 424 q 353 508 304 508 q 239 651 239 528 q 243 703 239 675 l 257 793 q 345 974 278 924 q 531 1024 413 1024 l 692 1024 q 893 840 893 1024 q 888 774 893 810 l 874 683 q 820 578 864 625 q 719 528 776 532 q 822 392 822 497 q 819 350 822 372 l 799 214 q 667 24 775 69 q 547 0 611 0 l 388 0 q 272 17 319 0 q 206 58 225 33 q 164 158 164 111 m 199 172 q 247 72 199 110 q 393 33 296 33 l 543 33 q 683 76 618 33 q 761 210 747 118 l 785 356 q 789 399 789 378 q 740 485 789 465 q 689 500 710 497 q 631 503 668 503 l 446 503 q 308 467 379 503 q 225 356 238 431 l 201 210 q 199 172 199 190 m 275 686 q 272 644 272 665 q 281 597 272 622 q 319 557 290 571 q 447 535 367 535 l 626 535 q 775 582 719 535 q 839 686 831 629 l 854 781 q 858 839 858 813 q 828 942 858 906 q 686 990 786 990 l 528 990 q 360 940 415 990 q 289 781 304 890 l 275 686 z "},"9":{"ha":883,"x_min":139,"x_max":854,"o":"m 511 25 q 627 71 575 25 q 713 192 679 117 q 796 469 772 325 q 403 454 663 454 q 233 511 274 454 q 204 614 204 551 q 208 664 204 638 l 233 818 q 317 973 251 928 q 489 1018 382 1018 l 650 1018 q 853 704 853 1018 q 832 471 853 604 q 706 106 792 219 q 515 -8 621 -8 q 139 4 246 -8 l 142 25 l 511 25 m 242 657 q 238 610 238 632 q 245 561 238 588 q 281 518 253 535 q 414 489 328 489 l 799 489 q 819 711 819 617 q 650 985 819 985 l 483 985 q 265 814 292 985 l 242 657 z "},"\u0000":{"ha":1053,"x_min":139,"x_max":914,"o":"m 139 0 l 139 738 l 914 738 l 914 0 l 139 0 m 158 31 l 514 369 l 158 704 l 158 31 m 172 719 l 529 383 l 882 719 l 172 719 m 176 18 l 881 18 l 529 356 l 176 18 m 544 369 l 894 35 l 894 703 l 544 369 z "},"\r":{"ha":1389,"x_min":0,"x_max":0,"o":""}," ":{"ha":325,"x_min":0,"x_max":0,"o":""},"!":{"ha":328,"x_min":115,"x_max":314,"o":"m 150 119 l 165 119 q 179 103 182 119 l 165 17 q 146 0 163 0 l 131 0 q 117 17 114 0 l 131 103 q 150 119 133 119 m 172 272 l 283 1015 l 314 1015 l 189 272 l 172 272 z "},"\"":{"ha":399,"x_min":150,"x_max":358,"o":"m 150 738 l 169 924 l 185 1017 l 219 1017 l 204 924 l 167 738 l 150 738 m 289 738 l 308 924 l 324 1017 l 358 1017 l 343 924 l 306 738 l 289 738 z "},"#":{"ha":876,"x_min":78,"x_max":964,"o":"m 78 347 l 83 364 l 332 364 l 421 649 l 172 649 l 179 665 l 426 665 l 539 1017 l 556 1017 l 443 665 l 701 665 l 813 1017 l 829 1017 l 718 665 l 964 665 l 958 649 l 711 649 l 622 363 l 868 363 l 863 346 l 617 346 l 507 0 l 490 0 l 600 346 l 342 347 l 232 0 l 215 0 l 325 347 l 78 347 m 349 364 l 606 363 l 694 649 l 438 649 l 349 364 z "},"$":{"ha":797,"x_min":111,"x_max":806,"o":"m 425 22 q 608 63 540 22 q 693 217 676 104 l 707 311 q 711 361 711 339 q 686 444 711 417 q 543 482 649 482 l 401 482 q 231 529 278 482 q 188 624 188 572 q 193 686 188 638 l 208 778 q 308 974 231 922 q 538 1025 386 1025 l 556 1144 l 581 1144 l 563 1024 q 806 999 685 1017 l 803 981 l 536 993 q 508 993 522 993 q 330 951 397 993 q 242 778 263 908 l 226 686 q 222 642 222 661 q 263 547 222 579 q 404 515 303 515 l 549 515 q 717 461 676 515 q 744 363 744 424 q 740 311 744 338 l 726 217 q 569 8 699 50 q 422 -11 503 -11 q 399 -11 411 -11 l 381 -122 l 356 -122 l 374 -10 q 111 10 176 -3 l 114 31 q 425 22 203 22 z "},"%":{"ha":1368,"x_min":156,"x_max":1286,"o":"m 394 1017 l 535 1017 q 667 975 633 1017 q 689 909 689 947 q 685 843 689 871 l 656 658 q 598 525 642 565 q 453 485 554 485 l 313 485 q 179 525 213 485 q 156 593 156 554 q 160 658 156 632 l 189 843 q 248 976 203 935 q 394 1017 293 1017 m 181 658 q 176 596 176 631 q 313 506 176 506 l 453 506 q 579 538 538 506 q 635 658 621 569 l 664 843 q 668 903 668 869 q 649 961 668 938 q 533 996 621 996 l 393 996 q 265 964 307 996 q 210 843 224 932 l 181 658 m 313 0 l 1082 1017 l 1111 1017 l 342 0 l 313 0 m 989 536 l 1129 536 q 1263 494 1229 536 q 1286 428 1286 467 q 1282 363 1286 389 l 1253 178 q 1194 44 1239 85 q 1049 4 1150 4 l 908 4 q 776 44 810 4 q 753 113 753 74 q 757 178 753 151 l 786 363 q 844 496 800 456 q 989 536 888 536 m 778 178 q 774 115 774 150 q 908 25 774 25 l 1049 25 q 1176 57 1133 25 q 1232 178 1218 89 l 1261 363 q 1265 422 1265 388 q 1129 515 1265 515 l 989 515 q 862 483 903 515 q 807 363 821 451 l 778 178 z "},"&":{"ha":956,"x_min":86,"x_max":908,"o":"m 88 251 q 99 325 88 288 q 239 508 132 428 l 374 610 l 306 728 q 265 849 265 796 q 310 956 265 918 q 409 1007 354 994 q 561 1019 464 1019 q 815 1006 658 1019 l 813 986 l 517 986 q 322 925 376 986 q 299 853 299 896 q 331 747 299 810 l 646 200 l 899 410 l 908 399 l 794 282 l 664 174 l 767 0 l 733 0 l 639 154 l 525 61 q 342 -6 443 -6 q 242 14 290 -6 q 126 114 169 43 q 88 251 88 183 m 346 25 q 501 83 428 25 l 621 181 l 390 582 l 267 490 q 118 251 118 378 q 151 135 118 193 q 346 25 217 25 z "},"'":{"ha":183,"x_min":125,"x_max":194,"o":"m 125 738 l 144 924 l 160 1017 l 194 1017 l 179 924 l 142 738 l 125 738 z "},"(":{"ha":382,"x_min":158,"x_max":547,"o":"m 351 960 q 330 918 351 960 q 265 759 308 876 q 206 538 222 642 q 190 376 190 433 q 193 253 190 319 q 215 94 196 188 q 297 -171 250 -69 l 314 -208 l 278 -208 q 250 -144 271 -196 q 215 -47 229 -93 q 158 332 158 136 q 319 972 158 669 q 483 1239 418 1154 l 513 1278 l 547 1278 q 517 1236 536 1263 q 445 1126 497 1210 q 351 960 393 1043 z "},")":{"ha":383,"x_min":-18,"x_max":369,"o":"m 176 94 q 198 135 176 94 q 263 298 219 176 q 322 522 307 419 q 338 680 338 625 q 335 800 338 735 q 313 961 332 865 q 233 1236 279 1125 l 217 1278 l 251 1278 q 260 1256 254 1269 q 283 1197 267 1242 q 311 1103 299 1151 q 369 707 369 896 q 294 286 369 504 q 207 81 253 165 q 49 -175 110 -103 l 21 -208 l -18 -208 l 13 -169 q 83 -67 32 -146 q 176 94 133 13 z "},"*":{"ha":671,"x_min":193,"x_max":667,"o":"m 193 822 l 196 842 l 394 847 l 390 814 l 193 822 m 265 568 l 340 754 l 375 749 l 282 563 l 265 568 m 410 688 l 432 719 l 578 604 l 564 589 l 410 688 m 414 1004 l 433 1010 l 499 839 l 464 824 l 414 1004 m 483 767 l 657 882 l 667 865 l 504 740 l 483 767 z "},"+":{"ha":728,"x_min":139,"x_max":681,"o":"m 139 478 l 144 511 l 396 511 l 435 763 l 468 763 l 429 511 l 681 511 l 675 478 l 424 478 l 383 226 l 350 226 l 390 478 l 139 478 z "},",":{"ha":238,"x_min":83,"x_max":160,"o":"m 113 0 q 99 18 96 0 l 113 104 q 132 122 115 122 l 146 122 q 160 104 163 122 l 135 -51 q 99 -96 129 -90 q 93 -96 96 -96 q 83 -94 90 -96 l 85 -86 q 111 -65 107 -86 l 121 0 l 113 0 z "},"-":{"ha":460,"x_min":83,"x_max":483,"o":"m 83 386 l 89 419 l 483 419 l 478 386 l 83 386 z "},".":{"ha":239,"x_min":97,"x_max":161,"o":"m 132 119 l 147 119 q 161 103 164 119 l 147 17 q 128 0 144 0 l 113 0 q 99 17 96 0 l 113 103 q 132 119 115 119 z "},"/":{"ha":404,"x_min":11,"x_max":617,"o":"m 11 -100 l 586 1069 l 617 1069 l 42 -100 l 11 -100 z "},":":{"ha":246,"x_min":104,"x_max":260,"o":"m 139 119 l 154 119 q 168 103 171 119 l 154 17 q 135 0 151 0 l 119 0 q 106 17 103 0 l 119 103 q 139 119 122 119 m 229 736 l 244 736 q 258 719 261 736 l 244 632 q 225 617 242 617 l 210 617 q 196 632 193 617 l 210 719 q 229 736 213 736 z "},";":{"ha":239,"x_min":83,"x_max":260,"o":"m 113 0 q 99 18 96 0 l 113 104 q 132 122 115 122 l 146 122 q 160 104 163 122 l 135 -51 q 99 -96 129 -90 q 93 -96 96 -96 q 83 -94 90 -96 l 85 -86 q 111 -65 107 -86 l 121 0 l 113 0 m 229 736 l 244 736 q 258 719 261 736 l 244 632 q 225 617 242 617 l 210 617 q 196 632 193 617 l 210 719 q 229 736 213 736 z "},"<":{"ha":656,"x_min":138,"x_max":664,"o":"m 138 479 l 142 507 l 664 774 l 657 738 l 179 492 l 576 229 l 572 196 l 138 479 z "},"=":{"ha":642,"x_min":74,"x_max":729,"o":"m 74 294 l 79 328 l 672 328 l 667 294 l 74 294 m 131 654 l 136 688 l 729 688 l 724 654 l 131 654 z "},">":{"ha":657,"x_min":100,"x_max":628,"o":"m 100 196 l 106 233 l 589 496 l 186 742 l 192 774 l 628 507 l 624 479 l 100 196 z "},"?":{"ha":754,"x_min":174,"x_max":771,"o":"m 528 1026 q 731 964 678 1026 q 769 836 769 917 q 764 769 769 806 l 743 629 q 628 442 721 490 q 442 407 561 407 q 338 413 394 407 l 315 271 l 279 271 l 306 440 l 447 440 q 626 484 561 440 q 708 629 692 528 l 731 769 q 735 829 735 801 q 700 942 735 904 q 519 993 650 993 l 174 993 l 176 1013 q 521 1026 299 1026 q 528 1026 524 1026 m 271 119 l 286 119 q 300 103 303 119 l 286 17 q 267 0 283 0 l 251 0 q 238 17 235 0 l 251 103 q 271 119 254 119 z "},"@":{"ha":1251,"x_min":83,"x_max":1207,"o":"m 486 971 l 1007 971 q 1169 907 1121 971 q 1206 783 1206 860 q 1201 724 1206 756 l 1128 232 q 1103 140 1122 186 q 1060 69 1083 94 q 994 24 1038 44 q 893 4 950 4 l 853 4 l 856 88 q 735 25 824 53 q 561 -6 642 -6 q 383 76 439 -6 q 346 239 346 131 q 358 382 346 301 q 657 756 413 732 q 724 758 681 758 q 844 738 768 758 q 972 669 921 718 l 879 36 q 1094 232 1065 36 l 1168 724 q 1174 786 1174 758 q 1142 889 1174 856 q 1006 938 1099 938 l 486 938 q 235 724 268 938 l 122 13 q 118 -37 118 -14 q 157 -156 118 -110 q 301 -215 208 -215 l 835 -215 l 832 -235 q 429 -249 763 -249 l 293 -249 q 128 -175 186 -249 q 85 -39 85 -118 q 89 13 85 -14 l 201 724 q 486 971 242 971 m 389 353 q 381 267 381 300 q 385 194 381 233 q 403 119 390 156 q 442 64 415 83 q 558 28 490 28 q 569 28 564 28 q 857 111 746 28 l 939 665 q 690 721 833 721 q 671 721 681 721 q 389 353 433 713 z "},"A":{"ha":893,"x_min":63,"x_max":854,"o":"m 63 0 l 604 1017 l 651 1017 l 854 0 l 821 0 l 750 351 l 288 351 l 101 0 l 63 0 m 306 385 l 743 385 l 624 985 l 306 385 z "},"B":{"ha":819,"x_min":111,"x_max":854,"o":"m 624 1017 q 819 956 769 1017 q 854 838 854 911 q 768 611 854 701 q 632 533 703 542 q 735 458 690 519 q 779 324 779 396 q 775 274 779 300 q 463 0 732 0 l 111 0 l 272 1017 l 624 1017 m 468 35 q 743 283 703 35 q 746 322 746 303 q 694 454 746 393 q 551 515 643 515 q 544 515 549 515 l 226 515 l 150 35 l 468 35 m 550 549 q 720 609 647 549 q 814 771 793 669 q 822 842 822 810 q 789 936 822 906 q 618 983 740 983 l 300 983 l 232 549 l 550 549 z "},"C":{"ha":783,"x_min":146,"x_max":874,"o":"m 283 893 q 307 928 283 893 q 403 995 331 963 q 587 1028 475 1028 q 874 994 699 1028 l 871 975 q 834 979 851 978 q 794 983 817 981 q 745 987 772 985 q 690 990 718 989 q 576 994 607 994 q 399 956 468 994 q 196 508 254 872 q 181 335 181 411 q 425 25 181 25 q 681 38 556 25 l 722 42 l 719 22 q 418 -8 550 -8 q 146 333 146 -8 q 165 535 146 418 q 210 738 183 651 q 283 893 236 824 z "},"D":{"ha":914,"x_min":111,"x_max":919,"o":"m 622 1017 q 775 981 713 1017 q 868 892 838 946 q 919 663 919 803 q 901 490 919 592 q 849 303 882 388 q 765 148 815 218 q 639 39 714 78 q 471 0 564 0 l 111 0 l 272 1017 l 622 1017 m 471 33 q 634 77 561 33 q 753 194 707 121 q 869 506 842 335 q 885 669 885 597 q 843 865 885 792 q 615 983 776 983 l 300 983 l 150 33 l 471 33 z "},"E":{"ha":779,"x_min":131,"x_max":856,"o":"m 435 1017 q 444 1017 440 1017 l 856 1003 l 853 983 l 440 983 q 275 836 299 983 l 225 521 l 722 514 l 719 494 l 219 488 l 169 171 q 165 129 165 147 q 198 53 165 78 q 303 29 231 29 l 701 29 l 699 10 l 297 -4 q 286 -4 292 -4 q 132 126 132 -4 q 136 178 132 150 l 242 843 q 311 977 257 938 q 435 1017 365 1017 z "},"F":{"ha":771,"x_min":111,"x_max":857,"o":"m 435 1017 q 446 1017 440 1017 l 857 1003 l 854 983 l 439 983 q 328 949 368 983 q 276 836 289 914 l 226 521 l 725 514 l 721 494 l 222 488 l 144 0 l 111 0 l 242 831 q 310 978 258 940 q 435 1017 361 1017 z "},"G":{"ha":889,"x_min":149,"x_max":899,"o":"m 317 932 q 336 953 317 932 q 417 1001 356 974 q 545 1028 478 1028 q 720 1016 613 1028 q 899 990 828 1004 l 894 964 l 836 972 q 553 994 658 994 q 319 878 392 994 q 207 511 246 761 q 183 285 183 376 q 203 139 183 194 q 407 26 246 26 q 686 78 503 26 l 747 96 l 811 506 l 514 506 l 518 525 q 688 540 576 540 q 850 536 800 540 l 765 0 l 746 0 l 746 75 q 590 22 697 51 q 408 -7 483 -7 q 282 10 332 -7 q 204 66 232 28 q 163 148 176 104 q 149 258 149 192 q 169 490 149 360 q 204 685 189 619 q 249 820 219 750 q 317 932 278 890 z "},"H":{"ha":904,"x_min":118,"x_max":957,"o":"m 118 0 l 279 1017 l 313 1017 l 232 508 l 843 508 l 924 1017 l 957 1017 l 796 0 l 763 0 l 838 475 l 226 475 l 151 0 l 118 0 z "},"I":{"ha":267,"x_min":125,"x_max":319,"o":"m 125 0 l 286 1017 l 319 1017 l 158 0 l 125 0 z "},"J":{"ha":443,"x_min":53,"x_max":535,"o":"m 181 26 q 376 229 343 26 l 501 1017 l 535 1017 l 410 229 q 306 25 388 79 q 185 -7 257 -7 q 53 29 103 -7 l 61 49 q 181 26 128 26 z "},"K":{"ha":733,"x_min":111,"x_max":890,"o":"m 111 0 l 272 1017 l 306 1017 l 228 526 l 440 526 l 849 1017 l 890 1017 l 471 511 l 731 0 l 692 0 l 440 493 l 224 493 l 146 0 l 111 0 z "},"L":{"ha":760,"x_min":133,"x_max":688,"o":"m 167 133 q 200 58 167 82 q 304 33 233 33 l 688 33 l 682 0 l 306 0 q 178 28 226 0 q 133 129 133 54 q 138 175 133 150 l 271 1017 l 304 1017 l 171 175 q 167 133 167 151 z "},"M":{"ha":1069,"x_min":99,"x_max":1061,"o":"m 99 0 l 372 1017 l 419 1017 l 565 57 l 1007 1017 l 1061 1017 l 1017 0 l 982 0 l 1026 974 l 576 0 l 538 0 l 394 967 l 133 0 l 99 0 z "},"N":{"ha":892,"x_min":111,"x_max":951,"o":"m 111 0 l 272 1017 l 307 1017 l 765 60 l 918 1017 l 951 1017 l 790 0 l 757 0 l 297 958 l 144 0 l 111 0 z "},"O":{"ha":950,"x_min":142,"x_max":931,"o":"m 380 980 q 408 994 380 980 q 488 1016 436 1008 q 613 1024 539 1024 q 732 1017 688 1024 q 819 992 776 1011 q 883 936 861 972 q 931 731 931 860 q 909 498 931 638 q 857 267 888 358 q 790 123 826 176 q 699 40 754 69 q 590 3 644 11 q 453 -6 536 -6 q 319 3 369 -6 q 223 43 268 13 q 160 131 178 74 q 142 283 142 189 q 164 515 142 378 q 219 747 186 651 q 288 897 251 843 q 380 980 324 951 m 265 775 q 255 750 265 775 q 228 656 244 725 q 194 482 211 588 q 177 331 178 376 q 176 246 176 286 q 190 154 176 206 q 243 75 204 103 q 331 38 282 47 q 459 28 381 28 q 590 38 538 28 q 690 76 642 47 q 769 157 738 104 q 875 501 838 267 q 896 722 896 631 q 879 867 896 813 q 821 948 863 921 q 734 983 779 975 q 628 990 689 990 q 539 988 568 990 q 473 980 510 986 q 411 959 436 974 q 357 922 386 944 q 307 862 328 899 q 265 775 286 825 z "},"P":{"ha":811,"x_min":104,"x_max":856,"o":"m 649 1017 q 806 972 763 1017 q 856 850 856 918 q 849 739 856 810 q 775 538 825 597 q 726 488 750 507 q 669 461 703 468 q 564 449 617 449 q 363 454 511 449 q 211 463 215 460 l 138 0 l 104 0 l 265 1017 l 649 1017 m 564 482 q 717 528 656 482 q 814 740 792 583 q 821 837 821 801 q 808 899 821 872 q 781 942 794 925 q 742 967 767 958 q 643 982 701 982 l 293 982 l 214 482 l 564 482 z "},"Q":{"ha":958,"x_min":147,"x_max":936,"o":"m 385 980 q 414 994 385 980 q 493 1016 442 1008 q 619 1024 544 1024 q 738 1017 693 1024 q 824 992 782 1011 q 889 936 867 972 q 936 731 936 860 q 915 498 936 638 q 863 267 893 358 q 796 123 832 176 q 705 40 760 69 q 596 3 650 11 q 458 -6 542 -6 q 324 3 375 -6 q 228 43 274 13 q 165 131 183 74 q 147 283 147 189 q 169 515 147 378 q 224 747 192 651 q 293 897 257 843 q 385 980 329 951 m 271 775 q 260 750 271 775 q 233 656 250 725 q 200 482 217 588 q 183 331 183 376 q 182 246 182 286 q 196 154 182 206 q 249 75 210 103 q 337 38 288 47 q 465 28 386 28 q 595 38 543 28 q 695 76 647 47 q 775 157 743 104 q 881 501 843 267 q 901 722 901 631 q 885 867 901 813 q 826 948 868 921 q 740 983 785 975 q 634 990 694 990 q 544 988 574 990 q 478 980 515 986 q 417 959 442 974 q 363 922 392 944 q 313 862 333 899 q 271 775 292 825 m 693 -133 l 688 -167 q 611 -182 638 -182 q 579 -181 585 -182 q 486 -144 526 -179 q 443 -46 446 -108 l 463 -46 q 511 -124 474 -99 q 592 -149 549 -149 q 693 -133 635 -149 z "},"R":{"ha":850,"x_min":104,"x_max":856,"o":"m 649 1017 q 804 968 758 1017 q 856 832 856 914 q 849 733 856 790 q 738 493 818 546 q 665 458 697 467 q 583 449 632 450 l 735 0 l 699 0 l 547 449 q 211 463 221 454 l 138 0 l 104 0 l 265 1017 l 649 1017 m 564 482 q 646 491 611 482 q 717 525 681 500 q 814 739 789 579 q 821 835 821 800 q 808 897 821 871 q 781 940 794 924 q 742 967 767 957 q 643 982 697 982 l 293 982 l 214 482 l 564 482 z "},"S":{"ha":785,"x_min":110,"x_max":818,"o":"m 442 22 q 672 118 613 22 q 706 217 697 158 l 719 311 q 724 357 724 336 q 696 442 724 413 q 556 482 658 482 l 400 482 q 208 546 247 482 q 185 626 185 586 q 192 692 185 665 l 207 783 q 306 974 229 924 q 521 1025 382 1025 q 818 999 660 1025 l 815 981 l 508 992 q 490 992 499 992 q 324 945 388 992 q 240 778 260 899 l 225 686 q 221 638 221 660 q 259 546 221 576 q 403 515 297 515 l 561 515 q 728 458 689 515 q 757 356 757 418 q 753 304 757 332 l 739 210 q 625 25 717 68 q 433 -11 546 -11 q 264 -5 375 -11 q 110 10 153 1 l 113 31 q 442 22 203 22 z "},"T":{"ha":876,"x_min":193,"x_max":946,"o":"m 193 983 l 199 1017 l 946 1017 l 940 983 l 579 983 l 424 0 l 390 0 l 546 983 l 193 983 z "},"U":{"ha":946,"x_min":165,"x_max":976,"o":"m 215 444 q 197 294 197 333 q 199 228 197 256 q 206 171 201 201 q 223 118 210 140 q 247 80 236 96 q 281 54 258 64 q 319 38 304 44 q 365 31 335 32 q 465 26 417 26 q 544 28 514 26 q 611 40 574 31 q 675 67 649 50 q 731 114 701 83 q 781 189 760 144 q 853 444 831 292 l 943 1017 l 976 1017 l 886 444 q 839 244 863 304 q 799 149 815 183 q 759 92 782 115 q 717 51 736 68 q 671 23 699 33 q 624 6 643 13 q 575 -3 606 0 q 432 -7 528 -7 q 285 14 336 -7 q 165 261 165 60 q 182 444 165 339 l 272 1017 l 306 1017 l 215 444 z "},"V":{"ha":928,"x_min":208,"x_max":1000,"o":"m 208 1017 l 243 1017 l 439 36 l 963 1017 l 1000 1017 l 458 0 l 411 0 l 208 1017 z "},"W":{"ha":1361,"x_min":208,"x_max":1433,"o":"m 208 1017 l 242 1017 l 439 35 l 936 1017 l 972 1017 l 764 599 l 899 33 l 1397 1017 l 1433 1017 l 919 0 l 872 0 l 739 550 l 458 0 l 411 0 l 208 1017 z "},"X":{"ha":753,"x_min":53,"x_max":871,"o":"m 53 0 l 435 507 l 210 1017 l 249 1017 l 460 539 l 828 1017 l 871 1017 l 476 504 l 703 0 l 664 0 l 453 471 l 96 0 l 53 0 z "},"Y":{"ha":872,"x_min":208,"x_max":944,"o":"m 208 1017 l 246 1017 l 463 406 l 904 1017 l 944 1017 l 475 361 l 418 0 l 385 0 l 442 361 l 208 1017 z "},"Z":{"ha":704,"x_min":49,"x_max":853,"o":"m 49 0 l 54 33 l 803 983 l 204 983 l 210 1017 l 853 1017 l 847 983 l 99 33 l 697 33 l 692 0 l 49 0 z "},"[":{"ha":368,"x_min":100,"x_max":557,"o":"m 133 -29 q 263 -175 133 -175 l 332 -175 l 326 -208 l 257 -208 q 164 -183 200 -208 q 117 -119 128 -157 q 100 -28 100 -65 q 106 31 100 10 l 261 1014 q 489 1253 303 1253 l 557 1253 l 553 1219 l 483 1219 q 361 1169 411 1219 q 294 1014 311 1119 l 139 31 q 133 -29 133 -1 z "},"\\":{"ha":600,"x_min":196,"x_max":428,"o":"m 196 1069 l 222 1069 l 428 -100 l 401 -100 l 196 1069 z "},"]":{"ha":375,"x_min":-18,"x_max":440,"o":"m 57 -175 q 183 -118 138 -175 q 244 31 229 -61 l 400 1014 q 406 1092 406 1049 q 383 1169 406 1136 q 278 1219 350 1219 l 208 1219 l 214 1253 l 283 1253 q 378 1227 342 1253 q 425 1164 415 1201 q 439 1076 439 1115 q 433 1014 439 1036 l 278 31 q 51 -208 240 -208 l -18 -208 l -12 -175 l 57 -175 z "},"^":{"ha":593,"x_min":186,"x_max":564,"o":"m 186 738 l 399 918 l 428 918 l 564 738 l 540 738 l 410 897 l 211 738 l 186 738 z "},"_":{"ha":900,"x_min":26,"x_max":871,"o":"m 26 -1 l 32 32 l 871 32 l 865 -1 l 26 -1 z "},"`":{"ha":304,"x_min":174,"x_max":349,"o":"m 174 922 l 210 922 l 349 738 l 329 738 l 174 922 z "},"a":{"ha":757,"x_min":108,"x_max":744,"o":"m 291 708 q 311 720 291 708 q 360 739 331 732 q 421 750 389 746 q 494 754 453 754 q 614 734 535 754 q 744 665 693 714 l 647 0 l 628 0 l 629 83 q 499 23 586 56 q 351 -10 413 -10 q 253 1 290 -10 q 181 37 215 11 q 131 107 146 63 q 110 239 110 168 q 126 394 110 310 q 168 546 142 479 q 223 649 194 613 q 291 708 251 685 m 143 243 q 331 22 143 22 q 419 31 383 22 q 467 41 454 39 q 512 56 481 43 q 549 70 543 68 q 591 88 554 72 q 629 104 628 104 l 710 661 q 493 722 611 722 q 244 619 322 722 q 151 342 182 539 q 143 243 143 288 z "},"b":{"ha":757,"x_min":83,"x_max":717,"o":"m 510 749 q 715 496 715 749 q 613 111 715 269 q 519 24 576 56 q 393 -8 463 -8 q 238 23 324 -8 q 128 82 153 54 l 101 0 l 83 0 l 256 1090 l 286 1090 l 224 693 q 374 733 290 718 q 510 749 457 749 m 392 25 q 565 110 488 25 q 669 365 642 194 q 679 487 679 449 q 678 540 679 525 q 646 647 675 608 q 583 701 617 686 q 501 715 549 715 q 222 674 389 715 l 132 101 q 392 25 271 25 z "},"c":{"ha":682,"x_min":110,"x_max":697,"o":"m 244 683 q 326 732 285 719 q 456 744 368 744 q 697 708 543 744 l 693 689 q 458 711 546 711 q 333 699 369 711 q 261 650 296 686 q 157 364 190 581 q 143 262 143 294 q 145 194 143 229 q 158 122 147 160 q 194 63 168 83 q 304 26 239 26 q 558 49 419 26 l 603 56 l 600 33 q 308 -7 458 -6 q 128 103 160 -7 q 110 233 110 164 q 125 379 110 301 q 244 683 161 610 z "},"d":{"ha":724,"x_min":113,"x_max":799,"o":"m 440 749 q 569 733 492 749 q 706 693 647 718 l 768 1090 l 799 1090 l 626 0 l 608 0 l 607 82 q 480 23 572 54 q 318 -8 388 -8 q 201 28 249 -8 q 136 119 154 64 q 114 263 114 196 q 124 376 114 329 q 440 749 183 749 m 147 253 q 181 107 147 160 q 331 25 232 25 q 610 101 449 25 l 701 674 q 439 715 549 715 q 203 542 275 715 q 160 386 174 469 q 147 253 147 303 z "},"e":{"ha":746,"x_min":104,"x_max":736,"o":"m 661 400 q 524 332 601 347 q 331 317 447 317 q 147 343 214 317 q 138 209 138 274 q 156 100 138 144 q 303 24 188 24 q 625 53 418 24 l 621 31 q 297 -10 474 -10 q 126 86 167 -10 q 104 213 104 136 q 119 376 104 290 q 145 507 133 461 q 182 605 157 553 q 242 686 207 657 q 467 751 322 751 q 679 703 611 751 q 735 579 735 663 q 661 400 735 465 m 251 350 q 278 348 251 350 q 355 346 306 346 q 466 356 404 346 q 574 385 528 365 q 656 444 621 404 q 700 569 700 494 q 649 681 700 643 q 482 718 597 718 q 308 686 388 718 q 217 600 264 669 q 190 536 204 581 q 150 363 163 449 q 179 358 161 361 q 251 350 197 354 z "},"f":{"ha":499,"x_min":128,"x_max":644,"o":"m 366 1069 q 374 1075 366 1069 q 403 1085 382 1081 q 447 1092 424 1090 q 530 1093 471 1093 q 644 1076 589 1093 l 642 1058 l 444 1058 q 351 1013 379 1058 q 308 875 322 968 l 288 738 l 535 738 l 529 704 l 282 704 l 171 0 l 138 0 l 249 704 l 128 704 l 131 724 l 254 738 l 275 875 q 286 939 275 892 q 303 995 297 986 q 317 1023 308 1004 q 338 1050 326 1042 q 366 1069 350 1058 z "},"g":{"ha":739,"x_min":51,"x_max":758,"o":"m 321 -14 q 114 210 114 -14 q 126 382 114 286 q 440 746 185 746 q 758 728 550 746 l 621 -144 q 531 -322 601 -265 q 386 -379 460 -379 q 363 -378 375 -379 l 51 -344 l 54 -325 l 368 -346 q 381 -346 375 -346 q 506 -297 442 -346 q 588 -144 571 -247 l 617 40 q 463 1 551 15 q 321 -14 375 -14 m 160 376 q 147 224 147 294 q 168 106 147 153 q 325 19 206 19 q 476 34 414 19 q 621 68 539 49 l 724 706 l 447 713 q 440 713 443 713 q 257 625 328 713 q 160 376 186 538 z "},"h":{"ha":750,"x_min":83,"x_max":731,"o":"m 540 750 q 694 681 646 750 q 731 560 731 628 q 726 514 731 538 l 644 0 l 611 0 l 693 514 q 696 556 696 536 q 664 661 696 618 q 533 717 621 717 q 376 697 444 717 q 217 632 307 678 l 117 0 l 83 0 l 256 1089 l 289 1089 l 219 651 q 540 750 388 750 z "},"i":{"ha":200,"x_min":83,"x_max":275,"o":"m 83 0 l 200 738 l 233 738 l 117 0 l 83 0 m 246 967 l 263 967 q 275 950 278 967 l 267 892 q 247 875 264 875 l 232 875 q 218 892 215 875 l 226 950 q 246 967 228 967 z "},"j":{"ha":210,"x_min":39,"x_max":289,"o":"m 39 -375 l 215 738 l 249 738 l 131 -6 q 57 -375 93 -251 l 39 -375 m 260 967 l 276 967 q 289 950 292 967 l 279 892 q 261 875 278 875 l 246 875 q 231 892 228 875 l 240 950 q 260 967 242 967 z "},"k":{"ha":658,"x_min":83,"x_max":685,"o":"m 336 396 q 231 381 268 381 q 178 382 194 381 l 117 0 l 83 0 l 256 1086 l 289 1086 l 182 413 q 374 442 289 413 q 514 521 460 471 q 650 738 613 614 l 685 738 q 368 406 614 482 l 607 0 l 568 0 l 336 396 z "},"l":{"ha":435,"x_min":114,"x_max":349,"o":"m 256 0 q 115 164 115 0 q 124 263 115 207 l 254 1088 l 288 1088 l 157 263 q 149 177 149 213 q 152 121 149 142 q 166 83 156 100 q 184 57 176 65 q 208 43 192 49 q 285 26 231 35 q 349 18 339 18 l 346 0 l 256 0 z "},"m":{"ha":1279,"x_min":83,"x_max":1257,"o":"m 219 738 l 219 651 q 530 750 388 750 q 715 636 672 750 q 882 715 781 679 q 1063 750 983 750 q 1218 681 1168 750 q 1257 558 1257 628 q 1253 514 1257 536 l 1171 0 l 1138 0 l 1219 514 q 1222 554 1222 535 q 1190 658 1222 614 q 1057 717 1147 717 q 721 619 918 717 q 729 562 729 589 q 726 514 729 535 l 644 0 l 611 0 l 693 514 q 696 554 696 535 q 664 658 696 614 q 533 717 621 717 q 376 697 444 717 q 217 632 307 678 l 117 0 l 83 0 l 200 738 l 219 738 z "},"n":{"ha":750,"x_min":83,"x_max":731,"o":"m 219 738 l 219 651 q 536 750 388 750 q 692 681 642 750 q 731 558 731 628 q 726 514 731 536 l 644 0 l 611 0 l 693 514 q 696 554 696 535 q 664 658 696 614 q 533 717 621 717 q 376 697 444 717 q 217 632 307 678 l 117 0 l 83 0 l 200 738 l 219 738 z "},"o":{"ha":778,"x_min":114,"x_max":749,"o":"m 126 368 q 241 667 161 589 q 493 744 321 744 q 717 650 665 744 q 747 510 747 592 q 735 349 747 429 q 625 69 703 146 q 371 -7 547 -7 q 144 78 194 -7 q 114 208 114 129 q 126 368 114 288 m 281 656 q 258 639 281 656 q 208 549 236 622 q 163 376 179 476 q 147 225 147 276 q 158 140 147 174 q 185 83 168 106 q 233 47 203 60 q 369 26 286 26 q 499 39 451 26 q 589 86 547 51 q 701 358 668 153 q 715 460 715 425 q 711 534 715 494 q 694 613 707 574 q 647 674 681 651 q 502 711 590 711 q 369 701 414 711 q 281 656 325 690 z "},"p":{"ha":732,"x_min":24,"x_max":722,"o":"m 515 746 q 692 644 643 746 q 722 505 722 581 q 710 351 722 429 q 676 210 697 274 q 619 93 656 146 q 394 -14 549 -14 q 260 1 340 -14 q 122 40 181 15 l 57 -375 l 24 -375 l 200 732 q 515 746 289 746 m 126 63 q 406 19 290 19 q 585 107 521 19 q 678 372 649 194 q 688 497 688 432 q 664 619 688 563 q 507 713 625 713 l 229 713 l 126 63 z "},"q":{"ha":767,"x_min":114,"x_max":754,"o":"m 322 -14 q 115 211 115 -14 q 128 385 115 289 q 443 746 186 746 q 754 732 671 746 l 579 -375 l 546 -375 l 611 40 q 461 1 546 15 q 322 -14 376 -14 m 161 372 q 149 224 149 293 q 169 107 149 156 q 322 19 206 19 q 615 63 439 19 l 718 713 l 439 713 q 253 620 321 713 q 161 372 186 528 z "},"r":{"ha":546,"x_min":83,"x_max":639,"o":"m 317 694 q 336 703 317 694 q 417 728 354 711 q 544 746 479 746 q 639 735 608 746 l 633 703 q 545 713 589 713 q 472 708 501 713 q 422 700 442 704 q 369 683 403 696 q 322 665 335 671 q 267 641 310 660 q 214 617 225 622 l 117 0 l 83 0 l 200 738 l 217 738 l 218 644 q 317 694 281 678 z "},"s":{"ha":700,"x_min":89,"x_max":686,"o":"m 431 26 q 575 83 540 26 q 599 157 592 111 l 610 225 q 611 247 611 236 q 584 318 611 286 q 486 350 557 350 l 304 350 q 165 376 197 350 q 133 460 133 403 q 138 513 133 483 l 147 576 q 211 704 161 664 q 367 744 261 744 q 686 732 558 744 l 682 713 l 361 713 q 233 678 275 713 q 181 568 192 644 l 171 504 q 167 465 167 482 q 170 435 167 447 q 178 413 174 422 q 194 399 183 404 q 215 390 206 393 q 242 385 224 388 q 272 383 260 383 l 488 383 q 607 343 568 383 q 646 249 646 303 q 643 217 646 233 l 632 149 q 528 4 613 28 q 422 -7 488 -7 q 89 7 217 -7 l 92 26 l 431 26 z "},"t":{"ha":478,"x_min":128,"x_max":526,"o":"m 308 -1 q 165 165 165 -1 q 174 261 165 207 l 244 706 l 128 706 l 132 728 l 250 739 l 293 944 l 315 944 l 283 739 l 526 739 l 521 706 l 278 706 l 207 261 q 199 176 199 211 q 202 119 199 140 q 216 81 206 99 q 234 56 226 64 q 258 42 242 47 q 335 25 281 33 q 399 17 389 17 l 396 -1 l 308 -1 z "},"u":{"ha":749,"x_min":100,"x_max":747,"o":"m 135 185 q 167 81 135 125 q 298 22 210 22 q 455 42 386 22 q 614 107 524 61 l 714 739 l 747 739 l 631 1 l 611 1 l 611 88 q 296 -11 443 -11 q 139 58 190 -11 q 100 182 100 111 q 104 225 100 203 l 186 739 l 219 739 l 138 225 q 135 185 135 204 z "},"v":{"ha":740,"x_min":131,"x_max":753,"o":"m 751 725 q 710 611 751 688 l 356 0 l 317 0 l 131 738 l 164 738 l 342 46 l 678 622 q 729 739 724 703 l 750 739 q 751 725 751 733 z "},"w":{"ha":1119,"x_min":131,"x_max":1139,"o":"m 749 724 q 706 608 749 686 l 618 457 l 725 42 l 1061 619 q 1115 739 1111 706 l 1136 739 q 1138 726 1138 733 q 1094 611 1138 689 l 740 0 l 703 0 l 594 417 l 353 0 l 317 0 l 131 738 l 164 738 l 340 44 l 672 618 q 726 736 722 706 l 747 736 q 749 724 749 731 z "},"x":{"ha":617,"x_min":33,"x_max":728,"o":"m 33 0 l 358 369 l 150 738 l 194 738 l 386 400 l 683 738 l 728 738 l 403 369 l 611 0 l 567 0 l 376 338 l 78 0 l 33 0 z "},"y":{"ha":744,"x_min":131,"x_max":758,"o":"m 757 725 q 726 619 757 685 l 431 1 q 217 -333 322 -237 q 135 -374 172 -374 l 135 -354 q 199 -318 163 -354 q 269 -231 236 -282 q 375 -36 333 -128 l 393 0 q 246 153 275 11 l 131 738 l 164 738 l 278 161 q 410 35 303 35 l 694 631 q 733 747 726 701 l 754 747 q 757 725 757 738 z "},"z":{"ha":624,"x_min":63,"x_max":708,"o":"m 63 1 l 68 35 l 656 704 l 153 704 l 158 738 l 708 738 l 703 704 l 114 35 l 597 35 l 592 1 l 63 1 z "},"{":{"ha":361,"x_min":93,"x_max":556,"o":"m 236 449 q 235 432 236 440 l 171 31 q 165 -36 165 -6 q 192 -131 165 -99 q 329 -176 231 -176 l 324 -208 q 205 -185 250 -208 q 147 -125 160 -161 q 132 -35 132 -79 q 139 40 132 8 l 200 426 q 201 444 201 436 q 172 503 201 479 q 101 528 142 528 q 93 528 97 528 l 99 565 q 240 667 226 576 l 293 1004 q 369 1186 311 1119 q 556 1253 428 1253 l 550 1221 q 399 1169 454 1221 q 325 994 344 1117 l 274 667 q 228 586 265 618 q 143 547 192 554 q 212 511 188 540 q 236 449 236 482 z "},"|":{"ha":299,"x_min":103,"x_max":321,"o":"m 103 -100 l 288 1069 l 321 1069 l 136 -100 l 103 -100 z "},"}":{"ha":358,"x_min":-18,"x_max":451,"o":"m 401 547 q 332 583 356 554 q 308 633 308 611 q 310 667 308 656 l 361 994 q 368 1086 368 1036 q 342 1171 368 1136 q 208 1224 303 1224 l 214 1253 q 400 1063 400 1253 q 393 985 400 1028 l 343 667 q 342 645 342 658 q 349 615 342 632 q 375 588 357 599 q 451 565 408 568 l 446 528 q 438 528 442 528 q 356 501 397 528 q 306 426 314 474 l 242 24 q 223 -60 235 -25 q 183 -132 211 -94 q -18 -208 129 -208 l -12 -176 q 139 -131 86 -176 q 210 31 192 -85 l 274 432 q 318 508 281 475 q 401 547 356 540 z "},"~":{"ha":678,"x_min":194,"x_max":671,"o":"m 354 875 q 438 824 382 875 q 515 774 494 774 q 650 836 563 774 q 664 847 663 846 l 671 838 q 617 793 635 807 q 511 751 560 751 q 426 802 481 751 q 356 853 372 853 q 330 851 340 853 q 308 845 319 850 q 288 837 296 840 q 266 825 279 833 q 246 814 253 817 q 200 783 228 804 l 194 794 q 354 875 299 875 z "},"¡":{"ha":332,"x_min":63,"x_max":260,"o":"m 63 -375 l 188 369 l 204 369 l 93 -375 l 63 -375 m 229 639 l 246 639 q 260 625 263 639 l 244 538 q 225 519 242 519 l 210 519 q 196 538 193 519 l 211 625 q 229 639 214 639 z "},"¢":{"ha":664,"x_min":94,"x_max":685,"o":"m 682 689 q 445 711 533 711 q 321 699 357 711 q 250 650 285 686 q 146 364 179 581 q 132 262 132 294 q 134 194 132 229 q 147 122 136 160 q 182 63 157 83 q 292 26 225 26 q 547 49 406 26 l 592 56 l 588 33 q 346 -6 461 -1 l 328 -114 l 303 -114 l 319 -7 q 290 -7 311 -7 q 241 -2 269 -7 q 183 17 213 3 q 106 131 128 44 q 96 198 96 168 q 97 263 96 228 q 111 379 97 297 q 183 622 136 546 q 294 724 233 701 q 439 744 354 744 l 457 858 l 482 858 l 464 743 q 685 708 572 736 l 682 689 z "},"£":{"ha":776,"x_min":69,"x_max":876,"o":"m 644 985 q 542 980 582 985 q 460 958 501 975 q 394 911 419 942 q 314 701 338 844 l 285 517 l 688 506 l 683 486 l 279 486 l 208 33 l 721 33 l 715 0 l 69 0 l 72 19 l 175 33 l 246 486 l 146 486 l 150 506 l 251 517 l 281 701 q 378 942 307 864 q 455 991 407 974 q 543 1013 503 1008 q 647 1017 583 1017 l 876 1004 l 872 985 l 644 985 z "},"¤":{"ha":651,"x_min":110,"x_max":631,"o":"m 600 471 q 517 279 600 367 l 561 226 l 546 214 l 503 267 q 333 199 425 199 q 186 271 240 199 l 121 214 l 110 228 l 176 285 q 143 403 143 339 q 232 592 143 511 l 176 656 l 190 668 l 244 603 q 404 663 318 663 q 544 608 490 663 l 618 669 l 631 656 l 557 594 q 600 471 600 542 m 163 399 q 200 283 163 333 q 336 219 250 219 q 493 283 422 219 q 581 472 581 363 q 535 588 581 535 q 403 642 489 642 q 249 581 318 642 q 163 399 163 506 z "},"¥":{"ha":810,"x_min":147,"x_max":936,"o":"m 147 275 l 150 294 l 422 294 l 443 426 l 171 426 l 174 446 l 444 446 l 200 1017 l 238 1017 l 467 481 l 893 1017 l 936 1017 l 481 446 l 767 446 l 764 426 l 476 426 l 456 294 l 743 294 l 740 275 l 453 275 l 410 0 l 376 0 l 419 275 l 147 275 z "},"¦":{"ha":301,"x_min":103,"x_max":321,"o":"m 103 -100 l 175 356 l 208 356 l 136 -100 l 103 -100 m 213 596 l 288 1069 l 321 1069 l 246 596 l 213 596 z "},"§":{"ha":776,"x_min":129,"x_max":767,"o":"m 636 368 q 693 306 693 356 q 689 254 693 293 l 672 153 q 561 3 653 29 q 454 -11 518 -11 q 129 3 258 -11 l 132 22 l 460 22 q 583 51 540 22 q 639 153 626 79 l 656 254 q 658 297 658 272 q 639 338 658 322 q 521 354 619 354 l 314 354 q 215 360 232 354 q 185 372 199 365 q 167 390 172 379 q 156 415 161 400 q 156 497 147 440 l 168 588 q 265 706 183 692 q 204 789 204 717 q 207 819 204 803 l 222 919 q 431 1089 250 1089 q 767 1075 639 1089 l 764 1056 l 425 1056 q 256 917 278 1056 l 240 819 q 238 793 238 804 q 265 737 238 754 q 372 719 292 719 l 579 719 q 722 685 692 719 q 744 627 744 661 q 740 568 744 593 l 726 482 q 714 428 721 449 q 688 389 707 407 q 636 368 668 371 m 189 490 q 185 456 185 471 q 187 427 185 442 q 200 406 189 413 q 216 394 211 399 q 243 389 221 390 q 275 388 265 388 l 526 388 q 656 403 629 388 q 693 492 682 419 l 707 578 q 710 626 710 599 q 688 670 710 653 q 574 688 667 688 l 367 688 q 236 664 258 688 q 201 575 211 635 l 189 490 z "},"¨":{"ha":615,"x_min":194,"x_max":600,"o":"m 244 808 q 217 783 239 783 q 196 804 196 783 q 225 832 196 832 q 244 808 249 832 m 599 808 q 572 783 593 783 q 550 804 550 783 q 579 832 550 832 q 599 815 599 832 q 599 808 599 813 z "},"©":{"ha":1204,"x_min":144,"x_max":1165,"o":"m 568 1017 l 924 1017 q 1053 979 1001 1017 q 1128 888 1106 942 q 1164 669 1164 804 q 1149 506 1164 603 q 1013 144 1114 289 q 764 0 913 0 l 408 0 q 281 35 335 0 q 200 128 226 71 q 144 365 144 247 q 154 515 144 414 q 317 906 192 765 q 426 986 361 956 q 568 1017 492 1017 m 174 511 q 161 413 161 456 q 167 313 161 369 q 197 183 172 256 q 276 65 221 111 q 410 19 332 19 l 767 19 q 991 149 890 19 q 1129 511 1092 279 q 1143 670 1143 613 q 1142 756 1143 728 q 1079 930 1135 863 q 924 997 1024 997 l 565 997 q 325 884 432 997 q 174 511 218 771 m 646 810 q 889 786 761 810 l 888 774 q 643 790 772 790 q 417 503 463 790 q 407 390 407 446 q 553 224 407 224 q 813 246 714 224 l 810 233 q 550 204 701 204 q 414 272 457 204 q 388 380 388 314 q 397 511 388 446 q 646 810 446 810 z "},"ª":{"ha":468,"x_min":100,"x_max":567,"o":"m 100 404 l 103 422 l 490 422 l 488 404 l 100 404 m 394 1018 q 567 949 503 1018 l 501 529 l 488 529 l 490 607 q 408 547 458 569 q 306 524 357 524 q 181 585 231 524 q 144 710 144 628 q 171 869 144 810 q 219 951 197 928 q 269 990 240 975 q 346 1016 313 1014 q 394 1018 379 1018 m 172 778 q 167 700 167 746 q 193 610 167 654 q 312 546 231 546 q 494 626 393 546 l 543 943 q 482 978 529 963 q 406 994 435 994 q 374 994 378 994 q 172 778 206 990 z "},"«":{"ha":781,"x_min":147,"x_max":754,"o":"m 147 492 l 476 775 l 497 751 l 194 489 l 417 224 l 393 201 l 147 492 m 404 492 l 733 775 l 754 751 l 449 490 l 676 222 l 650 201 l 404 492 z "},"¬":{"ha":743,"x_min":125,"x_max":682,"o":"m 682 424 q 650 221 669 336 l 617 221 l 643 390 l 125 390 l 131 424 l 682 424 z "},"­":{"ha":501,"x_min":83,"x_max":525,"o":"m 83 386 l 89 419 l 525 419 l 519 386 l 83 386 z "},"®":{"ha":1204,"x_min":144,"x_max":1165,"o":"m 568 1017 l 924 1017 q 1053 979 1001 1017 q 1128 888 1106 942 q 1164 669 1164 804 q 1149 506 1164 603 q 1013 144 1114 289 q 764 0 913 0 l 408 0 q 281 35 335 0 q 200 128 226 71 q 144 365 144 246 q 154 514 144 413 q 317 906 192 764 q 426 985 361 954 q 568 1017 492 1017 m 174 511 q 161 413 161 456 q 167 313 161 369 q 195 183 172 256 q 274 65 218 111 q 407 19 329 19 l 767 19 q 991 149 890 19 q 1129 511 1092 279 q 1143 670 1143 613 q 1142 756 1143 728 q 1080 930 1135 863 q 925 997 1025 997 l 565 997 q 325 884 432 997 q 174 511 218 771 m 739 806 q 888 678 888 806 q 838 517 888 576 q 706 481 806 481 l 818 213 l 797 213 l 685 479 l 463 486 l 419 213 l 400 213 l 493 806 l 739 806 m 699 499 q 813 524 775 499 q 864 629 851 550 q 868 690 868 656 q 847 750 868 725 q 744 786 815 786 l 510 786 l 464 499 l 699 499 z "},"¯":{"ha":546,"x_min":186,"x_max":539,"o":"m 186 738 l 189 758 l 539 758 l 536 738 l 186 738 z "},"°":{"ha":493,"x_min":204,"x_max":492,"o":"m 258 974 q 284 997 258 974 q 368 1021 310 1021 q 458 983 426 1021 q 490 903 490 946 q 440 783 490 829 q 331 736 389 736 q 239 774 272 736 q 206 854 206 811 q 258 974 206 926 m 225 857 q 252 788 225 819 q 329 756 279 756 q 419 792 379 756 q 471 900 471 835 q 444 969 471 938 q 368 1001 418 1001 q 276 965 318 1001 q 225 857 225 921 z "},"±":{"ha":711,"x_min":96,"x_max":697,"o":"m 96 190 l 101 224 l 638 224 l 632 190 l 96 190 m 156 571 l 161 604 l 413 604 l 453 856 l 486 856 l 446 604 l 697 604 l 692 571 l 440 571 l 401 319 l 368 319 l 407 571 l 156 571 z "},"²":{"ha":551,"x_min":104,"x_max":617,"o":"m 535 874 q 544 886 535 874 q 567 924 553 899 q 584 973 581 950 q 588 1031 588 996 q 568 1094 588 1065 q 447 1139 540 1139 l 201 1139 l 203 1153 l 204 1154 q 460 1164 286 1164 q 592 1108 556 1164 q 615 1031 615 1071 q 610 963 615 992 q 582 894 606 933 q 519 815 558 856 q 442 738 481 775 q 353 663 403 701 q 271 600 303 624 q 160 519 167 522 l 538 519 l 533 494 l 104 494 l 107 514 q 144 540 110 515 q 195 576 179 565 q 251 617 211 588 q 314 665 290 647 q 375 715 338 683 q 436 769 413 746 q 489 821 460 792 q 535 874 518 850 z "},"³":{"ha":592,"x_min":106,"x_max":621,"o":"m 350 514 q 483 545 439 514 q 539 660 526 576 l 543 692 q 544 711 544 701 q 507 785 544 756 q 410 817 469 815 l 211 822 l 214 836 l 404 842 q 527 876 472 844 q 588 957 582 907 l 593 1007 q 596 1035 596 1022 q 468 1132 596 1132 l 200 1132 l 201 1146 q 474 1157 260 1157 q 590 1119 560 1157 q 621 1032 621 1081 q 618 1003 621 1018 l 610 950 q 556 865 603 897 q 475 829 510 832 q 540 790 508 822 q 571 714 571 757 q 569 693 571 704 l 563 651 q 504 531 550 572 q 361 489 458 489 q 106 504 175 489 l 107 514 l 350 514 z "},"´":{"ha":274,"x_min":144,"x_max":378,"o":"m 144 738 l 342 922 l 378 922 l 164 738 l 144 738 z "},"µ":{"ha":808,"x_min":65,"x_max":803,"o":"m 190 185 q 222 81 190 125 q 353 22 265 22 q 510 42 442 22 q 669 107 579 61 l 769 739 l 803 739 l 686 1 l 667 1 l 667 88 q 350 -11 499 -11 q 174 96 219 -11 l 99 -375 l 65 -375 l 242 739 l 275 739 l 193 225 q 190 185 190 204 z "},"¶":{"ha":776,"x_min":160,"x_max":897,"o":"m 432 1017 l 897 1017 l 892 981 l 796 981 l 640 0 l 607 0 l 763 983 l 535 983 l 319 -375 l 286 -375 l 426 507 q 381 496 408 496 q 349 496 354 496 q 197 556 246 496 q 161 665 161 603 q 164 703 161 683 l 185 832 q 270 970 199 924 q 432 1017 342 1017 m 197 696 q 194 654 194 678 q 208 600 194 631 q 253 553 222 569 q 354 526 307 526 l 429 526 l 501 983 l 426 983 q 284 938 340 983 q 217 822 228 893 l 197 696 z "},"·":{"ha":390,"x_min":193,"x_max":244,"o":"m 215 556 l 232 556 q 244 539 247 556 l 242 522 q 224 506 239 506 l 207 506 q 193 522 190 506 l 196 539 q 215 556 197 556 z "},"¸":{"ha":376,"x_min":31,"x_max":244,"o":"m 74 -240 l 31 -240 l 32 -231 l 79 -224 q 147 -207 125 -217 q 190 -160 169 -197 q 221 -51 211 -124 l 244 -51 q 193 -199 228 -158 q 74 -240 158 -240 z "},"¹":{"ha":383,"x_min":160,"x_max":406,"o":"m 160 1050 l 161 1065 q 266 1088 211 1065 q 350 1135 321 1111 l 381 1158 l 406 1158 l 300 494 l 275 494 l 374 1121 q 160 1050 281 1050 z "},"º":{"ha":510,"x_min":115,"x_max":583,"o":"m 115 404 l 118 422 l 506 422 l 503 404 l 115 404 m 156 771 q 229 973 181 922 q 406 1024 278 1024 q 567 967 535 1024 q 583 881 583 936 q 572 757 583 825 q 502 568 550 618 q 327 518 454 518 q 167 575 200 518 q 147 662 147 608 q 156 771 147 715 m 178 764 q 169 661 169 710 q 188 586 169 613 q 329 540 218 540 q 485 583 440 540 q 550 764 529 626 q 561 880 561 831 q 546 956 561 929 q 404 1001 518 1001 q 246 957 290 1001 q 178 764 201 913 z "},"»":{"ha":776,"x_min":113,"x_max":728,"o":"m 113 226 l 425 496 l 207 753 l 232 775 l 471 492 l 133 201 l 113 226 m 369 226 l 683 494 l 464 754 l 489 775 l 728 492 l 390 201 l 369 226 z "},"¼":{"ha":1281,"x_min":160,"x_max":1211,"o":"m 160 911 l 161 926 q 266 949 211 926 q 350 996 321 972 l 381 1019 l 406 1019 l 300 356 l 275 356 l 374 982 q 160 911 281 911 m 292 0 l 997 1069 l 1025 1069 l 319 0 l 292 0 m 699 246 l 1028 660 l 1058 660 l 742 258 l 1104 258 l 1131 426 l 1154 493 l 1167 493 l 1129 258 l 1211 258 l 1210 247 l 1125 232 l 1089 1 l 1064 1 l 1100 232 l 701 232 l 699 246 z "},"½":{"ha":1317,"x_min":160,"x_max":1268,"o":"m 160 911 l 161 926 q 266 949 211 926 q 350 996 321 972 l 381 1019 l 406 1019 l 300 356 l 275 356 l 374 982 q 160 911 281 911 m 228 0 l 933 1069 l 961 1069 l 256 0 l 228 0 m 1187 381 q 1195 393 1187 381 q 1218 431 1204 406 q 1235 480 1232 457 q 1239 538 1239 503 q 1219 603 1239 572 q 1099 646 1192 646 l 853 646 l 854 660 l 856 661 q 1111 671 938 671 q 1267 528 1267 671 q 1242 417 1267 461 q 1190 341 1217 374 q 1124 270 1164 308 q 1051 204 1083 232 q 974 142 1018 176 q 906 91 931 108 q 849 51 882 74 q 814 26 815 28 l 1189 26 l 1185 1 l 756 1 l 758 21 q 796 47 761 22 q 847 83 831 72 q 902 124 863 94 q 965 172 942 154 q 1026 222 989 190 q 1088 276 1064 253 q 1140 328 1111 299 q 1187 381 1169 357 z "},"¾":{"ha":1433,"x_min":106,"x_max":1329,"o":"m 350 375 q 483 406 439 375 q 539 521 526 438 l 543 553 q 544 572 544 563 q 507 647 544 617 q 410 678 469 676 l 211 683 l 214 697 l 404 703 q 527 737 472 706 q 588 818 582 768 l 593 868 q 596 896 596 883 q 468 993 596 993 l 200 993 l 201 1007 q 474 1018 260 1018 q 590 980 560 1018 q 621 893 621 942 q 618 864 621 879 l 610 811 q 556 726 603 758 q 475 690 510 693 q 540 651 508 683 q 571 575 571 618 q 569 554 571 565 l 563 513 q 504 392 550 433 q 361 350 458 350 q 106 365 175 350 l 107 375 l 350 375 m 439 0 l 1144 1069 l 1172 1069 l 467 0 l 439 0 m 815 246 l 1146 660 l 1176 660 l 857 258 l 1222 258 l 1249 426 l 1272 493 l 1285 493 l 1247 258 l 1329 258 l 1328 247 l 1243 232 l 1207 1 l 1182 1 l 1218 232 l 819 232 l 815 246 z "},"¿":{"ha":751,"x_min":32,"x_max":629,"o":"m 365 247 q 465 242 411 247 l 488 383 l 524 383 l 497 214 l 350 214 q 174 170 238 214 q 94 25 111 126 l 72 -117 q 67 -182 67 -153 q 100 -289 67 -254 q 281 -339 149 -339 l 629 -339 l 626 -358 q 274 -372 504 -372 q 261 -372 268 -372 q 69 -308 118 -372 q 33 -181 33 -260 q 39 -111 33 -149 l 61 28 q 178 211 82 161 q 365 247 246 247 m 542 653 l 557 653 q 571 636 574 653 l 558 550 q 539 533 556 533 l 522 533 q 510 550 507 533 l 522 636 q 542 653 525 653 z "},"À":{"ha":893,"x_min":63,"x_max":854,"o":"m 476 1292 l 513 1292 l 651 1107 l 632 1107 l 476 1292 m 63 0 l 604 1017 l 651 1017 l 854 0 l 821 0 l 750 351 l 288 351 l 101 0 l 63 0 m 306 385 l 743 385 l 624 985 l 306 385 z "},"Á":{"ha":893,"x_min":63,"x_max":867,"o":"m 632 1107 l 829 1292 l 865 1292 l 651 1107 l 632 1107 m 63 0 l 604 1017 l 651 1017 l 854 0 l 821 0 l 750 351 l 288 351 l 101 0 l 63 0 m 306 385 l 743 385 l 624 985 l 306 385 z "},"Â":{"ha":893,"x_min":63,"x_max":854,"o":"m 453 1107 l 665 1288 l 694 1288 l 831 1107 l 807 1107 l 676 1267 l 478 1107 l 453 1107 m 63 0 l 604 1017 l 651 1017 l 854 0 l 821 0 l 750 351 l 288 351 l 101 0 l 63 0 m 306 385 l 743 385 l 624 985 l 306 385 z "},"Ã":{"ha":893,"x_min":63,"x_max":892,"o":"m 572 1231 q 628 1206 597 1231 q 688 1155 658 1181 q 731 1129 717 1129 q 753 1131 744 1129 q 772 1135 763 1132 q 790 1142 782 1139 q 808 1151 797 1146 q 825 1161 818 1157 q 842 1172 832 1165 q 856 1183 851 1179 q 871 1194 861 1186 q 883 1203 881 1201 l 890 1193 q 781 1116 810 1125 q 729 1107 751 1107 q 676 1133 707 1107 q 618 1183 646 1158 q 575 1208 590 1208 q 549 1207 560 1208 q 527 1201 539 1206 q 508 1192 515 1196 q 486 1181 500 1189 q 465 1169 472 1172 q 442 1154 458 1165 q 419 1139 426 1143 l 414 1150 q 572 1231 519 1231 m 63 0 l 604 1017 l 651 1017 l 854 0 l 821 0 l 750 351 l 288 351 l 101 0 l 63 0 m 306 385 l 743 385 l 624 985 l 306 385 z "},"Ä":{"ha":893,"x_min":63,"x_max":854,"o":"m 474 1156 q 490 1149 485 1156 q 493 1132 496 1142 q 465 1107 489 1107 q 449 1115 456 1107 q 444 1132 443 1122 q 474 1156 450 1156 m 828 1156 q 844 1149 839 1156 q 847 1132 850 1142 q 819 1107 843 1107 q 803 1115 810 1107 q 799 1132 797 1122 q 828 1156 804 1156 m 63 0 l 604 1017 l 651 1017 l 854 0 l 821 0 l 750 351 l 288 351 l 101 0 l 63 0 m 306 385 l 743 385 l 624 985 l 306 385 z "},"Å":{"ha":893,"x_min":63,"x_max":854,"o":"m 563 1252 q 590 1275 563 1252 q 676 1299 617 1299 q 765 1262 735 1299 q 794 1181 794 1225 q 742 1060 794 1107 q 630 1014 689 1014 q 540 1051 571 1014 q 508 1132 508 1088 q 563 1252 508 1206 m 529 1135 q 556 1067 529 1099 q 625 1035 583 1035 q 697 1051 667 1035 q 775 1176 775 1093 q 749 1246 775 1214 q 672 1278 722 1278 q 581 1242 622 1278 q 529 1135 529 1197 m 63 0 l 604 1017 l 651 1017 l 854 0 l 821 0 l 750 351 l 288 351 l 101 0 l 63 0 m 306 385 l 743 385 l 624 985 l 306 385 z "},"Æ":{"ha":1244,"x_min":42,"x_max":1368,"o":"m 983 1017 q 1000 1017 992 1017 l 1368 1003 l 1365 983 l 994 983 q 875 960 901 983 q 857 943 864 949 q 845 919 850 938 q 838 892 840 900 q 833 858 836 885 q 828 822 829 832 l 779 521 l 1236 514 l 1232 494 l 775 488 l 724 171 q 719 129 719 147 q 752 53 719 78 q 857 29 785 29 l 1214 29 l 1211 10 l 864 -4 q 838 -4 856 -4 q 792 0 819 -4 q 688 125 688 19 q 690 168 688 144 l 719 350 l 360 350 l 83 0 l 42 0 l 693 819 q 817 961 783 933 q 983 1017 882 1017 m 388 383 l 725 383 l 808 913 l 388 383 z "},"Ç":{"ha":783,"x_min":146,"x_max":874,"o":"m 283 893 q 307 928 283 893 q 403 995 331 963 q 587 1028 475 1028 q 874 994 699 1028 l 871 975 q 834 979 851 978 q 794 983 817 981 q 745 987 772 985 q 690 990 718 989 q 576 994 607 994 q 399 956 468 994 q 196 508 254 872 q 181 335 181 411 q 425 25 181 25 q 681 38 556 25 l 722 42 l 719 22 q 418 -8 550 -8 q 146 333 146 -8 q 165 535 146 418 q 210 738 183 651 q 283 893 236 824 m 313 -239 l 269 -239 l 271 -229 l 317 -222 q 385 -206 363 -215 q 428 -159 407 -196 q 458 -50 449 -122 l 482 -50 q 431 -199 465 -158 q 313 -239 396 -239 z "},"È":{"ha":779,"x_min":131,"x_max":856,"o":"m 431 1285 l 467 1285 l 606 1100 l 586 1100 l 431 1285 m 435 1017 q 444 1017 440 1017 l 856 1003 l 853 983 l 440 983 q 275 836 299 983 l 225 521 l 722 514 l 719 494 l 219 488 l 169 171 q 165 129 165 147 q 198 53 165 78 q 303 29 231 29 l 701 29 l 699 10 l 297 -4 q 286 -4 292 -4 q 132 126 132 -4 q 136 178 132 150 l 242 843 q 311 977 257 938 q 435 1017 365 1017 z "},"É":{"ha":779,"x_min":131,"x_max":856,"o":"m 567 1100 l 764 1285 l 800 1285 l 586 1100 l 567 1100 m 435 1017 q 444 1017 440 1017 l 856 1003 l 853 983 l 440 983 q 275 836 299 983 l 225 521 l 722 514 l 719 494 l 219 488 l 169 171 q 165 129 165 147 q 198 53 165 78 q 303 29 231 29 l 701 29 l 699 10 l 297 -4 q 286 -4 292 -4 q 132 126 132 -4 q 136 178 132 150 l 242 843 q 311 977 257 938 q 435 1017 365 1017 z "},"Ê":{"ha":779,"x_min":131,"x_max":856,"o":"m 408 1100 l 621 1281 l 650 1281 l 786 1100 l 763 1100 l 632 1260 l 433 1100 l 408 1100 m 435 1017 q 444 1017 440 1017 l 856 1003 l 853 983 l 440 983 q 275 836 299 983 l 225 521 l 722 514 l 719 494 l 219 488 l 169 171 q 165 129 165 147 q 198 53 165 78 q 303 29 231 29 l 701 29 l 699 10 l 297 -4 q 286 -4 292 -4 q 132 126 132 -4 q 136 178 132 150 l 242 843 q 311 977 257 938 q 435 1017 365 1017 z "},"Ë":{"ha":779,"x_min":131,"x_max":856,"o":"m 393 1171 q 422 1194 397 1194 q 442 1171 446 1194 q 414 1146 436 1146 q 397 1153 403 1146 q 393 1171 392 1161 m 747 1171 q 776 1194 751 1194 q 796 1171 800 1194 q 768 1146 790 1146 q 751 1153 757 1146 q 747 1171 746 1161 m 435 1017 q 444 1017 440 1017 l 856 1003 l 853 983 l 440 983 q 275 836 299 983 l 225 521 l 722 514 l 719 494 l 219 488 l 169 171 q 165 129 165 147 q 198 53 165 78 q 303 29 231 29 l 701 29 l 699 10 l 297 -4 q 286 -4 292 -4 q 132 126 132 -4 q 136 178 132 150 l 242 843 q 311 977 257 938 q 435 1017 365 1017 z "},"Ì":{"ha":267,"x_min":125,"x_max":328,"o":"m 151 1292 l 188 1292 l 326 1107 l 307 1107 l 151 1292 m 125 0 l 286 1017 l 319 1017 l 158 0 l 125 0 z "},"Í":{"ha":267,"x_min":125,"x_max":542,"o":"m 307 1107 l 504 1292 l 540 1292 l 326 1107 l 307 1107 m 125 0 l 286 1017 l 319 1017 l 158 0 l 125 0 z "},"Î":{"ha":267,"x_min":125,"x_max":507,"o":"m 128 1107 l 340 1288 l 369 1288 l 506 1107 l 482 1107 l 351 1267 l 153 1107 l 128 1107 m 125 0 l 286 1017 l 319 1017 l 158 0 l 125 0 z "},"Ï":{"ha":267,"x_min":118,"x_max":524,"o":"m 149 1156 q 165 1149 160 1156 q 168 1132 171 1142 q 140 1107 164 1107 q 125 1113 131 1107 q 119 1126 119 1119 q 149 1156 119 1156 m 474 1132 q 501 1156 479 1156 q 524 1138 524 1156 q 494 1107 524 1107 q 478 1115 485 1107 q 474 1132 472 1122 m 125 0 l 286 1017 l 319 1017 l 158 0 l 125 0 z "},"Ð":{"ha":953,"x_min":100,"x_max":919,"o":"m 621 1017 q 774 981 711 1017 q 867 892 836 946 q 918 658 918 803 q 900 487 918 586 q 849 302 882 388 q 764 147 815 217 q 469 0 656 0 l 110 0 l 190 508 l 100 508 l 103 528 l 193 528 l 271 1017 l 621 1017 m 469 33 q 633 77 560 33 q 751 194 706 121 q 868 506 840 335 q 883 669 883 597 q 842 865 883 792 q 614 983 775 983 l 299 983 l 226 528 l 447 528 l 444 508 l 224 508 l 149 33 l 469 33 z "},"Ñ":{"ha":892,"x_min":111,"x_max":951,"o":"m 557 1231 q 612 1206 581 1231 q 672 1155 643 1181 q 715 1129 701 1129 q 737 1131 728 1129 q 756 1135 746 1132 q 774 1142 765 1139 q 792 1151 782 1146 q 808 1161 801 1157 q 826 1172 815 1165 q 841 1183 836 1179 q 856 1194 846 1186 q 868 1203 865 1201 l 875 1193 q 765 1116 794 1125 q 716 1107 736 1107 q 672 1123 696 1107 q 631 1158 649 1139 q 556 1208 582 1208 q 426 1154 508 1208 q 404 1139 410 1143 l 399 1150 q 557 1231 503 1231 m 111 0 l 272 1017 l 307 1017 l 765 60 l 918 1017 l 951 1017 l 790 0 l 757 0 l 297 958 l 144 0 l 111 0 z "},"Ò":{"ha":950,"x_min":142,"x_max":931,"o":"m 469 1292 l 506 1292 l 644 1107 l 625 1107 l 469 1292 m 380 980 q 408 994 380 980 q 488 1016 436 1008 q 613 1024 539 1024 q 732 1017 688 1024 q 819 992 776 1011 q 883 936 861 972 q 931 731 931 860 q 909 498 931 638 q 857 267 888 358 q 790 123 826 176 q 699 40 754 69 q 590 3 644 11 q 453 -6 536 -6 q 319 3 369 -6 q 223 43 268 13 q 160 131 178 74 q 142 283 142 189 q 164 515 142 378 q 219 747 186 651 q 288 897 251 843 q 380 980 324 951 m 265 775 q 255 750 265 775 q 228 656 244 725 q 194 482 211 588 q 177 331 178 376 q 176 246 176 286 q 190 154 176 206 q 243 75 204 103 q 331 38 282 47 q 459 28 381 28 q 590 38 538 28 q 690 76 642 47 q 769 157 738 104 q 875 501 838 267 q 896 722 896 631 q 879 867 896 813 q 821 948 863 921 q 734 983 779 975 q 628 990 689 990 q 539 988 568 990 q 473 980 510 986 q 411 959 436 974 q 357 922 386 944 q 307 862 328 899 q 265 775 286 825 z "},"Ó":{"ha":950,"x_min":142,"x_max":931,"o":"m 625 1107 l 822 1292 l 858 1292 l 644 1107 l 625 1107 m 380 980 q 408 994 380 980 q 488 1016 436 1008 q 613 1024 539 1024 q 732 1017 688 1024 q 819 992 776 1011 q 883 936 861 972 q 931 731 931 860 q 909 498 931 638 q 857 267 888 358 q 790 123 826 176 q 699 40 754 69 q 590 3 644 11 q 453 -6 536 -6 q 319 3 369 -6 q 223 43 268 13 q 160 131 178 74 q 142 283 142 189 q 164 515 142 378 q 219 747 186 651 q 288 897 251 843 q 380 980 324 951 m 265 775 q 255 750 265 775 q 228 656 244 725 q 194 482 211 588 q 177 331 178 376 q 176 246 176 286 q 190 154 176 206 q 243 75 204 103 q 331 38 282 47 q 459 28 381 28 q 590 38 538 28 q 690 76 642 47 q 769 157 738 104 q 875 501 838 267 q 896 722 896 631 q 879 867 896 813 q 821 948 863 921 q 734 983 779 975 q 628 990 689 990 q 539 988 568 990 q 473 980 510 986 q 411 959 436 974 q 357 922 386 944 q 307 862 328 899 q 265 775 286 825 z "},"Ô":{"ha":950,"x_min":142,"x_max":931,"o":"m 446 1107 l 658 1288 l 688 1288 l 824 1107 l 800 1107 l 669 1267 l 471 1107 l 446 1107 m 380 980 q 408 994 380 980 q 488 1016 436 1008 q 613 1024 539 1024 q 732 1017 688 1024 q 819 992 776 1011 q 883 936 861 972 q 931 731 931 860 q 909 498 931 638 q 857 267 888 358 q 790 123 826 176 q 699 40 754 69 q 590 3 644 11 q 453 -6 536 -6 q 319 3 369 -6 q 223 43 268 13 q 160 131 178 74 q 142 283 142 189 q 164 515 142 378 q 219 747 186 651 q 288 897 251 843 q 380 980 324 951 m 265 775 q 255 750 265 775 q 228 656 244 725 q 194 482 211 588 q 177 331 178 376 q 176 246 176 286 q 190 154 176 206 q 243 75 204 103 q 331 38 282 47 q 459 28 381 28 q 590 38 538 28 q 690 76 642 47 q 769 157 738 104 q 875 501 838 267 q 896 722 896 631 q 879 867 896 813 q 821 948 863 921 q 734 983 779 975 q 628 990 689 990 q 539 988 568 990 q 473 980 510 986 q 411 959 436 974 q 357 922 386 944 q 307 862 328 899 q 265 775 286 825 z "},"Õ":{"ha":950,"x_min":142,"x_max":931,"o":"m 517 1222 q 532 1226 517 1222 q 568 1231 547 1231 q 620 1206 589 1231 q 680 1155 651 1181 q 722 1129 708 1129 q 744 1131 735 1129 q 760 1134 753 1132 q 776 1140 768 1136 q 792 1148 785 1144 q 808 1156 800 1151 q 823 1165 817 1161 q 838 1176 829 1169 q 851 1185 847 1182 q 864 1194 856 1189 q 876 1203 872 1200 l 883 1193 q 773 1116 801 1125 q 724 1107 744 1107 q 680 1123 703 1107 q 639 1158 657 1139 q 564 1208 590 1208 q 435 1154 517 1208 q 413 1139 418 1143 l 407 1150 q 517 1222 488 1213 m 380 980 q 408 994 380 980 q 488 1016 436 1008 q 613 1024 539 1024 q 732 1017 688 1024 q 819 992 776 1011 q 883 936 861 972 q 931 731 931 860 q 909 498 931 638 q 857 267 888 358 q 790 123 826 176 q 699 40 754 69 q 590 3 644 11 q 453 -6 536 -6 q 319 3 369 -6 q 223 43 268 13 q 160 131 178 74 q 142 283 142 189 q 164 515 142 378 q 219 747 186 651 q 288 897 251 843 q 380 980 324 951 m 265 775 q 255 750 265 775 q 228 656 244 725 q 194 482 211 588 q 177 331 178 376 q 176 246 176 286 q 190 154 176 206 q 243 75 204 103 q 331 38 282 47 q 459 28 381 28 q 590 38 538 28 q 690 76 642 47 q 769 157 738 104 q 875 501 838 267 q 896 722 896 631 q 879 867 896 813 q 821 948 863 921 q 734 983 779 975 q 628 990 689 990 q 539 988 568 990 q 473 980 510 986 q 411 959 436 974 q 357 922 386 944 q 307 862 328 899 q 265 775 286 825 z "},"Ö":{"ha":950,"x_min":142,"x_max":931,"o":"m 467 1156 q 482 1149 476 1156 q 486 1132 488 1142 q 458 1107 481 1107 q 441 1115 447 1107 q 438 1132 435 1122 q 467 1156 442 1156 m 821 1156 q 836 1149 831 1156 q 840 1132 842 1142 q 813 1107 835 1107 q 795 1115 801 1107 q 792 1132 789 1122 q 821 1156 796 1156 m 380 980 q 408 994 380 980 q 488 1016 436 1008 q 613 1024 539 1024 q 732 1017 688 1024 q 819 992 776 1011 q 883 936 861 972 q 931 731 931 860 q 909 498 931 638 q 857 267 888 358 q 790 123 826 176 q 699 40 754 69 q 590 3 644 11 q 453 -6 536 -6 q 319 3 369 -6 q 223 43 268 13 q 160 131 178 74 q 142 283 142 189 q 164 515 142 378 q 219 747 186 651 q 288 897 251 843 q 380 980 324 951 m 265 775 q 255 750 265 775 q 228 656 244 725 q 194 482 211 588 q 177 331 178 376 q 176 246 176 286 q 190 154 176 206 q 243 75 204 103 q 331 38 282 47 q 459 28 381 28 q 590 38 538 28 q 690 76 642 47 q 769 157 738 104 q 875 501 838 267 q 896 722 896 631 q 879 867 896 813 q 821 948 863 921 q 734 983 779 975 q 628 990 689 990 q 539 988 568 990 q 473 980 510 986 q 411 959 436 974 q 357 922 386 944 q 307 862 328 899 q 265 775 286 825 z "},"×":{"ha":615,"x_min":129,"x_max":588,"o":"m 129 317 l 335 494 l 186 672 l 210 693 l 360 515 l 568 696 l 588 672 l 379 492 l 529 314 l 504 293 l 356 471 l 149 293 l 129 317 z "},"Ø":{"ha":950,"x_min":118,"x_max":958,"o":"m 183 82 q 143 258 143 143 q 161 490 143 374 q 200 684 179 607 q 244 817 221 761 q 298 910 267 872 q 360 969 329 947 q 433 1004 390 992 q 608 1024 501 1024 q 778 1008 714 1024 q 878 947 842 993 l 933 1017 l 958 1017 l 889 931 q 931 746 931 864 q 909 493 931 628 q 857 267 888 358 q 790 123 826 176 q 699 40 754 69 q 590 3 644 11 q 444 -6 536 -6 q 292 8 351 -6 q 196 65 232 22 l 143 0 l 118 0 l 183 82 m 265 775 q 255 750 265 775 q 228 656 244 725 q 194 479 211 588 q 176 268 176 371 q 208 111 176 165 l 854 919 q 766 977 822 964 q 639 990 710 990 q 539 988 568 990 q 473 980 510 986 q 411 959 436 974 q 357 922 386 944 q 307 862 328 899 q 265 775 286 825 m 219 94 q 309 42 250 56 q 465 28 368 28 q 622 44 561 28 q 734 110 682 60 q 818 253 786 160 q 873 491 850 347 q 896 739 896 635 q 865 901 896 843 l 219 94 z "},"Ù":{"ha":946,"x_min":165,"x_max":976,"o":"m 474 1292 l 510 1292 l 649 1107 l 629 1107 l 474 1292 m 215 444 q 197 294 197 333 q 199 228 197 256 q 206 171 201 201 q 223 118 210 140 q 247 80 236 96 q 281 54 258 64 q 319 38 304 44 q 365 31 335 32 q 465 26 417 26 q 544 28 514 26 q 611 40 574 31 q 675 67 649 50 q 731 114 701 83 q 781 189 760 144 q 853 444 831 292 l 943 1017 l 976 1017 l 886 444 q 839 244 863 304 q 799 149 815 183 q 759 92 782 115 q 717 51 736 68 q 671 23 699 33 q 624 6 643 13 q 575 -3 606 0 q 432 -7 528 -7 q 285 14 336 -7 q 165 261 165 60 q 182 444 165 339 l 272 1017 l 306 1017 l 215 444 z "},"Ú":{"ha":946,"x_min":165,"x_max":976,"o":"m 629 1107 l 826 1292 l 863 1292 l 649 1107 l 629 1107 m 215 444 q 197 294 197 333 q 199 228 197 256 q 206 171 201 201 q 223 118 210 140 q 247 80 236 96 q 281 54 258 64 q 319 38 304 44 q 365 31 335 32 q 465 26 417 26 q 544 28 514 26 q 611 40 574 31 q 675 67 649 50 q 731 114 701 83 q 781 189 760 144 q 853 444 831 292 l 943 1017 l 976 1017 l 886 444 q 839 244 863 304 q 799 149 815 183 q 759 92 782 115 q 717 51 736 68 q 671 23 699 33 q 624 6 643 13 q 575 -3 606 0 q 432 -7 528 -7 q 285 14 336 -7 q 165 261 165 60 q 182 444 165 339 l 272 1017 l 306 1017 l 215 444 z "},"Û":{"ha":946,"x_min":165,"x_max":976,"o":"m 450 1107 l 663 1288 l 692 1288 l 828 1107 l 804 1107 l 674 1267 l 475 1107 l 450 1107 m 215 444 q 197 294 197 333 q 199 228 197 256 q 206 171 201 201 q 223 118 210 140 q 247 80 236 96 q 281 54 258 64 q 319 38 304 44 q 365 31 335 32 q 465 26 417 26 q 544 28 514 26 q 611 40 574 31 q 675 67 649 50 q 731 114 701 83 q 781 189 760 144 q 853 444 831 292 l 943 1017 l 976 1017 l 886 444 q 839 244 863 304 q 799 149 815 183 q 759 92 782 115 q 717 51 736 68 q 671 23 699 33 q 624 6 643 13 q 575 -3 606 0 q 432 -7 528 -7 q 285 14 336 -7 q 165 261 165 60 q 182 444 165 339 l 272 1017 l 306 1017 l 215 444 z "},"Ü":{"ha":946,"x_min":165,"x_max":976,"o":"m 471 1156 q 486 1149 481 1156 q 490 1132 492 1142 q 463 1107 485 1107 q 445 1115 451 1107 q 442 1132 439 1122 q 471 1156 446 1156 m 825 1156 q 840 1149 835 1156 q 844 1132 846 1142 q 817 1107 839 1107 q 799 1115 806 1107 q 796 1132 793 1122 q 825 1156 800 1156 m 215 444 q 197 294 197 333 q 199 228 197 256 q 206 171 201 201 q 223 118 210 140 q 247 80 236 96 q 281 54 258 64 q 319 38 304 44 q 365 31 335 32 q 465 26 417 26 q 544 28 514 26 q 611 40 574 31 q 675 67 649 50 q 731 114 701 83 q 781 189 760 144 q 853 444 831 292 l 943 1017 l 976 1017 l 886 444 q 839 244 863 304 q 799 149 815 183 q 759 92 782 115 q 717 51 736 68 q 671 23 699 33 q 624 6 643 13 q 575 -3 606 0 q 432 -7 528 -7 q 285 14 336 -7 q 165 261 165 60 q 182 444 165 339 l 272 1017 l 306 1017 l 215 444 z "},"Ý":{"ha":872,"x_min":208,"x_max":944,"o":"m 581 1107 l 778 1292 l 814 1292 l 600 1107 l 581 1107 m 208 1017 l 246 1017 l 463 406 l 904 1017 l 944 1017 l 475 361 l 418 0 l 385 0 l 442 361 l 208 1017 z "},"Þ":{"ha":768,"x_min":83,"x_max":756,"o":"m 83 0 q 243 1013 83 0 l 276 1013 l 246 817 l 547 817 q 675 782 619 817 q 750 642 733 746 q 754 590 754 621 q 744 497 754 560 q 708 374 733 433 q 653 284 682 315 q 586 235 625 253 q 451 207 526 207 q 151 221 204 213 l 117 0 l 83 0 m 456 240 q 624 304 560 240 q 713 524 688 368 q 721 592 721 564 q 715 652 721 619 q 694 713 708 685 q 653 756 681 740 q 542 783 604 783 l 240 783 l 154 240 l 456 240 z "},"ß":{"ha":761,"x_min":83,"x_max":806,"o":"m 539 1079 q 804 913 804 1079 q 717 722 804 822 q 643 657 679 681 q 562 606 607 633 q 497 565 517 578 q 438 469 438 526 q 550 390 438 406 q 653 374 603 383 q 733 338 704 365 q 763 269 763 310 q 761 247 763 258 l 751 179 q 672 38 738 86 q 506 -11 607 -11 q 264 10 365 -11 l 267 29 q 478 22 394 22 q 604 38 563 22 q 669 81 646 54 q 718 183 710 129 l 728 247 q 729 265 729 257 q 699 322 729 300 q 618 350 669 343 q 515 365 567 357 q 434 400 463 374 q 406 465 406 426 q 417 519 406 493 q 440 557 428 546 q 461 576 453 568 q 490 597 469 583 q 525 619 511 611 q 630 686 599 667 q 701 754 661 706 q 774 918 774 842 q 740 994 774 965 q 550 1046 683 1046 q 339 978 417 1046 q 242 786 261 911 l 117 0 l 83 0 l 208 786 q 313 997 228 915 q 539 1079 399 1079 z "},"à":{"ha":757,"x_min":108,"x_max":744,"o":"m 324 1022 l 360 1022 l 499 838 l 479 838 l 324 1022 m 291 708 q 311 720 291 708 q 360 739 331 732 q 421 750 389 746 q 494 754 453 754 q 614 734 535 754 q 744 665 693 714 l 647 0 l 628 0 l 629 83 q 499 23 586 56 q 351 -10 413 -10 q 253 1 290 -10 q 181 37 215 11 q 131 107 146 63 q 110 239 110 168 q 126 394 110 310 q 168 546 142 479 q 223 649 194 613 q 291 708 251 685 m 143 243 q 331 22 143 22 q 419 31 383 22 q 467 41 454 39 q 512 56 481 43 q 549 70 543 68 q 591 88 554 72 q 629 104 628 104 l 710 661 q 493 722 611 722 q 244 619 322 722 q 151 342 182 539 q 143 243 143 288 z "},"á":{"ha":757,"x_min":108,"x_max":744,"o":"m 479 838 l 676 1022 l 713 1022 l 499 838 l 479 838 m 291 708 q 311 720 291 708 q 360 739 331 732 q 421 750 389 746 q 494 754 453 754 q 614 734 535 754 q 744 665 693 714 l 647 0 l 628 0 l 629 83 q 499 23 586 56 q 351 -10 413 -10 q 253 1 290 -10 q 181 37 215 11 q 131 107 146 63 q 110 239 110 168 q 126 394 110 310 q 168 546 142 479 q 223 649 194 613 q 291 708 251 685 m 143 243 q 331 22 143 22 q 419 31 383 22 q 467 41 454 39 q 512 56 481 43 q 549 70 543 68 q 591 88 554 72 q 629 104 628 104 l 710 661 q 493 722 611 722 q 244 619 322 722 q 151 342 182 539 q 143 243 143 288 z "},"â":{"ha":757,"x_min":108,"x_max":744,"o":"m 300 838 l 513 1018 l 542 1018 l 678 838 l 654 838 l 524 997 l 325 838 l 300 838 m 291 708 q 311 720 291 708 q 360 739 331 732 q 421 750 389 746 q 494 754 453 754 q 614 734 535 754 q 744 665 693 714 l 647 0 l 628 0 l 629 83 q 499 23 586 56 q 351 -10 413 -10 q 253 1 290 -10 q 181 37 215 11 q 131 107 146 63 q 110 239 110 168 q 126 394 110 310 q 168 546 142 479 q 223 649 194 613 q 291 708 251 685 m 143 243 q 331 22 143 22 q 419 31 383 22 q 467 41 454 39 q 512 56 481 43 q 549 70 543 68 q 591 88 554 72 q 629 104 628 104 l 710 661 q 493 722 611 722 q 244 619 322 722 q 151 342 182 539 q 143 243 143 288 z "},"ã":{"ha":757,"x_min":108,"x_max":744,"o":"m 372 952 q 387 957 372 952 q 423 961 401 961 q 475 935 444 961 q 535 885 506 910 q 578 860 564 860 q 601 861 592 860 q 619 866 610 863 q 637 873 629 869 q 655 882 644 876 q 672 892 665 888 q 688 903 678 896 q 703 913 699 910 q 718 924 708 917 q 731 933 728 932 l 738 924 q 651 857 672 868 q 583 838 608 838 q 535 853 558 838 q 493 888 511 869 q 418 939 446 939 q 290 885 372 939 q 267 869 274 874 l 261 881 q 372 952 343 943 m 291 708 q 311 720 291 708 q 360 739 331 732 q 421 750 389 746 q 494 754 453 754 q 614 734 535 754 q 744 665 693 714 l 647 0 l 628 0 l 629 83 q 499 23 586 56 q 351 -10 413 -10 q 253 1 290 -10 q 181 37 215 11 q 131 107 146 63 q 110 239 110 168 q 126 394 110 310 q 168 546 142 479 q 223 649 194 613 q 291 708 251 685 m 143 243 q 331 22 143 22 q 419 31 383 22 q 467 41 454 39 q 512 56 481 43 q 549 70 543 68 q 591 88 554 72 q 629 104 628 104 l 710 661 q 493 722 611 722 q 244 619 322 722 q 151 342 182 539 q 143 243 143 288 z "},"ä":{"ha":757,"x_min":108,"x_max":744,"o":"m 321 886 q 338 879 332 886 q 340 863 343 872 q 313 838 336 838 q 297 845 303 838 q 292 863 290 853 q 321 886 297 886 m 675 886 q 692 879 686 886 q 694 863 697 872 q 667 838 690 838 q 651 845 657 838 q 646 863 644 853 q 675 886 651 886 m 291 708 q 311 720 291 708 q 360 739 331 732 q 421 750 389 746 q 494 754 453 754 q 614 734 535 754 q 744 665 693 714 l 647 0 l 628 0 l 629 83 q 499 23 586 56 q 351 -10 413 -10 q 253 1 290 -10 q 181 37 215 11 q 131 107 146 63 q 110 239 110 168 q 126 394 110 310 q 168 546 142 479 q 223 649 194 613 q 291 708 251 685 m 143 243 q 331 22 143 22 q 419 31 383 22 q 467 41 454 39 q 512 56 481 43 q 549 70 543 68 q 591 88 554 72 q 629 104 628 104 l 710 661 q 493 722 611 722 q 244 619 322 722 q 151 342 182 539 q 143 243 143 288 z "},"å":{"ha":757,"x_min":108,"x_max":744,"o":"m 424 1076 q 451 1099 424 1076 q 536 1122 478 1122 q 625 1085 594 1122 q 656 1004 656 1047 q 626 913 656 951 q 490 838 572 838 q 401 874 432 838 q 369 956 369 911 q 424 1076 369 1029 m 390 958 q 417 890 390 922 q 494 858 444 858 q 585 893 544 858 q 635 1000 635 938 q 608 1069 635 1038 q 532 1101 582 1101 q 442 1065 482 1101 q 390 958 390 1021 m 291 708 q 311 720 291 708 q 360 739 331 732 q 421 750 389 746 q 494 754 453 754 q 614 734 535 754 q 744 665 693 714 l 647 0 l 628 0 l 629 83 q 499 23 586 56 q 351 -10 413 -10 q 253 1 290 -10 q 181 37 215 11 q 131 107 146 63 q 110 239 110 168 q 126 394 110 310 q 168 546 142 479 q 223 649 194 613 q 291 708 251 685 m 143 243 q 331 22 143 22 q 419 31 383 22 q 467 41 454 39 q 512 56 481 43 q 549 70 543 68 q 591 88 554 72 q 629 104 628 104 l 710 661 q 493 722 611 722 q 244 619 322 722 q 151 342 182 539 q 143 243 143 288 z "},"æ":{"ha":1338,"x_min":53,"x_max":1228,"o":"m 1153 400 q 1016 332 1093 347 q 822 317 939 317 q 639 343 706 317 q 631 233 631 275 q 633 167 631 192 q 678 61 640 96 q 813 24 717 24 q 1117 53 910 24 l 1113 31 q 789 -10 965 -10 q 611 103 649 -10 q 573 82 606 100 q 524 56 540 64 q 474 33 508 49 q 414 11 440 18 q 125 36 233 -43 q 75 107 90 63 q 54 239 54 168 q 70 394 54 310 q 113 546 86 479 q 169 649 140 613 q 238 708 197 685 q 307 739 278 732 q 419 753 368 753 q 560 729 471 753 q 708 660 650 706 q 963 751 788 751 q 1171 703 1103 751 q 1226 579 1226 663 q 1153 400 1226 465 m 88 243 q 275 22 88 22 q 367 35 315 22 q 444 58 419 49 q 535 97 468 67 q 604 128 601 126 q 596 226 596 165 q 619 421 596 288 q 692 640 642 554 q 422 721 544 721 q 374 718 397 721 q 188 620 250 701 q 96 342 126 539 q 88 243 88 288 m 743 350 q 770 348 743 350 q 847 346 797 346 q 958 356 896 346 q 1066 385 1019 365 q 1147 444 1113 404 q 1192 569 1192 494 q 1140 681 1192 643 q 992 718 1089 718 q 841 699 896 718 q 756 658 786 679 q 701 581 725 638 q 669 492 676 524 q 652 414 661 461 q 642 363 643 367 q 671 358 653 361 q 743 350 689 354 z "},"ç":{"ha":686,"x_min":113,"x_max":700,"o":"m 247 683 q 329 732 288 719 q 458 744 371 744 q 700 708 546 744 l 696 689 q 460 711 549 711 q 335 699 372 711 q 264 650 299 686 q 160 364 193 581 q 146 262 146 294 q 148 194 146 229 q 160 122 150 160 q 197 63 171 83 q 307 26 242 26 q 561 49 422 26 l 606 56 l 603 33 q 311 -7 461 -6 q 131 103 163 -7 q 113 233 113 164 q 128 379 113 301 q 247 683 164 610 m 201 -237 l 158 -237 l 160 -228 l 207 -221 q 275 -204 253 -214 q 318 -158 297 -194 q 349 -49 339 -121 l 372 -49 q 321 -197 356 -156 q 201 -237 286 -237 z "},"è":{"ha":746,"x_min":104,"x_max":736,"o":"m 319 1019 l 356 1019 l 494 835 l 475 835 l 319 1019 m 661 400 q 524 332 601 347 q 331 317 447 317 q 147 343 214 317 q 138 209 138 274 q 156 100 138 144 q 303 24 188 24 q 625 53 418 24 l 621 31 q 297 -10 474 -10 q 126 86 167 -10 q 104 213 104 136 q 119 376 104 290 q 145 507 133 461 q 182 605 157 553 q 242 686 207 657 q 467 751 322 751 q 679 703 611 751 q 735 579 735 663 q 661 400 735 465 m 251 350 q 278 348 251 350 q 355 346 306 346 q 466 356 404 346 q 574 385 528 365 q 656 444 621 404 q 700 569 700 494 q 649 681 700 643 q 482 718 597 718 q 308 686 388 718 q 217 600 264 669 q 190 536 204 581 q 150 363 163 449 q 179 358 161 361 q 251 350 197 354 z "},"é":{"ha":746,"x_min":104,"x_max":736,"o":"m 475 835 l 672 1019 l 708 1019 l 494 835 l 475 835 m 661 400 q 524 332 601 347 q 331 317 447 317 q 147 343 214 317 q 138 209 138 274 q 156 100 138 144 q 303 24 188 24 q 625 53 418 24 l 621 31 q 297 -10 474 -10 q 126 86 167 -10 q 104 213 104 136 q 119 376 104 290 q 145 507 133 461 q 182 605 157 553 q 242 686 207 657 q 467 751 322 751 q 679 703 611 751 q 735 579 735 663 q 661 400 735 465 m 251 350 q 278 348 251 350 q 355 346 306 346 q 466 356 404 346 q 574 385 528 365 q 656 444 621 404 q 700 569 700 494 q 649 681 700 643 q 482 718 597 718 q 308 686 388 718 q 217 600 264 669 q 190 536 204 581 q 150 363 163 449 q 179 358 161 361 q 251 350 197 354 z "},"ê":{"ha":746,"x_min":104,"x_max":736,"o":"m 296 835 l 508 1015 l 538 1015 l 674 835 l 650 835 l 519 994 l 321 835 l 296 835 m 661 400 q 524 332 601 347 q 331 317 447 317 q 147 343 214 317 q 138 209 138 274 q 156 100 138 144 q 303 24 188 24 q 625 53 418 24 l 621 31 q 297 -10 474 -10 q 126 86 167 -10 q 104 213 104 136 q 119 376 104 290 q 145 507 133 461 q 182 605 157 553 q 242 686 207 657 q 467 751 322 751 q 679 703 611 751 q 735 579 735 663 q 661 400 735 465 m 251 350 q 278 348 251 350 q 355 346 306 346 q 466 356 404 346 q 574 385 528 365 q 656 444 621 404 q 700 569 700 494 q 649 681 700 643 q 482 718 597 718 q 308 686 388 718 q 217 600 264 669 q 190 536 204 581 q 150 363 163 449 q 179 358 161 361 q 251 350 197 354 z "},"ë":{"ha":746,"x_min":104,"x_max":736,"o":"m 317 883 q 332 876 326 883 q 336 860 338 869 q 308 835 331 835 q 291 842 297 835 q 288 860 285 850 q 317 883 292 883 m 671 883 q 686 876 681 883 q 690 860 692 869 q 663 835 685 835 q 645 842 651 835 q 642 860 639 850 q 671 883 646 883 m 661 400 q 524 332 601 347 q 331 317 447 317 q 147 343 214 317 q 138 209 138 274 q 156 100 138 144 q 303 24 188 24 q 625 53 418 24 l 621 31 q 297 -10 474 -10 q 126 86 167 -10 q 104 213 104 136 q 119 376 104 290 q 145 507 133 461 q 182 605 157 553 q 242 686 207 657 q 467 751 322 751 q 679 703 611 751 q 735 579 735 663 q 661 400 735 465 m 251 350 q 278 348 251 350 q 355 346 306 346 q 466 356 404 346 q 574 385 528 365 q 656 444 621 404 q 700 569 700 494 q 649 681 700 643 q 482 718 597 718 q 308 686 388 718 q 217 600 264 669 q 190 536 204 581 q 150 363 163 449 q 179 358 161 361 q 251 350 197 354 z "},"ì":{"ha":229,"x_min":7,"x_max":233,"o":"m 7 1013 l 43 1013 l 182 828 l 163 828 l 7 1013 m 83 0 l 200 738 l 233 738 l 117 0 l 83 0 z "},"í":{"ha":229,"x_min":83,"x_max":397,"o":"m 163 828 l 360 1013 l 396 1013 l 182 828 l 163 828 m 83 0 l 200 738 l 233 738 l 117 0 l 83 0 z "},"î":{"ha":229,"x_min":-17,"x_max":363,"o":"m -17 828 l 196 1008 l 225 1008 l 361 828 l 338 828 l 207 988 l 8 828 l -17 828 m 83 0 l 200 738 l 233 738 l 117 0 l 83 0 z "},"ï":{"ha":229,"x_min":-26,"x_max":379,"o":"m 4 876 q 21 869 15 876 q 24 853 26 863 q -4 828 19 828 q -19 834 -14 828 q -25 847 -25 840 q 4 876 -25 876 m 329 853 q 357 876 335 876 q 379 858 379 876 q 350 828 379 828 q 334 835 340 828 q 329 853 328 843 m 83 0 l 200 738 l 233 738 l 117 0 l 83 0 z "},"ð":{"ha":760,"x_min":97,"x_max":817,"o":"m 417 738 l 514 738 q 639 706 593 738 q 694 646 685 675 q 601 950 688 847 l 363 861 l 360 881 l 586 965 q 338 1058 493 1057 l 342 1088 q 621 978 519 1086 l 811 1049 l 817 1029 l 635 963 q 728 613 728 843 q 706 358 728 499 q 596 81 674 163 q 397 0 518 0 l 300 0 q 122 90 163 0 q 99 217 99 142 q 111 375 99 292 q 210 649 140 560 q 417 738 281 738 m 144 367 q 132 197 132 263 q 158 97 132 132 q 217 49 183 61 q 306 36 251 36 l 403 36 q 593 133 531 36 q 685 522 685 278 q 644 650 685 594 q 510 704 607 704 l 413 704 q 242 633 308 704 q 144 367 175 563 z "},"ñ":{"ha":750,"x_min":83,"x_max":746,"o":"m 426 957 q 482 931 451 957 q 542 881 513 906 q 585 856 571 856 q 608 857 599 856 q 626 862 617 858 q 643 869 635 865 q 662 878 651 872 q 678 888 672 883 q 695 899 685 892 q 710 909 706 906 q 725 920 715 913 q 738 929 735 928 l 744 919 q 690 875 710 889 q 585 833 636 833 q 501 884 549 833 q 425 935 453 935 q 294 878 379 935 q 274 865 281 869 l 268 876 q 426 957 374 957 m 219 738 l 219 651 q 536 750 388 750 q 692 681 642 750 q 731 558 731 628 q 726 514 731 536 l 644 0 l 611 0 l 693 514 q 696 554 696 535 q 664 658 696 614 q 533 717 621 717 q 376 697 444 717 q 217 632 307 678 l 117 0 l 83 0 l 200 738 l 219 738 z "},"ò":{"ha":778,"x_min":114,"x_max":749,"o":"m 340 1013 l 376 1013 l 515 828 l 496 828 l 340 1013 m 126 368 q 241 667 161 589 q 493 744 321 744 q 717 650 665 744 q 747 510 747 592 q 735 349 747 429 q 625 69 703 146 q 371 -7 547 -7 q 144 78 194 -7 q 114 208 114 129 q 126 368 114 288 m 281 656 q 258 639 281 656 q 208 549 236 622 q 163 376 179 476 q 147 225 147 276 q 158 140 147 174 q 185 83 168 106 q 233 47 203 60 q 369 26 286 26 q 499 39 451 26 q 589 86 547 51 q 701 358 668 153 q 715 460 715 425 q 711 534 715 494 q 694 613 707 574 q 647 674 681 651 q 502 711 590 711 q 369 701 414 711 q 281 656 325 690 z "},"ó":{"ha":778,"x_min":114,"x_max":749,"o":"m 496 828 l 693 1013 l 729 1013 l 515 828 l 496 828 m 126 368 q 241 667 161 589 q 493 744 321 744 q 717 650 665 744 q 747 510 747 592 q 735 349 747 429 q 625 69 703 146 q 371 -7 547 -7 q 144 78 194 -7 q 114 208 114 129 q 126 368 114 288 m 281 656 q 258 639 281 656 q 208 549 236 622 q 163 376 179 476 q 147 225 147 276 q 158 140 147 174 q 185 83 168 106 q 233 47 203 60 q 369 26 286 26 q 499 39 451 26 q 589 86 547 51 q 701 358 668 153 q 715 460 715 425 q 711 534 715 494 q 694 613 707 574 q 647 674 681 651 q 502 711 590 711 q 369 701 414 711 q 281 656 325 690 z "},"ô":{"ha":778,"x_min":114,"x_max":749,"o":"m 317 828 l 529 1008 l 558 1008 l 694 828 l 671 828 l 540 988 l 342 828 l 317 828 m 126 368 q 241 667 161 589 q 493 744 321 744 q 717 650 665 744 q 747 510 747 592 q 735 349 747 429 q 625 69 703 146 q 371 -7 547 -7 q 144 78 194 -7 q 114 208 114 129 q 126 368 114 288 m 281 656 q 258 639 281 656 q 208 549 236 622 q 163 376 179 476 q 147 225 147 276 q 158 140 147 174 q 185 83 168 106 q 233 47 203 60 q 369 26 286 26 q 499 39 451 26 q 589 86 547 51 q 701 358 668 153 q 715 460 715 425 q 711 534 715 494 q 694 613 707 574 q 647 674 681 651 q 502 711 590 711 q 369 701 414 711 q 281 656 325 690 z "},"õ":{"ha":778,"x_min":114,"x_max":754,"o":"m 436 951 q 491 926 460 951 q 551 875 522 900 q 594 850 579 850 q 619 852 608 850 q 638 857 629 854 q 660 866 647 860 q 679 876 672 872 q 699 889 686 881 q 715 901 711 897 q 732 913 719 904 q 747 924 744 922 l 754 914 q 644 837 672 846 q 592 828 615 828 q 539 853 569 828 q 481 903 508 878 q 438 929 453 929 q 413 928 424 929 q 390 922 401 926 q 371 913 379 917 q 349 901 363 910 q 328 890 335 893 q 306 875 322 886 q 283 860 289 864 l 278 871 q 436 951 382 951 m 126 368 q 241 667 161 589 q 493 744 321 744 q 717 650 665 744 q 747 510 747 592 q 735 349 747 429 q 625 69 703 146 q 371 -7 547 -7 q 144 78 194 -7 q 114 208 114 129 q 126 368 114 288 m 281 656 q 258 639 281 656 q 208 549 236 622 q 163 376 179 476 q 147 225 147 276 q 158 140 147 174 q 185 83 168 106 q 233 47 203 60 q 369 26 286 26 q 499 39 451 26 q 589 86 547 51 q 701 358 668 153 q 715 460 715 425 q 711 534 715 494 q 694 613 707 574 q 647 674 681 651 q 502 711 590 711 q 369 701 414 711 q 281 656 325 690 z "},"ö":{"ha":778,"x_min":114,"x_max":749,"o":"m 338 876 q 353 869 347 876 q 357 853 358 863 q 329 828 351 828 q 312 835 318 828 q 308 853 306 843 q 338 876 313 876 m 692 876 q 707 869 701 876 q 711 853 713 863 q 683 828 706 828 q 666 835 672 828 q 663 853 660 843 q 692 876 667 876 m 126 368 q 241 667 161 589 q 493 744 321 744 q 717 650 665 744 q 747 510 747 592 q 735 349 747 429 q 625 69 703 146 q 371 -7 547 -7 q 144 78 194 -7 q 114 208 114 129 q 126 368 114 288 m 281 656 q 258 639 281 656 q 208 549 236 622 q 163 376 179 476 q 147 225 147 276 q 158 140 147 174 q 185 83 168 106 q 233 47 203 60 q 369 26 286 26 q 499 39 451 26 q 589 86 547 51 q 701 358 668 153 q 715 460 715 425 q 711 534 715 494 q 694 613 707 574 q 647 674 681 651 q 502 711 590 711 q 369 701 414 711 q 281 656 325 690 z "},"÷":{"ha":772,"x_min":139,"x_max":722,"o":"m 139 474 l 144 507 l 722 507 l 717 474 l 139 474 m 397 296 l 414 296 q 426 279 429 296 l 418 221 q 399 204 417 204 l 383 204 q 369 221 367 204 l 378 279 q 397 296 381 296 m 471 763 l 488 763 q 500 746 503 763 l 492 686 q 472 671 490 671 l 457 671 q 443 686 440 671 l 451 746 q 471 763 453 763 z "},"ø":{"ha":750,"x_min":71,"x_max":760,"o":"m 133 69 q 100 202 100 118 q 114 374 100 286 q 228 669 149 593 q 465 744 307 744 q 683 681 624 744 l 735 738 l 760 738 l 694 665 q 735 494 735 608 q 722 347 735 431 q 615 69 690 144 q 372 -6 540 -6 q 146 56 204 -7 l 96 0 l 71 0 l 133 69 m 474 711 q 358 701 403 711 q 269 656 314 690 q 195 548 224 621 q 151 377 167 475 q 135 210 135 279 q 158 99 135 140 l 661 654 q 474 711 614 711 m 169 82 q 365 26 214 26 q 485 38 438 26 q 575 85 533 50 q 689 358 656 150 q 701 515 701 439 q 672 639 701 592 l 169 82 z "},"ù":{"ha":749,"x_min":100,"x_max":747,"o":"m 315 1013 l 351 1013 l 490 828 l 471 828 l 315 1013 m 135 185 q 167 81 135 125 q 298 22 210 22 q 455 42 386 22 q 614 107 524 61 l 714 739 l 747 739 l 631 1 l 611 1 l 611 88 q 296 -11 443 -11 q 139 58 190 -11 q 100 182 100 111 q 104 225 100 203 l 186 739 l 219 739 l 138 225 q 135 185 135 204 z "},"ú":{"ha":749,"x_min":100,"x_max":747,"o":"m 471 828 l 668 1013 l 704 1013 l 490 828 l 471 828 m 135 185 q 167 81 135 125 q 298 22 210 22 q 455 42 386 22 q 614 107 524 61 l 714 739 l 747 739 l 631 1 l 611 1 l 611 88 q 296 -11 443 -11 q 139 58 190 -11 q 100 182 100 111 q 104 225 100 203 l 186 739 l 219 739 l 138 225 q 135 185 135 204 z "},"û":{"ha":749,"x_min":100,"x_max":747,"o":"m 292 828 l 504 1008 l 533 1008 l 669 828 l 646 828 l 515 988 l 317 828 l 292 828 m 135 185 q 167 81 135 125 q 298 22 210 22 q 455 42 386 22 q 614 107 524 61 l 714 739 l 747 739 l 631 1 l 611 1 l 611 88 q 296 -11 443 -11 q 139 58 190 -11 q 100 182 100 111 q 104 225 100 203 l 186 739 l 219 739 l 138 225 q 135 185 135 204 z "},"ü":{"ha":749,"x_min":100,"x_max":747,"o":"m 313 876 q 329 869 324 876 q 332 853 335 863 q 304 828 328 828 q 288 835 294 828 q 283 853 282 843 q 313 876 289 876 m 667 876 q 683 869 678 876 q 686 853 689 863 q 658 828 682 828 q 642 835 649 828 q 638 853 636 843 q 667 876 643 876 m 135 185 q 167 81 135 125 q 298 22 210 22 q 455 42 386 22 q 614 107 524 61 l 714 739 l 747 739 l 631 1 l 611 1 l 611 88 q 296 -11 443 -11 q 139 58 190 -11 q 100 182 100 111 q 104 225 100 203 l 186 739 l 219 739 l 138 225 q 135 185 135 204 z "},"ý":{"ha":744,"x_min":131,"x_max":758,"o":"m 438 821 l 635 1006 l 671 1006 l 457 821 l 438 821 m 757 725 q 726 619 757 685 l 431 1 q 217 -333 322 -237 q 135 -374 172 -374 l 135 -354 q 199 -318 163 -354 q 269 -231 236 -282 q 375 -36 333 -128 l 393 0 q 246 153 275 11 l 131 738 l 164 738 l 278 161 q 410 35 303 35 l 694 631 q 733 747 726 701 l 754 747 q 757 725 757 738 z "},"þ":{"ha":738,"x_min":38,"x_max":742,"o":"m 547 750 q 742 472 742 750 q 730 347 742 417 q 699 219 718 278 q 647 103 681 160 q 426 -14 581 -14 q 282 1 371 -14 q 136 40 193 15 l 71 -375 l 38 -375 l 269 1086 l 303 1086 l 233 654 q 377 715 271 679 q 547 750 483 750 m 432 19 q 606 104 543 19 q 697 374 668 189 q 708 511 708 442 q 682 632 708 581 q 542 717 639 717 q 360 681 464 717 q 317 666 328 669 q 270 649 306 663 q 231 635 235 636 l 140 60 q 432 19 276 19 z "},"ÿ":{"ha":744,"x_min":131,"x_max":758,"o":"m 257 892 q 285 915 261 915 q 306 892 310 915 q 278 867 300 867 q 261 874 267 867 q 257 892 256 882 m 611 892 q 640 915 615 915 q 660 892 664 915 q 632 867 654 867 q 615 874 621 867 q 611 892 610 882 m 757 725 q 726 619 757 685 l 431 1 q 217 -333 322 -237 q 135 -374 172 -374 l 135 -354 q 199 -318 163 -354 q 269 -231 236 -282 q 375 -36 333 -128 l 393 0 q 246 153 275 11 l 131 738 l 164 738 l 278 161 q 410 35 303 35 l 694 631 q 733 747 726 701 l 754 747 q 757 725 757 738 z "},"Ā":{"ha":893,"x_min":63,"x_max":854,"o":"m 468 1107 l 471 1128 l 821 1128 l 818 1107 l 468 1107 m 63 0 l 604 1017 l 651 1017 l 854 0 l 821 0 l 750 351 l 288 351 l 101 0 l 63 0 m 306 385 l 743 385 l 624 985 l 306 385 z "},"ā":{"ha":757,"x_min":108,"x_max":744,"o":"m 315 838 l 318 858 l 668 858 l 665 838 l 315 838 m 291 708 q 311 720 291 708 q 360 739 331 732 q 421 750 389 746 q 494 754 453 754 q 614 734 535 754 q 744 665 693 714 l 647 0 l 628 0 l 629 83 q 499 23 586 56 q 351 -10 413 -10 q 253 1 290 -10 q 181 37 215 11 q 131 107 146 63 q 110 239 110 168 q 126 394 110 310 q 168 546 142 479 q 223 649 194 613 q 291 708 251 685 m 143 243 q 331 22 143 22 q 419 31 383 22 q 467 41 454 39 q 512 56 481 43 q 549 70 543 68 q 591 88 554 72 q 629 104 628 104 l 710 661 q 493 722 611 722 q 244 619 322 722 q 151 342 182 539 q 143 243 143 288 z "},"Ă":{"ha":893,"x_min":63,"x_max":854,"o":"m 525 1242 q 556 1162 525 1197 q 640 1126 586 1126 q 751 1167 704 1126 q 808 1265 799 1206 l 828 1265 q 760 1149 815 1192 q 643 1107 706 1107 q 543 1146 581 1107 q 506 1238 506 1185 q 508 1265 506 1250 l 528 1265 q 525 1242 525 1253 m 63 0 l 604 1017 l 651 1017 l 854 0 l 821 0 l 750 351 l 288 351 l 101 0 l 63 0 m 306 385 l 743 385 l 624 985 l 306 385 z "},"ă":{"ha":757,"x_min":108,"x_max":744,"o":"m 372 972 q 403 892 372 928 q 488 857 433 857 q 599 897 551 857 q 654 996 646 936 l 674 996 q 608 880 663 922 q 490 838 553 838 q 390 876 428 838 q 353 968 353 915 q 354 996 353 981 l 374 996 q 372 972 372 983 m 291 708 q 311 720 291 708 q 360 739 331 732 q 421 750 389 746 q 494 754 453 754 q 614 734 535 754 q 744 665 693 714 l 647 0 l 628 0 l 629 83 q 499 23 586 56 q 351 -10 413 -10 q 253 1 290 -10 q 181 37 215 11 q 131 107 146 63 q 110 239 110 168 q 126 394 110 310 q 168 546 142 479 q 223 649 194 613 q 291 708 251 685 m 143 243 q 331 22 143 22 q 419 31 383 22 q 467 41 454 39 q 512 56 481 43 q 549 70 543 68 q 591 88 554 72 q 629 104 628 104 l 710 661 q 493 722 611 722 q 244 619 322 722 q 151 342 182 539 q 143 243 143 288 z "},"Ą":{"ha":1281,"x_min":204,"x_max":997,"o":"m 836 -153 q 974 0 836 -57 l 990 0 q 878 -87 911 -31 q 863 -142 863 -117 q 878 -189 863 -167 q 992 -232 908 -232 q 997 -232 994 -232 l 994 -251 q 963 -254 978 -254 q 870 -222 904 -254 q 836 -153 836 -190 m 204 0 l 746 1017 l 793 1017 l 996 0 l 963 0 l 892 351 l 429 351 l 243 0 l 204 0 m 447 385 l 885 385 l 765 985 l 447 385 z "},"ą":{"ha":757,"x_min":108,"x_max":744,"o":"m 493 -153 q 631 0 493 -57 l 647 0 q 568 -49 600 -18 q 522 -142 522 -90 q 568 -215 522 -192 q 647 -232 600 -232 q 654 -232 651 -232 l 651 -251 q 621 -253 635 -253 q 527 -222 561 -253 q 493 -153 493 -190 m 291 708 q 311 720 291 708 q 360 739 331 732 q 421 750 389 746 q 494 754 453 754 q 614 734 535 754 q 744 665 693 714 l 647 0 l 628 0 l 629 83 q 499 23 586 56 q 351 -10 413 -10 q 253 1 290 -10 q 181 37 215 11 q 131 107 146 63 q 110 239 110 168 q 126 394 110 310 q 168 546 142 479 q 223 649 194 613 q 291 708 251 685 m 143 243 q 331 22 143 22 q 419 31 383 22 q 467 41 454 39 q 512 56 481 43 q 549 70 543 68 q 591 88 554 72 q 629 104 628 104 l 710 661 q 493 722 611 722 q 244 619 322 722 q 151 342 182 539 q 143 243 143 288 z "},"Ć":{"ha":783,"x_min":146,"x_max":874,"o":"m 583 1111 l 781 1296 l 817 1296 l 603 1111 l 583 1111 m 283 893 q 307 928 283 893 q 403 995 331 963 q 587 1028 475 1028 q 874 994 699 1028 l 871 975 q 834 979 851 978 q 794 983 817 981 q 745 987 772 985 q 690 990 718 989 q 576 994 607 994 q 399 956 468 994 q 196 508 254 872 q 181 335 181 411 q 425 25 181 25 q 681 38 556 25 l 722 42 l 719 22 q 418 -8 550 -8 q 146 333 146 -8 q 165 535 146 418 q 210 738 183 651 q 283 893 236 824 z "},"ć":{"ha":682,"x_min":110,"x_max":707,"o":"m 474 828 l 671 1013 l 707 1013 l 493 828 l 474 828 m 244 683 q 326 732 285 719 q 456 744 368 744 q 697 708 543 744 l 693 689 q 458 711 546 711 q 333 699 369 711 q 261 650 296 686 q 157 364 190 581 q 143 262 143 294 q 145 194 143 229 q 158 122 147 160 q 194 63 168 83 q 304 26 239 26 q 558 49 419 26 l 603 56 l 600 33 q 308 -7 458 -6 q 128 103 160 -7 q 110 233 110 164 q 125 379 110 301 q 244 683 161 610 z "},"Ĉ":{"ha":783,"x_min":146,"x_max":874,"o":"m 404 1111 l 617 1292 l 646 1292 l 782 1111 l 758 1111 l 628 1271 l 429 1111 l 404 1111 m 283 893 q 307 928 283 893 q 403 995 331 963 q 587 1028 475 1028 q 874 994 699 1028 l 871 975 q 834 979 851 978 q 794 983 817 981 q 745 987 772 985 q 690 990 718 989 q 576 994 607 994 q 399 956 468 994 q 196 508 254 872 q 181 335 181 411 q 425 25 181 25 q 681 38 556 25 l 722 42 l 719 22 q 418 -8 550 -8 q 146 333 146 -8 q 165 535 146 418 q 210 738 183 651 q 283 893 236 824 z "},"ĉ":{"ha":682,"x_min":110,"x_max":697,"o":"m 253 828 l 465 1008 l 494 1008 l 631 828 l 607 828 l 476 988 l 278 828 l 253 828 m 244 683 q 326 732 285 719 q 456 744 368 744 q 697 708 543 744 l 693 689 q 458 711 546 711 q 333 699 369 711 q 261 650 296 686 q 157 364 190 581 q 143 262 143 294 q 145 194 143 229 q 158 122 147 160 q 194 63 168 83 q 304 26 239 26 q 558 49 419 26 l 603 56 l 600 33 q 308 -7 458 -6 q 128 103 160 -7 q 110 233 110 164 q 125 379 110 301 q 244 683 161 610 z "},"Ċ":{"ha":783,"x_min":146,"x_max":874,"o":"m 590 1231 l 606 1231 q 619 1214 622 1231 l 606 1128 q 586 1111 603 1111 l 571 1111 q 557 1128 554 1111 l 571 1214 q 590 1231 574 1231 m 283 893 q 307 928 283 893 q 403 995 331 963 q 587 1028 475 1028 q 874 994 699 1028 l 871 975 q 834 979 851 978 q 794 983 817 981 q 745 987 772 985 q 690 990 718 989 q 576 994 607 994 q 399 956 468 994 q 196 508 254 872 q 181 335 181 411 q 425 25 181 25 q 681 38 556 25 l 722 42 l 719 22 q 418 -8 550 -8 q 146 333 146 -8 q 165 535 146 418 q 210 738 183 651 q 283 893 236 824 z "},"ċ":{"ha":682,"x_min":110,"x_max":697,"o":"m 408 921 l 424 921 q 438 904 440 921 l 424 818 q 404 801 421 801 l 389 801 q 375 818 372 801 l 389 904 q 408 921 392 921 m 244 683 q 326 732 285 719 q 456 744 368 744 q 697 708 543 744 l 693 689 q 458 711 546 711 q 333 699 369 711 q 261 650 296 686 q 157 364 190 581 q 143 262 143 294 q 145 194 143 229 q 158 122 147 160 q 194 63 168 83 q 304 26 239 26 q 558 49 419 26 l 603 56 l 600 33 q 308 -7 458 -6 q 128 103 160 -7 q 110 233 110 164 q 125 379 110 301 q 244 683 161 610 z "},"Č":{"ha":783,"x_min":146,"x_max":874,"o":"m 432 1292 l 456 1292 l 586 1132 l 785 1292 l 810 1292 l 597 1111 l 568 1111 l 432 1292 m 283 893 q 307 928 283 893 q 403 995 331 963 q 587 1028 475 1028 q 874 994 699 1028 l 871 975 q 834 979 851 978 q 794 983 817 981 q 745 987 772 985 q 690 990 718 989 q 576 994 607 994 q 399 956 468 994 q 196 508 254 872 q 181 335 181 411 q 425 25 181 25 q 681 38 556 25 l 722 42 l 719 22 q 418 -8 550 -8 q 146 333 146 -8 q 165 535 146 418 q 210 738 183 651 q 283 893 236 824 z "},"č":{"ha":682,"x_min":110,"x_max":729,"o":"m 350 1008 l 374 1008 l 504 849 l 703 1008 l 728 1008 l 515 828 l 486 828 l 350 1008 m 244 683 q 326 732 285 719 q 456 744 368 744 q 697 708 543 744 l 693 689 q 458 711 546 711 q 333 699 369 711 q 261 650 296 686 q 157 364 190 581 q 143 262 143 294 q 145 194 143 229 q 158 122 147 160 q 194 63 168 83 q 304 26 239 26 q 558 49 419 26 l 603 56 l 600 33 q 308 -7 458 -6 q 128 103 160 -7 q 110 233 110 164 q 125 379 110 301 q 244 683 161 610 z "},"Ď":{"ha":914,"x_min":111,"x_max":919,"o":"m 454 1288 l 478 1288 l 608 1128 l 807 1288 l 832 1288 l 619 1107 l 590 1107 l 454 1288 m 622 1017 q 775 981 713 1017 q 868 892 838 946 q 919 663 919 803 q 901 490 919 592 q 849 303 882 388 q 765 148 815 218 q 639 39 714 78 q 471 0 564 0 l 111 0 l 272 1017 l 622 1017 m 471 33 q 634 77 561 33 q 753 194 707 121 q 869 506 842 335 q 885 669 885 597 q 843 865 885 792 q 615 983 776 983 l 300 983 l 150 33 l 471 33 z "},"ď":{"ha":751,"x_min":113,"x_max":921,"o":"m 440 749 q 569 733 492 749 q 706 693 647 718 l 768 1090 l 799 1090 l 626 0 l 608 0 l 607 82 q 480 23 572 54 q 318 -8 388 -8 q 201 28 249 -8 q 136 119 154 64 q 114 263 114 196 q 124 376 114 329 q 440 749 183 749 m 147 253 q 181 107 147 160 q 331 25 232 25 q 610 101 449 25 l 701 674 q 439 715 549 715 q 203 542 275 715 q 160 386 174 469 q 147 253 147 303 m 851 807 l 871 993 l 886 1086 l 921 1086 l 906 993 l 868 807 l 851 807 z "},"Đ":{"ha":953,"x_min":101,"x_max":921,"o":"m 622 1017 q 775 981 713 1017 q 868 892 838 946 q 919 658 919 803 q 901 487 919 586 q 850 302 883 388 q 765 147 817 217 q 471 0 657 0 l 111 0 l 192 508 l 101 508 l 104 528 l 194 528 l 272 1017 l 622 1017 m 471 33 q 634 77 561 33 q 753 194 707 121 q 869 506 842 335 q 885 669 885 597 q 843 865 885 792 q 615 983 776 983 l 300 983 l 228 528 l 449 528 l 446 508 l 225 508 l 150 33 l 471 33 z "},"đ":{"ha":724,"x_min":114,"x_max":888,"o":"m 443 749 q 572 733 494 749 q 707 693 649 718 l 739 890 l 556 890 l 558 910 l 742 910 l 771 1090 l 801 1090 l 772 910 l 888 910 l 885 890 l 769 890 l 628 0 l 610 0 l 610 82 q 482 23 575 54 q 319 -8 389 -8 q 203 28 250 -8 q 139 122 156 65 q 115 264 115 197 q 125 378 115 331 q 443 749 185 749 m 158 365 q 149 234 149 304 q 181 110 149 164 q 328 25 232 25 q 613 101 451 25 l 703 674 q 438 715 550 715 q 158 365 213 715 z "},"Ē":{"ha":779,"x_min":131,"x_max":856,"o":"m 419 1107 l 422 1128 l 772 1128 l 769 1107 l 419 1107 m 435 1017 q 444 1017 440 1017 l 856 1003 l 853 983 l 440 983 q 275 836 299 983 l 225 521 l 722 514 l 719 494 l 219 488 l 169 171 q 165 129 165 147 q 198 53 165 78 q 303 29 231 29 l 701 29 l 699 10 l 297 -4 q 286 -4 292 -4 q 132 126 132 -4 q 136 178 132 150 l 242 843 q 311 977 257 938 q 435 1017 365 1017 z "},"ē":{"ha":746,"x_min":104,"x_max":736,"o":"m 310 835 l 313 856 l 663 856 l 660 835 l 310 835 m 661 400 q 524 332 601 347 q 331 317 447 317 q 147 343 214 317 q 138 209 138 274 q 156 100 138 144 q 303 24 188 24 q 625 53 418 24 l 621 31 q 297 -10 474 -10 q 126 86 167 -10 q 104 213 104 136 q 119 376 104 290 q 145 507 133 461 q 182 605 157 553 q 242 686 207 657 q 467 751 322 751 q 679 703 611 751 q 735 579 735 663 q 661 400 735 465 m 251 350 q 278 348 251 350 q 355 346 306 346 q 466 356 404 346 q 574 385 528 365 q 656 444 621 404 q 700 569 700 494 q 649 681 700 643 q 482 718 597 718 q 308 686 388 718 q 217 600 264 669 q 190 536 204 581 q 150 363 163 449 q 179 358 161 361 q 251 350 197 354 z "},"Ė":{"ha":779,"x_min":131,"x_max":856,"o":"m 592 1226 l 607 1226 q 621 1210 624 1226 l 607 1124 q 588 1107 604 1107 l 572 1107 q 558 1124 556 1107 l 572 1210 q 592 1226 575 1226 m 435 1017 q 444 1017 440 1017 l 856 1003 l 853 983 l 440 983 q 275 836 299 983 l 225 521 l 722 514 l 719 494 l 219 488 l 169 171 q 165 129 165 147 q 198 53 165 78 q 303 29 231 29 l 701 29 l 699 10 l 297 -4 q 286 -4 292 -4 q 132 126 132 -4 q 136 178 132 150 l 242 843 q 311 977 257 938 q 435 1017 365 1017 z "},"ė":{"ha":746,"x_min":104,"x_max":736,"o":"m 496 954 l 511 954 q 525 938 528 954 l 511 851 q 492 835 508 835 l 476 835 q 463 851 460 835 l 476 938 q 496 954 479 954 m 661 400 q 524 332 601 347 q 331 317 447 317 q 147 343 214 317 q 138 209 138 274 q 156 100 138 144 q 303 24 188 24 q 625 53 418 24 l 621 31 q 297 -10 474 -10 q 126 86 167 -10 q 104 213 104 136 q 119 376 104 290 q 145 507 133 461 q 182 605 157 553 q 242 686 207 657 q 467 751 322 751 q 679 703 611 751 q 735 579 735 663 q 661 400 735 465 m 251 350 q 278 348 251 350 q 355 346 306 346 q 466 356 404 346 q 574 385 528 365 q 656 444 621 404 q 700 569 700 494 q 649 681 700 643 q 482 718 597 718 q 308 686 388 718 q 217 600 264 669 q 190 536 204 581 q 150 363 163 449 q 179 358 161 361 q 251 350 197 354 z "},"Ę":{"ha":779,"x_min":131,"x_max":856,"o":"m 543 -143 q 681 10 543 -47 l 697 10 q 618 -39 650 -8 q 572 -132 572 -82 q 618 -206 572 -182 q 699 -222 650 -222 q 704 -222 701 -222 l 701 -242 q 671 -244 686 -244 q 578 -212 613 -244 q 543 -143 543 -181 m 435 1017 q 444 1017 440 1017 l 856 1003 l 853 983 l 440 983 q 275 836 299 983 l 225 521 l 722 514 l 719 494 l 219 488 l 169 171 q 165 129 165 147 q 198 53 165 78 q 303 29 231 29 l 701 29 l 699 10 l 297 -4 q 286 -4 292 -4 q 132 126 132 -4 q 136 178 132 150 l 242 843 q 311 977 257 938 q 435 1017 365 1017 z "},"ę":{"ha":746,"x_min":104,"x_max":736,"o":"m 465 -122 q 603 31 465 -26 l 619 31 q 540 -18 572 13 q 494 -111 494 -60 q 540 -185 494 -161 q 621 -201 572 -201 q 626 -201 624 -201 l 624 -221 q 593 -222 608 -222 q 500 -191 535 -222 q 465 -122 465 -160 m 661 400 q 524 332 601 347 q 331 317 447 317 q 147 343 214 317 q 138 209 138 274 q 156 100 138 144 q 303 24 188 24 q 625 53 418 24 l 621 31 q 297 -10 474 -10 q 126 86 167 -10 q 104 213 104 136 q 119 376 104 290 q 145 507 133 461 q 182 605 157 553 q 242 686 207 657 q 467 751 322 751 q 679 703 611 751 q 735 579 735 663 q 661 400 735 465 m 251 350 q 278 348 251 350 q 355 346 306 346 q 466 356 404 346 q 574 385 528 365 q 656 444 621 404 q 700 569 700 494 q 649 681 700 643 q 482 718 597 718 q 308 686 388 718 q 217 600 264 669 q 190 536 204 581 q 150 363 163 449 q 179 358 161 361 q 251 350 197 354 z "},"Ě":{"ha":779,"x_min":131,"x_max":856,"o":"m 435 1288 l 458 1288 l 589 1128 l 788 1288 l 813 1288 l 600 1107 l 571 1107 l 435 1288 m 435 1017 q 444 1017 440 1017 l 856 1003 l 853 983 l 440 983 q 275 836 299 983 l 225 521 l 722 514 l 719 494 l 219 488 l 169 171 q 165 129 165 147 q 198 53 165 78 q 303 29 231 29 l 701 29 l 699 10 l 297 -4 q 286 -4 292 -4 q 132 126 132 -4 q 136 178 132 150 l 242 843 q 311 977 257 938 q 435 1017 365 1017 z "},"ě":{"ha":746,"x_min":104,"x_max":736,"o":"m 324 1015 l 347 1015 l 478 856 l 676 1015 l 701 1015 l 489 835 l 460 835 l 324 1015 m 661 400 q 524 332 601 347 q 331 317 447 317 q 147 343 214 317 q 138 209 138 274 q 156 100 138 144 q 303 24 188 24 q 625 53 418 24 l 621 31 q 297 -10 474 -10 q 126 86 167 -10 q 104 213 104 136 q 119 376 104 290 q 145 507 133 461 q 182 605 157 553 q 242 686 207 657 q 467 751 322 751 q 679 703 611 751 q 735 579 735 663 q 661 400 735 465 m 251 350 q 278 348 251 350 q 355 346 306 346 q 466 356 404 346 q 574 385 528 365 q 656 444 621 404 q 700 569 700 494 q 649 681 700 643 q 482 718 597 718 q 308 686 388 718 q 217 600 264 669 q 190 536 204 581 q 150 363 163 449 q 179 358 161 361 q 251 350 197 354 z "},"Ĝ":{"ha":889,"x_min":149,"x_max":899,"o":"m 383 1111 l 596 1292 l 625 1292 l 761 1111 l 738 1111 l 607 1271 l 408 1111 l 383 1111 m 317 932 q 336 953 317 932 q 417 1001 356 974 q 545 1028 478 1028 q 720 1016 613 1028 q 899 990 828 1004 l 894 964 l 836 972 q 553 994 658 994 q 319 878 392 994 q 207 511 246 761 q 183 285 183 376 q 203 139 183 194 q 407 26 246 26 q 686 78 503 26 l 747 96 l 811 506 l 514 506 l 518 525 q 688 540 576 540 q 850 536 800 540 l 765 0 l 746 0 l 746 75 q 590 22 697 51 q 408 -7 483 -7 q 282 10 332 -7 q 204 66 232 28 q 163 148 176 104 q 149 258 149 192 q 169 490 149 360 q 204 685 189 619 q 249 820 219 750 q 317 932 278 890 z "},"ĝ":{"ha":739,"x_min":51,"x_max":758,"o":"m 307 829 l 519 1010 l 549 1010 l 685 829 l 661 829 l 531 989 l 332 829 l 307 829 m 321 -14 q 114 210 114 -14 q 126 382 114 286 q 440 746 185 746 q 758 728 550 746 l 621 -144 q 531 -322 601 -265 q 386 -379 460 -379 q 363 -378 375 -379 l 51 -344 l 54 -325 l 368 -346 q 381 -346 375 -346 q 506 -297 442 -346 q 588 -144 571 -247 l 617 40 q 463 1 551 15 q 321 -14 375 -14 m 160 376 q 147 224 147 294 q 168 106 147 153 q 325 19 206 19 q 476 34 414 19 q 621 68 539 49 l 724 706 l 447 713 q 440 713 443 713 q 257 625 328 713 q 160 376 186 538 z "},"Ğ":{"ha":889,"x_min":149,"x_max":899,"o":"m 454 1246 q 485 1166 454 1201 q 571 1131 515 1131 q 681 1170 633 1131 q 738 1269 728 1210 l 757 1269 q 690 1153 744 1196 q 572 1111 635 1111 q 472 1150 510 1111 q 435 1242 435 1189 q 438 1269 435 1254 l 457 1269 q 454 1246 454 1257 m 317 932 q 336 953 317 932 q 417 1001 356 974 q 545 1028 478 1028 q 720 1016 613 1028 q 899 990 828 1004 l 894 964 l 836 972 q 553 994 658 994 q 319 878 392 994 q 207 511 246 761 q 183 285 183 376 q 203 139 183 194 q 407 26 246 26 q 686 78 503 26 l 747 96 l 811 506 l 514 506 l 518 525 q 688 540 576 540 q 850 536 800 540 l 765 0 l 746 0 l 746 75 q 590 22 697 51 q 408 -7 483 -7 q 282 10 332 -7 q 204 66 232 28 q 163 148 176 104 q 149 258 149 192 q 169 490 149 360 q 204 685 189 619 q 249 820 219 750 q 317 932 278 890 z "},"ğ":{"ha":739,"x_min":51,"x_max":758,"o":"m 364 964 q 394 884 364 919 q 481 849 425 849 q 590 888 543 849 q 647 988 638 928 l 667 988 q 599 872 654 914 q 482 829 544 829 q 382 868 419 829 q 344 960 344 907 q 347 988 344 972 l 367 988 q 364 964 364 975 m 321 -14 q 114 210 114 -14 q 126 382 114 286 q 440 746 185 746 q 758 728 550 746 l 621 -144 q 531 -322 601 -265 q 386 -379 460 -379 q 363 -378 375 -379 l 51 -344 l 54 -325 l 368 -346 q 381 -346 375 -346 q 506 -297 442 -346 q 588 -144 571 -247 l 617 40 q 463 1 551 15 q 321 -14 375 -14 m 160 376 q 147 224 147 294 q 168 106 147 153 q 325 19 206 19 q 476 34 414 19 q 621 68 539 49 l 724 706 l 447 713 q 440 713 443 713 q 257 625 328 713 q 160 376 186 538 z "},"Ġ":{"ha":889,"x_min":149,"x_max":899,"o":"m 610 1231 l 625 1231 q 639 1214 642 1231 l 625 1128 q 606 1111 622 1111 l 590 1111 q 576 1128 574 1111 l 590 1214 q 610 1231 593 1231 m 317 932 q 336 953 317 932 q 417 1001 356 974 q 545 1028 478 1028 q 720 1016 613 1028 q 899 990 828 1004 l 894 964 l 836 972 q 553 994 658 994 q 319 878 392 994 q 207 511 246 761 q 183 285 183 376 q 203 139 183 194 q 407 26 246 26 q 686 78 503 26 l 747 96 l 811 506 l 514 506 l 518 525 q 688 540 576 540 q 850 536 800 540 l 765 0 l 746 0 l 746 75 q 590 22 697 51 q 408 -7 483 -7 q 282 10 332 -7 q 204 66 232 28 q 163 148 176 104 q 149 258 149 192 q 169 490 149 360 q 204 685 189 619 q 249 820 219 750 q 317 932 278 890 z "},"ġ":{"ha":739,"x_min":51,"x_max":758,"o":"m 507 949 l 522 949 q 536 932 539 949 l 522 846 q 503 829 519 829 l 488 829 q 474 846 471 829 l 488 932 q 507 949 490 949 m 321 -14 q 114 210 114 -14 q 126 382 114 286 q 440 746 185 746 q 758 728 550 746 l 621 -144 q 531 -322 601 -265 q 386 -379 460 -379 q 363 -378 375 -379 l 51 -344 l 54 -325 l 368 -346 q 381 -346 375 -346 q 506 -297 442 -346 q 588 -144 571 -247 l 617 40 q 463 1 551 15 q 321 -14 375 -14 m 160 376 q 147 224 147 294 q 168 106 147 153 q 325 19 206 19 q 476 34 414 19 q 621 68 539 49 l 724 706 l 447 713 q 440 713 443 713 q 257 625 328 713 q 160 376 186 538 z "},"Ģ":{"ha":889,"x_min":149,"x_max":899,"o":"m 435 -194 q 422 -178 419 -194 l 435 -100 q 451 -85 438 -85 l 464 -85 q 476 -100 479 -85 l 454 -240 q 440 -272 451 -262 q 424 -281 429 -281 q 408 -279 419 -281 l 410 -272 q 433 -253 429 -272 l 442 -194 l 435 -194 m 317 932 q 336 953 317 932 q 417 1001 356 974 q 545 1028 478 1028 q 720 1016 613 1028 q 899 990 828 1004 l 894 964 l 836 972 q 553 994 658 994 q 319 878 392 994 q 207 511 246 761 q 183 285 183 376 q 203 139 183 194 q 407 26 246 26 q 686 78 503 26 l 747 96 l 811 506 l 514 506 l 518 525 q 688 540 576 540 q 850 536 800 540 l 765 0 l 746 0 l 746 75 q 590 22 697 51 q 408 -7 483 -7 q 282 10 332 -7 q 204 66 232 28 q 163 148 176 104 q 149 258 149 192 q 169 490 149 360 q 204 685 189 619 q 249 820 219 750 q 317 932 278 890 z "},"ģ":{"ha":719,"x_min":53,"x_max":760,"o":"m 322 -14 q 115 210 115 -14 q 128 382 115 286 q 442 746 186 746 q 760 728 551 746 l 622 -144 q 532 -322 603 -265 q 388 -379 461 -379 q 364 -378 376 -379 l 53 -344 l 56 -325 l 369 -346 q 382 -346 376 -346 q 508 -297 443 -346 q 589 -144 572 -247 l 618 40 q 465 1 553 15 q 322 -14 376 -14 m 161 376 q 149 224 149 294 q 169 106 149 153 q 326 19 207 19 q 478 34 415 19 q 622 68 540 49 l 725 706 l 449 713 q 442 713 444 713 q 258 625 329 713 q 161 376 188 538 m 529 981 q 544 1012 533 1003 q 559 1021 554 1021 q 575 1019 564 1021 l 574 1013 q 550 993 554 1013 l 543 943 l 550 943 q 564 928 565 943 l 551 844 q 533 828 549 828 l 522 828 q 510 844 507 828 l 529 981 z "},"Ĥ":{"ha":904,"x_min":118,"x_max":957,"o":"m 443 1107 l 656 1288 l 685 1288 l 821 1107 l 797 1107 l 667 1267 l 468 1107 l 443 1107 m 118 0 l 279 1017 l 313 1017 l 232 508 l 843 508 l 924 1017 l 957 1017 l 796 0 l 763 0 l 838 475 l 226 475 l 151 0 l 118 0 z "},"ĥ":{"ha":750,"x_min":83,"x_max":731,"o":"m 90 1172 l 303 1353 l 332 1353 l 468 1172 l 444 1172 l 314 1332 l 115 1172 l 90 1172 m 540 750 q 694 681 646 750 q 731 560 731 628 q 726 514 731 538 l 644 0 l 611 0 l 693 514 q 696 556 696 536 q 664 661 696 618 q 533 717 621 717 q 376 697 444 717 q 217 632 307 678 l 117 0 l 83 0 l 256 1089 l 289 1089 l 219 651 q 540 750 388 750 z "},"Ħ":{"ha":843,"x_min":118,"x_max":979,"o":"m 118 0 l 236 746 l 146 746 l 149 767 l 239 767 l 279 1017 l 313 1017 l 272 767 l 856 767 l 896 1017 l 929 1017 l 889 767 l 979 767 l 976 746 l 886 746 l 768 0 l 735 0 l 810 475 l 226 475 l 151 0 l 118 0 m 232 508 l 815 508 l 853 746 l 269 746 l 232 508 z "},"ħ":{"ha":750,"x_min":83,"x_max":731,"o":"m 536 750 q 692 681 642 750 q 731 558 731 628 q 726 514 731 536 l 644 0 l 611 0 l 693 514 q 696 556 696 536 q 664 661 696 618 q 533 717 621 717 q 376 697 444 717 q 217 632 307 678 l 117 0 l 83 0 l 222 876 l 125 876 l 128 896 l 225 896 l 256 1089 l 289 1089 l 258 896 l 458 896 l 456 876 l 256 876 l 219 651 q 536 750 388 750 z "},"Ĩ":{"ha":267,"x_min":125,"x_max":601,"o":"m 285 1238 q 369 1187 313 1238 q 446 1136 425 1136 q 581 1200 493 1136 q 594 1210 593 1208 l 601 1200 q 547 1156 565 1169 q 442 1114 490 1114 q 357 1165 411 1114 q 287 1215 303 1215 q 260 1214 271 1215 q 238 1208 250 1213 q 218 1199 226 1203 q 197 1188 210 1196 q 176 1175 183 1179 q 131 1146 158 1167 l 125 1157 q 285 1238 229 1238 m 151 0 l 313 1017 l 346 1017 l 185 0 l 151 0 z "},"ĩ":{"ha":229,"x_min":22,"x_max":499,"o":"m 182 958 q 266 908 210 958 q 343 857 322 857 q 478 919 390 857 q 492 931 490 929 l 499 921 q 444 876 463 890 q 339 835 388 835 q 254 885 308 835 q 184 936 200 936 q 158 935 168 936 q 135 928 147 933 q 115 920 124 924 q 94 908 107 917 q 74 897 81 900 q 28 867 56 888 l 22 878 q 182 958 126 958 m 99 0 l 215 738 l 249 738 l 132 0 l 99 0 z "},"Ī":{"ha":267,"x_min":125,"x_max":496,"o":"m 143 1107 l 146 1128 l 496 1128 l 493 1107 l 143 1107 m 125 0 l 286 1017 l 319 1017 l 158 0 l 125 0 z "},"ī":{"ha":229,"x_min":50,"x_max":404,"o":"m 51 828 l 54 849 l 404 849 l 401 828 l 51 828 m 83 0 l 200 738 l 233 738 l 117 0 l 83 0 z "},"Į":{"ha":267,"x_min":-3,"x_max":319,"o":"m -3 -153 q 135 0 -3 -57 l 151 0 q 72 -49 104 -18 q 26 -142 26 -90 q 72 -215 26 -192 q 153 -232 104 -232 q 158 -232 156 -232 l 156 -251 q 125 -253 140 -253 q 32 -222 67 -253 q -3 -153 -3 -190 m 125 0 l 286 1017 l 319 1017 l 158 0 l 125 0 z "},"į":{"ha":200,"x_min":-44,"x_max":275,"o":"m -44 -153 q 93 0 -44 -57 l 110 0 q 31 -49 63 -18 q -15 -142 -15 -90 q 31 -215 -15 -192 q 111 -232 63 -232 q 117 -232 114 -232 l 114 -251 q 83 -253 99 -253 q -10 -222 25 -253 q -44 -153 -44 -190 m 83 0 l 200 738 l 233 738 l 117 0 l 83 0 m 246 967 l 263 967 q 275 950 278 967 l 267 892 q 247 875 264 875 l 232 875 q 218 892 215 875 l 226 950 q 246 967 228 967 z "},"İ":{"ha":267,"x_min":125,"x_max":358,"o":"m 329 1226 l 344 1226 q 358 1210 361 1226 l 344 1124 q 325 1107 342 1107 l 310 1107 q 296 1124 293 1107 l 310 1210 q 329 1226 313 1226 m 125 0 l 286 1017 l 319 1017 l 158 0 l 125 0 z "},"ı":{"ha":229,"x_min":83,"x_max":233,"o":"m 83 0 l 200 738 l 233 738 l 117 0 l 83 0 z "},"Ĵ":{"ha":443,"x_min":53,"x_max":722,"o":"m 343 1107 l 556 1288 l 585 1288 l 721 1107 l 697 1107 l 567 1267 l 368 1107 l 343 1107 m 181 26 q 376 229 343 26 l 501 1017 l 535 1017 l 410 229 q 306 25 388 79 q 185 -7 257 -7 q 53 29 103 -7 l 61 49 q 181 26 128 26 z "},"ĵ":{"ha":175,"x_min":36,"x_max":426,"o":"m 36 -375 l 213 738 l 246 738 l 128 -6 q 54 -375 90 -251 l 36 -375 m 49 828 l 261 1008 l 290 1008 l 426 828 l 403 828 l 272 989 l 74 828 l 49 828 z "},"Ķ":{"ha":733,"x_min":111,"x_max":890,"o":"m 376 -187 q 364 -171 361 -187 l 376 -94 q 393 -78 379 -78 l 406 -78 q 418 -94 421 -78 l 396 -233 q 382 -265 393 -256 q 366 -274 371 -274 q 350 -272 361 -274 l 351 -265 q 375 -246 371 -265 l 383 -187 l 376 -187 m 111 0 l 272 1017 l 306 1017 l 228 526 l 440 526 l 849 1017 l 890 1017 l 471 511 l 731 0 l 692 0 l 440 493 l 224 493 l 146 0 l 111 0 z "},"ķ":{"ha":658,"x_min":83,"x_max":685,"o":"m 282 -187 q 269 -171 267 -187 l 282 -94 q 299 -78 285 -78 l 311 -78 q 324 -94 326 -78 l 301 -233 q 288 -265 299 -256 q 272 -274 276 -274 q 256 -272 267 -274 l 257 -265 q 281 -246 276 -265 l 289 -187 l 282 -187 m 336 393 q 231 378 268 378 q 178 379 194 378 l 117 -3 l 83 -3 l 256 1083 l 289 1083 l 182 410 q 374 439 289 410 q 514 518 460 468 q 650 735 613 611 l 685 735 q 368 403 614 479 l 607 -3 l 568 -3 l 336 393 z "},"ĸ":{"ha":614,"x_min":83,"x_max":707,"o":"m 83 0 l 200 738 l 233 738 l 178 388 l 338 388 l 664 738 l 707 738 l 365 367 l 569 0 l 529 0 l 332 354 l 172 354 l 117 0 l 83 0 z "},"Ĺ":{"ha":760,"x_min":133,"x_max":688,"o":"m 297 1107 l 494 1292 l 531 1292 l 317 1107 l 297 1107 m 167 133 q 200 58 167 82 q 304 33 233 33 l 688 33 l 682 0 l 306 0 q 178 28 226 0 q 133 129 133 54 q 138 175 133 150 l 271 1017 l 304 1017 l 171 175 q 167 133 167 151 z "},"ĺ":{"ha":435,"x_min":114,"x_max":508,"o":"m 275 1171 l 472 1356 l 508 1356 l 294 1171 l 275 1171 m 256 0 q 115 164 115 0 q 124 263 115 207 l 254 1088 l 288 1088 l 157 263 q 149 177 149 213 q 152 121 149 142 q 166 83 156 100 q 184 57 176 65 q 208 43 192 49 q 285 26 231 35 q 349 18 339 18 l 346 0 l 256 0 z "},"Ļ":{"ha":760,"x_min":133,"x_max":688,"o":"m 385 -187 q 372 -171 369 -187 l 385 -94 q 401 -78 388 -78 l 414 -78 q 426 -94 429 -78 l 404 -233 q 390 -265 401 -256 q 374 -274 379 -274 q 358 -272 369 -274 l 360 -265 q 383 -246 379 -265 l 392 -187 l 385 -187 m 167 133 q 200 58 167 82 q 304 33 233 33 l 688 33 l 682 0 l 306 0 q 178 28 226 0 q 133 129 133 54 q 138 175 133 150 l 271 1017 l 304 1017 l 171 175 q 167 133 167 151 z "},"ļ":{"ha":435,"x_min":132,"x_max":367,"o":"m 192 -187 q 179 -171 176 -187 l 192 -94 q 208 -78 194 -78 l 221 -78 q 233 -94 236 -78 l 211 -233 q 197 -265 208 -256 q 181 -274 186 -274 q 165 -272 176 -274 l 167 -265 q 190 -246 186 -265 l 199 -187 l 192 -187 m 274 0 q 133 164 133 0 q 142 263 133 207 l 272 1088 l 306 1088 l 175 263 q 167 177 167 213 q 170 121 167 142 q 184 83 174 100 q 202 57 194 65 q 225 43 210 49 q 303 26 249 35 q 367 18 357 18 l 364 0 l 274 0 z "},"Ľ":{"ha":760,"x_min":132,"x_max":688,"o":"m 167 133 q 200 58 167 82 q 304 33 233 33 l 688 33 l 682 0 l 299 0 q 167 35 213 0 q 133 124 133 60 q 138 175 133 147 l 271 1017 l 304 1017 l 171 175 q 167 133 167 151 m 396 793 l 417 979 l 431 1072 l 465 1072 l 451 979 l 413 793 l 396 793 z "},"ľ":{"ha":435,"x_min":114,"x_max":461,"o":"m 256 0 q 115 164 115 0 q 124 263 115 207 l 254 1088 l 288 1088 l 157 263 q 149 177 149 213 q 152 121 149 142 q 166 83 156 100 q 184 57 176 65 q 208 43 192 49 q 285 26 231 35 q 349 18 339 18 l 346 0 l 256 0 m 392 807 l 413 993 l 426 1086 l 461 1086 l 447 993 l 408 807 l 392 807 z "},"Ł":{"ha":760,"x_min":75,"x_max":689,"o":"m 168 133 q 201 58 168 82 q 306 33 235 33 l 689 33 l 683 0 l 304 0 q 179 28 225 0 q 135 129 135 54 q 139 175 135 150 l 199 550 l 75 500 l 79 529 l 203 579 l 272 1017 l 306 1017 l 239 593 l 417 665 l 411 638 l 233 565 l 172 175 q 168 133 168 151 z "},"ł":{"ha":435,"x_min":72,"x_max":418,"o":"m 249 0 q 114 160 114 0 q 124 263 114 204 l 178 606 l 72 554 l 76 583 l 182 633 l 254 1088 l 288 1088 l 218 651 l 418 747 l 413 719 l 214 622 l 157 263 q 149 141 149 176 q 165 81 149 106 q 199 47 181 57 q 278 28 218 38 q 349 18 339 18 l 346 0 l 249 0 z "},"Ń":{"ha":892,"x_min":111,"x_max":951,"o":"m 617 1107 l 814 1292 l 850 1292 l 636 1107 l 617 1107 m 111 0 l 272 1017 l 307 1017 l 765 60 l 918 1017 l 951 1017 l 790 0 l 757 0 l 297 958 l 144 0 l 111 0 z "},"ń":{"ha":750,"x_min":83,"x_max":731,"o":"m 486 833 l 683 1018 l 719 1018 l 506 833 l 486 833 m 219 738 l 219 651 q 536 750 388 750 q 692 681 642 750 q 731 558 731 628 q 726 514 731 536 l 644 0 l 611 0 l 693 514 q 696 554 696 535 q 664 658 696 614 q 533 717 621 717 q 376 697 444 717 q 217 632 307 678 l 117 0 l 83 0 l 200 738 l 219 738 z "},"Ņ":{"ha":892,"x_min":111,"x_max":951,"o":"m 435 -187 q 422 -171 419 -187 l 435 -94 q 451 -78 438 -78 l 464 -78 q 476 -94 479 -78 l 454 -233 q 440 -265 451 -256 q 424 -274 429 -274 q 408 -272 419 -274 l 410 -265 q 433 -246 429 -265 l 442 -187 l 435 -187 m 111 0 l 272 1017 l 307 1017 l 765 60 l 918 1017 l 951 1017 l 790 0 l 757 0 l 297 958 l 144 0 l 111 0 z "},"ņ":{"ha":750,"x_min":83,"x_max":731,"o":"m 333 -187 q 321 -171 318 -187 l 333 -94 q 350 -78 336 -78 l 363 -78 q 375 -94 378 -78 l 353 -233 q 339 -265 350 -256 q 323 -274 328 -274 q 307 -272 318 -274 l 308 -265 q 332 -246 328 -265 l 340 -187 l 333 -187 m 219 738 l 219 651 q 536 750 388 750 q 692 681 642 750 q 731 558 731 628 q 726 514 731 536 l 644 0 l 611 0 l 693 514 q 696 554 696 535 q 664 658 696 614 q 533 717 621 717 q 376 697 444 717 q 217 632 307 678 l 117 0 l 83 0 l 200 738 l 219 738 z "},"Ň":{"ha":892,"x_min":111,"x_max":951,"o":"m 467 1288 l 490 1288 l 621 1128 l 819 1288 l 844 1288 l 632 1107 l 603 1107 l 467 1288 m 111 0 l 272 1017 l 307 1017 l 765 60 l 918 1017 l 951 1017 l 790 0 l 757 0 l 297 958 l 144 0 l 111 0 z "},"ň":{"ha":750,"x_min":83,"x_max":731,"o":"m 336 1014 l 360 1014 l 490 854 l 689 1014 l 714 1014 l 501 833 l 472 833 l 336 1014 m 219 738 l 219 651 q 536 750 388 750 q 692 681 642 750 q 731 558 731 628 q 726 514 731 536 l 644 0 l 611 0 l 693 514 q 696 554 696 535 q 664 658 696 614 q 533 717 621 717 q 376 697 444 717 q 217 632 307 678 l 117 0 l 83 0 l 200 738 l 219 738 z "},"Ŋ":{"ha":864,"x_min":111,"x_max":924,"o":"m 111 0 l 272 1017 l 307 1017 l 740 67 l 890 1017 l 924 1017 l 744 -117 q 713 -243 732 -196 q 659 -316 693 -290 q 585 -349 625 -342 q 478 -357 544 -357 l 482 -332 q 604 -311 581 -321 q 711 -118 685 -281 l 729 0 l 296 950 l 146 0 l 111 0 z "},"ŋ":{"ha":769,"x_min":83,"x_max":731,"o":"m 686 681 q 729 554 729 625 q 726 514 729 535 l 625 -125 q 379 -340 594 -317 l 367 -319 q 592 -124 563 -287 l 693 514 q 696 544 696 529 q 651 660 696 604 q 517 717 607 717 q 217 628 392 717 l 117 0 l 83 0 l 200 738 l 217 738 l 219 651 q 317 700 281 683 q 528 750 428 750 q 686 681 629 750 z "},"Ō":{"ha":950,"x_min":142,"x_max":931,"o":"m 460 1107 l 463 1128 l 813 1128 l 810 1107 l 460 1107 m 380 980 q 408 994 380 980 q 488 1016 436 1008 q 613 1024 539 1024 q 732 1017 688 1024 q 819 992 776 1011 q 883 936 861 972 q 931 731 931 860 q 909 498 931 638 q 857 267 888 358 q 790 123 826 176 q 699 40 754 69 q 590 3 644 11 q 453 -6 536 -6 q 319 3 369 -6 q 223 43 268 13 q 160 131 178 74 q 142 283 142 189 q 164 515 142 378 q 219 747 186 651 q 288 897 251 843 q 380 980 324 951 m 265 775 q 255 750 265 775 q 228 656 244 725 q 194 482 211 588 q 177 331 178 376 q 176 246 176 286 q 190 154 176 206 q 243 75 204 103 q 331 38 282 47 q 459 28 381 28 q 590 38 538 28 q 690 76 642 47 q 769 157 738 104 q 875 501 838 267 q 896 722 896 631 q 879 867 896 813 q 821 948 863 921 q 734 983 779 975 q 628 990 689 990 q 539 988 568 990 q 473 980 510 986 q 411 959 436 974 q 357 922 386 944 q 307 862 328 899 q 265 775 286 825 z "},"ō":{"ha":778,"x_min":114,"x_max":749,"o":"m 331 828 l 333 849 l 683 849 l 681 828 l 331 828 m 126 368 q 241 667 161 589 q 493 744 321 744 q 717 650 665 744 q 747 510 747 592 q 735 349 747 429 q 625 69 703 146 q 371 -7 547 -7 q 144 78 194 -7 q 114 208 114 129 q 126 368 114 288 m 281 656 q 258 639 281 656 q 208 549 236 622 q 163 376 179 476 q 147 225 147 276 q 158 140 147 174 q 185 83 168 106 q 233 47 203 60 q 369 26 286 26 q 499 39 451 26 q 589 86 547 51 q 701 358 668 153 q 715 460 715 425 q 711 534 715 494 q 694 613 707 574 q 647 674 681 651 q 502 711 590 711 q 369 701 414 711 q 281 656 325 690 z "},"Ő":{"ha":950,"x_min":142,"x_max":956,"o":"m 528 1107 l 725 1292 l 761 1292 l 547 1107 l 528 1107 m 721 1107 l 918 1292 l 954 1292 l 740 1107 l 721 1107 m 380 980 q 408 994 380 980 q 488 1016 436 1008 q 613 1024 539 1024 q 732 1017 688 1024 q 819 992 776 1011 q 883 936 861 972 q 931 731 931 860 q 909 498 931 638 q 857 267 888 358 q 790 123 826 176 q 699 40 754 69 q 590 3 644 11 q 453 -6 536 -6 q 319 3 369 -6 q 223 43 268 13 q 160 131 178 74 q 142 283 142 189 q 164 515 142 378 q 219 747 186 651 q 288 897 251 843 q 380 980 324 951 m 265 775 q 255 750 265 775 q 228 656 244 725 q 194 482 211 588 q 177 331 178 376 q 176 246 176 286 q 190 154 176 206 q 243 75 204 103 q 331 38 282 47 q 459 28 381 28 q 590 38 538 28 q 690 76 642 47 q 769 157 738 104 q 875 501 838 267 q 896 722 896 631 q 879 867 896 813 q 821 948 863 921 q 734 983 779 975 q 628 990 689 990 q 539 988 568 990 q 473 980 510 986 q 411 959 436 974 q 357 922 386 944 q 307 862 328 899 q 265 775 286 825 z "},"ő":{"ha":778,"x_min":114,"x_max":826,"o":"m 399 828 l 596 1013 l 632 1013 l 418 828 l 399 828 m 592 828 l 789 1013 l 825 1013 l 611 828 l 592 828 m 126 368 q 241 667 161 589 q 493 744 321 744 q 717 650 665 744 q 747 510 747 592 q 735 349 747 429 q 625 69 703 146 q 371 -7 547 -7 q 144 78 194 -7 q 114 208 114 129 q 126 368 114 288 m 281 656 q 258 639 281 656 q 208 549 236 622 q 163 376 179 476 q 147 225 147 276 q 158 140 147 174 q 185 83 168 106 q 233 47 203 60 q 369 26 286 26 q 499 39 451 26 q 589 86 547 51 q 701 358 668 153 q 715 460 715 425 q 711 534 715 494 q 694 613 707 574 q 647 674 681 651 q 502 711 590 711 q 369 701 414 711 q 281 656 325 690 z "},"Œ":{"ha":1424,"x_min":140,"x_max":1500,"o":"m 619 1024 q 833 983 761 1024 q 924 817 906 942 q 988 969 933 922 q 1122 1017 1043 1017 q 1132 1017 1128 1017 l 1500 1003 l 1497 983 l 1126 983 q 961 836 985 983 l 911 521 l 1367 514 l 1364 494 l 906 488 l 856 171 q 851 129 851 147 q 884 53 851 78 q 989 29 917 29 l 1346 29 l 1343 10 l 983 -4 q 969 -4 976 -4 q 856 31 894 -4 q 817 126 817 65 q 824 185 817 153 q 683 31 768 68 q 451 -6 599 -6 q 317 3 368 -6 q 222 43 267 13 q 158 131 176 74 q 140 283 140 189 q 163 515 140 378 q 217 747 185 651 q 286 897 250 843 q 378 980 322 951 q 486 1016 435 1008 q 619 1024 538 1024 m 264 775 q 253 750 264 775 q 226 656 243 725 q 193 482 210 588 q 176 331 176 376 q 175 246 175 286 q 189 154 175 206 q 242 75 203 103 q 330 38 281 47 q 458 28 379 28 q 588 38 536 28 q 688 76 640 47 q 769 157 736 104 q 874 501 836 267 q 894 722 894 631 q 878 867 894 813 q 819 948 861 921 q 733 983 778 975 q 627 990 688 990 q 538 988 567 990 q 472 980 508 986 q 410 959 435 974 q 356 922 385 944 q 306 862 326 899 q 264 775 285 825 z "},"œ":{"ha":1342,"x_min":114,"x_max":1321,"o":"m 1247 400 q 1110 332 1188 347 q 917 317 1033 317 q 733 343 800 317 q 722 210 722 272 q 881 24 722 26 q 890 24 886 24 q 1211 53 1004 24 l 1207 31 q 883 -10 1060 -10 q 745 35 792 -10 q 692 176 699 81 q 578 35 653 76 q 372 -7 504 -7 q 144 78 194 -7 q 114 208 114 129 q 126 368 114 288 q 241 667 161 589 q 492 744 321 744 q 674 697 614 744 q 746 553 735 650 q 850 700 779 650 q 1071 751 925 751 q 1321 579 1321 751 q 1247 400 1321 465 m 281 656 q 258 639 281 656 q 208 549 236 622 q 163 376 179 476 q 147 225 147 276 q 158 140 147 174 q 185 83 168 106 q 233 47 203 60 q 369 26 286 26 q 499 39 451 26 q 589 86 547 51 q 701 358 668 153 q 715 460 715 425 q 711 534 715 494 q 694 613 707 574 q 647 674 681 651 q 502 711 590 711 q 369 701 414 711 q 281 656 325 690 m 738 363 q 836 351 768 357 q 936 344 904 344 q 1017 351 968 344 q 1128 374 1067 357 q 1233 433 1190 390 q 1286 565 1286 486 q 1235 681 1286 643 q 1081 718 1183 718 q 919 697 979 718 q 824 627 860 675 q 769 519 788 579 q 738 363 750 458 z "},"Ŕ":{"ha":850,"x_min":104,"x_max":856,"o":"m 558 1107 l 756 1292 l 792 1292 l 578 1107 l 558 1107 m 649 1017 q 804 968 758 1017 q 856 832 856 914 q 849 733 856 790 q 738 493 818 546 q 665 458 697 467 q 583 449 632 450 l 735 0 l 699 0 l 547 449 q 211 463 221 454 l 138 0 l 104 0 l 265 1017 l 649 1017 m 564 482 q 646 491 611 482 q 717 525 681 500 q 814 739 789 579 q 821 835 821 800 q 808 897 821 871 q 781 940 794 924 q 742 967 767 957 q 643 982 697 982 l 293 982 l 214 482 l 564 482 z "},"ŕ":{"ha":546,"x_min":83,"x_max":658,"o":"m 425 829 l 622 1014 l 658 1014 l 444 829 l 425 829 m 317 694 q 336 703 317 694 q 417 728 354 711 q 544 746 479 746 q 639 735 608 746 l 633 703 q 545 713 589 713 q 472 708 501 713 q 422 700 442 704 q 369 683 403 696 q 322 665 335 671 q 267 641 310 660 q 214 617 225 622 l 117 0 l 83 0 l 200 738 l 217 738 l 218 644 q 317 694 281 678 z "},"Ŗ":{"ha":850,"x_min":104,"x_max":856,"o":"m 394 -187 q 382 -171 379 -187 l 394 -94 q 411 -78 397 -78 l 424 -78 q 436 -94 439 -78 l 414 -233 q 400 -265 411 -256 q 384 -274 389 -274 q 368 -272 379 -274 l 369 -265 q 393 -246 389 -265 l 401 -187 l 394 -187 m 649 1017 q 804 968 758 1017 q 856 832 856 914 q 849 733 856 790 q 738 493 818 546 q 665 458 697 467 q 583 449 632 450 l 735 0 l 699 0 l 547 449 q 211 463 221 454 l 138 0 l 104 0 l 265 1017 l 649 1017 m 564 482 q 646 491 611 482 q 717 525 681 500 q 814 739 789 579 q 821 835 821 800 q 808 897 821 871 q 781 940 794 924 q 742 967 767 957 q 643 982 697 982 l 293 982 l 214 482 l 564 482 z "},"ŗ":{"ha":546,"x_min":110,"x_max":710,"o":"m 136 -187 q 124 -171 121 -187 l 136 -94 q 153 -78 139 -78 l 165 -78 q 178 -94 181 -78 l 156 -233 q 142 -265 153 -256 q 126 -274 131 -274 q 110 -272 121 -274 l 111 -265 q 135 -246 131 -265 l 143 -187 l 136 -187 m 388 694 q 407 703 388 694 q 488 728 425 711 q 615 746 550 746 q 710 735 679 746 l 704 703 q 616 713 660 713 q 542 708 572 713 q 493 700 513 704 q 440 683 474 696 q 393 665 406 671 q 338 641 381 660 q 285 617 296 622 l 188 0 l 154 0 l 271 738 l 288 738 l 289 644 q 388 694 351 678 z "},"Ř":{"ha":850,"x_min":104,"x_max":856,"o":"m 408 1288 l 432 1288 l 563 1128 l 761 1288 l 786 1288 l 574 1107 l 544 1107 l 408 1288 m 649 1017 q 804 968 758 1017 q 856 832 856 914 q 849 733 856 790 q 738 493 818 546 q 665 458 697 467 q 583 449 632 450 l 735 0 l 699 0 l 547 449 q 211 463 221 454 l 138 0 l 104 0 l 265 1017 l 649 1017 m 564 482 q 646 491 611 482 q 717 525 681 500 q 814 739 789 579 q 821 835 821 800 q 808 897 821 871 q 781 940 794 924 q 742 967 767 957 q 643 982 697 982 l 293 982 l 214 482 l 564 482 z "},"ř":{"ha":546,"x_min":83,"x_max":653,"o":"m 274 1010 l 297 1010 l 428 850 l 626 1010 l 651 1010 l 439 829 l 410 829 l 274 1010 m 317 694 q 336 703 317 694 q 417 728 354 711 q 544 746 479 746 q 639 735 608 746 l 633 703 q 545 713 589 713 q 472 708 501 713 q 422 700 442 704 q 369 683 403 696 q 322 665 335 671 q 267 641 310 660 q 214 617 225 622 l 117 0 l 83 0 l 200 738 l 217 738 l 218 644 q 317 694 281 678 z "},"Ś":{"ha":785,"x_min":110,"x_max":818,"o":"m 560 1108 l 757 1293 l 793 1293 l 579 1108 l 560 1108 m 442 22 q 672 118 613 22 q 706 217 697 158 l 719 311 q 724 357 724 336 q 696 442 724 413 q 556 482 658 482 l 400 482 q 208 546 247 482 q 185 626 185 586 q 192 692 185 665 l 207 783 q 306 974 229 924 q 521 1025 382 1025 q 818 999 660 1025 l 815 981 l 508 992 q 490 992 499 992 q 324 945 388 992 q 240 778 260 899 l 225 686 q 221 638 221 660 q 259 546 221 576 q 403 515 297 515 l 561 515 q 728 458 689 515 q 757 356 757 418 q 753 304 757 332 l 739 210 q 625 25 717 68 q 433 -11 546 -11 q 264 -5 375 -11 q 110 10 153 1 l 113 31 q 442 22 203 22 z "},"ś":{"ha":700,"x_min":89,"x_max":686,"o":"m 440 828 l 638 1013 l 674 1013 l 460 828 l 440 828 m 431 26 q 575 83 540 26 q 599 157 592 111 l 610 225 q 611 247 611 236 q 584 318 611 286 q 486 350 557 350 l 304 350 q 165 376 197 350 q 133 460 133 403 q 138 513 133 483 l 147 576 q 211 704 161 664 q 367 744 261 744 q 686 732 558 744 l 682 713 l 361 713 q 233 678 275 713 q 181 568 192 644 l 171 504 q 167 465 167 482 q 170 435 167 447 q 178 413 174 422 q 194 399 183 404 q 215 390 206 393 q 242 385 224 388 q 272 383 260 383 l 488 383 q 607 343 568 383 q 646 249 646 303 q 643 217 646 233 l 632 149 q 528 4 613 28 q 422 -7 488 -7 q 89 7 217 -7 l 92 26 l 431 26 z "},"Ŝ":{"ha":785,"x_min":110,"x_max":818,"o":"m 339 1108 l 551 1289 l 581 1289 l 717 1108 l 693 1108 l 563 1268 l 364 1108 l 339 1108 m 442 22 q 672 118 613 22 q 706 217 697 158 l 719 311 q 724 357 724 336 q 696 442 724 413 q 556 482 658 482 l 400 482 q 208 546 247 482 q 185 626 185 586 q 192 692 185 665 l 207 783 q 306 974 229 924 q 521 1025 382 1025 q 818 999 660 1025 l 815 981 l 508 992 q 490 992 499 992 q 324 945 388 992 q 240 778 260 899 l 225 686 q 221 638 221 660 q 259 546 221 576 q 403 515 297 515 l 561 515 q 728 458 689 515 q 757 356 757 418 q 753 304 757 332 l 739 210 q 625 25 717 68 q 433 -11 546 -11 q 264 -5 375 -11 q 110 10 153 1 l 113 31 q 442 22 203 22 z "},"ŝ":{"ha":700,"x_min":89,"x_max":686,"o":"m 261 828 l 474 1008 l 503 1008 l 639 828 l 615 828 l 485 988 l 286 828 l 261 828 m 431 26 q 575 83 540 26 q 599 157 592 111 l 610 225 q 611 247 611 236 q 584 318 611 286 q 486 350 557 350 l 304 350 q 165 376 197 350 q 133 460 133 403 q 138 513 133 483 l 147 576 q 211 704 161 664 q 367 744 261 744 q 686 732 558 744 l 682 713 l 361 713 q 233 678 275 713 q 181 568 192 644 l 171 504 q 167 465 167 482 q 170 435 167 447 q 178 413 174 422 q 194 399 183 404 q 215 390 206 393 q 242 385 224 388 q 272 383 260 383 l 488 383 q 607 343 568 383 q 646 249 646 303 q 643 217 646 233 l 632 149 q 528 4 613 28 q 422 -7 488 -7 q 89 7 217 -7 l 92 26 l 431 26 z "},"Ş":{"ha":785,"x_min":110,"x_max":818,"o":"m 274 -251 l 231 -251 l 232 -242 l 279 -235 q 347 -218 325 -228 q 390 -172 369 -208 q 421 -62 411 -135 l 444 -62 q 393 -210 428 -169 q 274 -251 358 -251 m 442 22 q 672 118 613 22 q 706 217 697 158 l 719 311 q 724 357 724 336 q 696 442 724 413 q 556 482 658 482 l 400 482 q 208 546 247 482 q 185 626 185 586 q 192 692 185 665 l 207 783 q 306 974 229 924 q 521 1025 382 1025 q 818 999 660 1025 l 815 981 l 508 992 q 490 992 499 992 q 324 945 388 992 q 240 778 260 899 l 225 686 q 221 638 221 660 q 259 546 221 576 q 403 515 297 515 l 561 515 q 728 458 689 515 q 757 356 757 418 q 753 304 757 332 l 739 210 q 625 25 717 68 q 433 -11 546 -11 q 264 -5 375 -11 q 110 10 153 1 l 113 31 q 442 22 203 22 z "},"ş":{"ha":700,"x_min":89,"x_max":686,"o":"m 218 -244 l 175 -244 l 176 -235 l 224 -228 q 317 -194 296 -218 q 352 -128 343 -164 q 365 -56 361 -93 l 389 -56 q 338 -204 372 -164 q 218 -244 303 -244 m 431 26 q 575 83 540 26 q 599 157 592 111 l 610 225 q 611 247 611 236 q 584 318 611 286 q 486 350 557 350 l 304 350 q 165 376 197 350 q 133 460 133 403 q 138 513 133 483 l 147 576 q 211 704 161 664 q 367 744 261 744 q 686 732 558 744 l 682 713 l 361 713 q 233 678 275 713 q 181 568 192 644 l 171 504 q 167 465 167 482 q 170 435 167 447 q 178 413 174 422 q 194 399 183 404 q 215 390 206 393 q 242 385 224 388 q 272 383 260 383 q 488 383 272 383 q 607 343 568 383 q 646 249 646 303 q 643 217 646 233 l 632 149 q 528 4 613 28 q 422 -7 488 -7 q 89 7 217 -7 l 92 26 l 431 26 z "},"Š":{"ha":785,"x_min":110,"x_max":818,"o":"m 413 1289 l 436 1289 l 567 1129 l 765 1289 l 790 1289 l 578 1108 l 549 1108 l 413 1289 m 442 22 q 672 118 613 22 q 706 217 697 158 l 719 311 q 724 357 724 336 q 696 442 724 413 q 556 482 658 482 l 400 482 q 208 546 247 482 q 185 626 185 586 q 192 692 185 665 l 207 783 q 306 974 229 924 q 521 1025 382 1025 q 818 999 660 1025 l 815 981 l 508 992 q 490 992 499 992 q 324 945 388 992 q 240 778 260 899 l 225 686 q 221 638 221 660 q 259 546 221 576 q 403 515 297 515 l 561 515 q 728 458 689 515 q 757 356 757 418 q 753 304 757 332 l 739 210 q 625 25 717 68 q 433 -11 546 -11 q 264 -5 375 -11 q 110 10 153 1 l 113 31 q 442 22 203 22 z "},"š":{"ha":700,"x_min":89,"x_max":686,"o":"m 296 1008 l 319 1008 l 450 849 l 649 1008 l 674 1008 l 461 828 l 432 828 l 296 1008 m 431 26 q 575 83 540 26 q 599 157 592 111 l 610 225 q 611 247 611 236 q 584 318 611 286 q 486 350 557 350 l 304 350 q 165 376 197 350 q 133 460 133 403 q 138 513 133 483 l 147 576 q 211 704 161 664 q 367 744 261 744 q 686 732 558 744 l 682 713 l 361 713 q 233 678 275 713 q 181 568 192 644 l 171 504 q 167 465 167 482 q 170 435 167 447 q 178 413 174 422 q 194 399 183 404 q 215 390 206 393 q 242 385 224 388 q 272 383 260 383 l 488 383 q 607 343 568 383 q 646 249 646 303 q 643 217 646 233 l 632 149 q 528 4 613 28 q 422 -7 488 -7 q 89 7 217 -7 l 92 26 l 431 26 z "},"Ţ":{"ha":876,"x_min":192,"x_max":944,"o":"m 236 -257 l 193 -257 l 194 -247 l 242 -240 q 310 -224 288 -233 q 353 -177 332 -214 q 383 -68 374 -140 l 407 -68 q 356 -216 390 -175 q 236 -257 321 -257 m 192 983 l 197 1017 l 944 1017 l 939 983 l 578 983 l 422 0 l 389 0 l 544 983 l 192 983 z "},"ţ":{"ha":478,"x_min":65,"x_max":526,"o":"m 110 -239 l 67 -239 l 68 -229 l 115 -222 q 221 -172 197 -211 q 257 -50 246 -131 l 281 -50 q 229 -199 264 -158 q 110 -239 194 -239 m 308 -1 q 165 165 165 -1 q 174 261 165 207 l 244 706 l 128 706 l 132 728 l 250 739 l 293 944 l 315 944 l 283 739 l 526 739 l 521 706 l 278 706 l 207 261 q 199 176 199 211 q 202 119 199 140 q 216 81 206 99 q 234 56 226 64 q 258 42 242 47 q 335 25 281 33 q 399 17 389 17 l 396 -1 l 308 -1 z "},"Ť":{"ha":876,"x_min":193,"x_max":946,"o":"m 426 1288 l 450 1288 l 581 1128 l 779 1288 l 804 1288 l 592 1107 l 563 1107 l 426 1288 m 193 983 l 199 1017 l 946 1017 l 940 983 l 579 983 l 424 0 l 390 0 l 546 983 l 193 983 z "},"ť":{"ha":478,"x_min":128,"x_max":526,"o":"m 308 -1 q 165 165 165 -1 q 174 261 165 207 l 244 706 l 128 706 l 132 728 l 250 739 l 293 944 l 315 944 l 283 739 l 526 739 l 521 706 l 278 706 l 207 261 q 199 176 199 211 q 202 119 199 140 q 216 81 206 99 q 234 56 226 64 q 258 42 242 47 q 335 25 281 33 q 399 17 389 17 l 396 -1 l 308 -1 m 421 829 l 440 1015 l 456 1108 l 490 1108 l 475 1015 l 438 829 l 421 829 z "},"Ŧ":{"ha":821,"x_min":193,"x_max":890,"o":"m 193 983 l 199 1017 l 890 1017 l 885 983 l 551 983 l 489 589 l 669 589 l 667 569 l 486 569 l 396 0 l 363 0 l 453 569 l 272 569 l 275 589 l 456 589 l 518 983 l 193 983 z "},"ŧ":{"ha":478,"x_min":90,"x_max":526,"o":"m 297 1 q 165 160 165 1 q 175 264 165 206 l 203 442 l 90 442 l 93 461 l 206 461 l 244 706 l 128 706 l 132 728 l 250 739 l 293 944 l 315 944 l 283 739 l 526 739 l 521 706 l 278 706 l 239 461 l 413 461 l 410 442 l 236 442 l 208 264 q 199 166 199 201 q 206 108 199 131 q 221 72 214 86 q 246 50 228 57 q 331 29 271 39 q 400 19 390 19 l 397 1 l 297 1 z "},"Ũ":{"ha":946,"x_min":165,"x_max":976,"o":"m 569 1231 q 624 1206 593 1231 q 685 1155 656 1181 q 727 1129 714 1129 q 749 1131 740 1129 q 768 1135 758 1132 q 786 1142 778 1139 q 804 1151 794 1146 q 821 1161 814 1157 q 838 1172 828 1165 q 853 1183 849 1179 q 868 1194 858 1186 q 881 1203 878 1201 l 888 1193 q 778 1116 807 1125 q 728 1107 749 1107 q 685 1123 708 1107 q 643 1158 661 1139 q 568 1208 594 1208 q 439 1154 521 1208 q 417 1139 422 1143 l 411 1150 q 569 1231 515 1231 m 215 444 q 197 294 197 333 q 199 228 197 256 q 206 171 201 201 q 223 118 210 140 q 247 80 236 96 q 281 54 258 64 q 319 38 304 44 q 365 31 335 32 q 465 26 417 26 q 544 28 514 26 q 611 40 574 31 q 675 67 649 50 q 731 114 701 83 q 781 189 760 144 q 853 444 831 292 l 943 1017 l 976 1017 l 886 444 q 839 244 863 304 q 799 149 815 183 q 759 92 782 115 q 717 51 736 68 q 671 23 699 33 q 624 6 643 13 q 575 -3 606 0 q 432 -7 528 -7 q 285 14 336 -7 q 165 261 165 60 q 182 444 165 339 l 272 1017 l 306 1017 l 215 444 z "},"ũ":{"ha":749,"x_min":100,"x_max":747,"o":"m 411 951 q 467 926 436 951 q 526 875 497 900 q 569 850 556 850 q 594 852 583 850 q 615 857 606 854 q 635 866 624 860 q 654 876 647 872 q 674 889 661 881 q 691 901 686 897 q 708 913 696 904 q 722 924 721 922 l 729 914 q 619 837 649 846 q 567 828 590 828 q 515 853 544 828 q 457 903 485 878 q 414 929 429 929 q 388 928 399 929 q 366 922 378 926 q 346 913 354 917 q 324 901 338 910 q 304 890 311 893 q 281 875 297 886 q 258 860 265 864 l 253 871 q 411 951 358 951 m 135 185 q 167 81 135 125 q 298 22 210 22 q 455 42 386 22 q 614 107 524 61 l 714 739 l 747 739 l 631 1 l 611 1 l 611 88 q 296 -11 443 -11 q 139 58 190 -11 q 100 182 100 111 q 104 225 100 203 l 186 739 l 219 739 l 138 225 q 135 185 135 204 z "},"Ū":{"ha":946,"x_min":165,"x_max":976,"o":"m 464 1107 l 467 1128 l 817 1128 l 814 1107 l 464 1107 m 215 444 q 197 294 197 333 q 199 228 197 256 q 206 171 201 201 q 223 118 210 140 q 247 80 236 96 q 281 54 258 64 q 319 38 304 44 q 365 31 335 32 q 465 26 417 26 q 544 28 514 26 q 611 40 574 31 q 675 67 649 50 q 731 114 701 83 q 781 189 760 144 q 853 444 831 292 l 943 1017 l 976 1017 l 886 444 q 839 244 863 304 q 799 149 815 183 q 759 92 782 115 q 717 51 736 68 q 671 23 699 33 q 624 6 643 13 q 575 -3 606 0 q 432 -7 528 -7 q 285 14 336 -7 q 165 261 165 60 q 182 444 165 339 l 272 1017 l 306 1017 l 215 444 z "},"ū":{"ha":749,"x_min":100,"x_max":747,"o":"m 306 828 l 308 849 l 658 849 l 656 828 l 306 828 m 135 185 q 167 81 135 125 q 298 22 210 22 q 455 42 386 22 q 614 107 524 61 l 714 739 l 747 739 l 631 1 l 611 1 l 611 88 q 296 -11 443 -11 q 139 58 190 -11 q 100 182 100 111 q 104 225 100 203 l 186 739 l 219 739 l 138 225 q 135 185 135 204 z "},"Ŭ":{"ha":946,"x_min":165,"x_max":976,"o":"m 522 1242 q 553 1162 522 1197 q 638 1126 583 1126 q 748 1166 701 1126 q 804 1265 794 1206 l 824 1265 q 757 1149 813 1192 q 640 1107 701 1107 q 540 1146 578 1107 q 501 1238 501 1185 q 504 1265 501 1250 l 524 1265 q 522 1242 522 1253 m 215 444 q 197 294 197 333 q 199 228 197 256 q 206 171 201 201 q 223 118 210 140 q 247 80 236 96 q 281 54 258 64 q 319 38 304 44 q 365 31 335 32 q 465 26 417 26 q 544 28 514 26 q 611 40 574 31 q 675 67 649 50 q 731 114 701 83 q 781 189 760 144 q 853 444 831 292 l 943 1017 l 976 1017 l 886 444 q 839 244 863 304 q 799 149 815 183 q 759 92 782 115 q 717 51 736 68 q 671 23 699 33 q 624 6 643 13 q 575 -3 606 0 q 432 -7 528 -7 q 285 14 336 -7 q 165 261 165 60 q 182 444 165 339 l 272 1017 l 306 1017 l 215 444 z "},"ŭ":{"ha":749,"x_min":100,"x_max":747,"o":"m 364 963 q 394 883 364 918 q 479 847 425 847 q 590 887 543 847 q 646 986 638 926 l 665 986 q 599 870 654 913 q 482 828 544 828 q 382 867 419 828 q 344 958 344 906 q 346 986 344 971 l 365 986 q 364 963 364 974 m 135 185 q 167 81 135 125 q 298 22 210 22 q 455 42 386 22 q 614 107 524 61 l 714 739 l 747 739 l 631 1 l 611 1 l 611 88 q 296 -11 443 -11 q 139 58 190 -11 q 100 182 100 111 q 104 225 100 203 l 186 739 l 219 739 l 138 225 q 135 185 135 204 z "},"Ů":{"ha":946,"x_min":165,"x_max":976,"o":"m 572 1345 q 599 1368 572 1345 q 685 1392 626 1392 q 774 1354 744 1392 q 804 1274 804 1317 q 776 1183 804 1221 q 640 1107 721 1107 q 549 1144 581 1107 q 518 1225 518 1181 q 572 1345 518 1299 m 539 1228 q 566 1160 539 1192 q 635 1128 593 1128 q 707 1144 676 1128 q 785 1269 785 1186 q 758 1339 785 1307 q 690 1371 732 1371 q 618 1354 649 1371 q 539 1228 539 1311 m 215 444 q 197 294 197 333 q 199 228 197 256 q 206 171 201 201 q 223 118 210 140 q 247 80 236 96 q 281 54 258 64 q 319 38 304 44 q 365 31 335 32 q 465 26 417 26 q 544 28 514 26 q 611 40 574 31 q 675 67 649 50 q 731 114 701 83 q 781 189 760 144 q 853 444 831 292 l 943 1017 l 976 1017 l 886 444 q 839 244 863 304 q 799 149 815 183 q 759 92 782 115 q 717 51 736 68 q 671 23 699 33 q 624 6 643 13 q 575 -3 606 0 q 432 -7 528 -7 q 285 14 336 -7 q 165 261 165 60 q 182 444 165 339 l 272 1017 l 306 1017 l 215 444 z "},"ů":{"ha":749,"x_min":100,"x_max":747,"o":"m 415 1066 q 442 1089 415 1066 q 528 1113 469 1113 q 616 1075 586 1113 q 646 994 646 1038 q 593 874 646 919 q 482 828 540 828 q 392 865 424 828 q 361 946 361 901 q 415 1066 361 1019 m 382 949 q 409 881 382 913 q 486 849 436 849 q 576 883 536 849 q 626 990 626 928 q 600 1060 626 1028 q 532 1092 574 1092 q 461 1075 490 1092 q 382 949 382 1032 m 135 185 q 167 81 135 125 q 298 22 210 22 q 455 42 386 22 q 614 107 524 61 l 714 739 l 747 739 l 631 1 l 611 1 l 611 88 q 296 -11 443 -11 q 139 58 190 -11 q 100 182 100 111 q 104 225 100 203 l 186 739 l 219 739 l 138 225 q 135 185 135 204 z "},"Ű":{"ha":946,"x_min":165,"x_max":976,"o":"m 532 1107 l 729 1292 l 765 1292 l 551 1107 l 532 1107 m 725 1107 l 922 1292 l 958 1292 l 744 1107 l 725 1107 m 215 444 q 197 294 197 333 q 199 228 197 256 q 206 171 201 201 q 223 118 210 140 q 247 80 236 96 q 281 54 258 64 q 319 38 304 44 q 365 31 335 32 q 465 26 417 26 q 544 28 514 26 q 611 40 574 31 q 675 67 649 50 q 731 114 701 83 q 781 189 760 144 q 853 444 831 292 l 943 1017 l 976 1017 l 886 444 q 839 244 863 304 q 799 149 815 183 q 759 92 782 115 q 717 51 736 68 q 671 23 699 33 q 624 6 643 13 q 575 -3 606 0 q 432 -7 528 -7 q 285 14 336 -7 q 165 261 165 60 q 182 444 165 339 l 272 1017 l 306 1017 l 215 444 z "},"ű":{"ha":749,"x_min":100,"x_max":801,"o":"m 375 828 l 572 1013 l 608 1013 l 394 828 l 375 828 m 568 828 l 765 1013 l 801 1013 l 588 828 l 568 828 m 135 185 q 167 81 135 125 q 298 22 210 22 q 455 42 386 22 q 614 107 524 61 l 714 739 l 747 739 l 631 1 l 611 1 l 611 88 q 296 -11 443 -11 q 139 58 190 -11 q 100 182 100 111 q 104 225 100 203 l 186 739 l 219 739 l 138 225 q 135 185 135 204 z "},"Ų":{"ha":946,"x_min":165,"x_max":976,"o":"m 332 -158 q 469 -6 332 -62 l 486 -6 q 407 -54 439 -24 q 361 -147 361 -96 q 407 -221 361 -197 q 488 -237 439 -237 q 493 -237 490 -237 l 490 -257 q 460 -258 475 -258 q 367 -227 401 -258 q 332 -158 332 -196 m 215 444 q 197 294 197 333 q 199 228 197 256 q 206 171 201 201 q 223 118 210 140 q 247 80 236 96 q 281 54 258 64 q 319 38 304 44 q 365 31 335 32 q 465 26 417 26 q 544 28 514 26 q 611 40 574 31 q 675 67 649 50 q 731 114 701 83 q 781 189 760 144 q 853 444 831 292 l 943 1017 l 976 1017 l 886 444 q 839 244 863 304 q 799 149 815 183 q 759 92 782 115 q 717 51 736 68 q 671 23 699 33 q 624 6 643 13 q 575 -3 606 0 q 432 -7 528 -7 q 285 14 336 -7 q 165 261 165 60 q 182 444 165 339 l 272 1017 l 306 1017 l 215 444 z "},"ų":{"ha":885,"x_min":100,"x_max":747,"o":"m 476 -151 q 614 1 476 -56 l 631 1 q 519 -86 551 -29 q 503 -140 503 -115 q 518 -187 503 -165 q 632 -231 549 -231 q 638 -231 635 -231 l 635 -250 q 603 -253 618 -253 q 510 -221 544 -253 q 476 -151 476 -189 m 135 185 q 167 81 135 125 q 298 22 210 22 q 455 42 386 22 q 614 107 524 61 l 714 739 l 747 739 l 631 1 l 611 1 l 611 88 q 296 -11 443 -11 q 139 58 190 -11 q 100 182 100 111 q 104 225 100 203 l 186 739 l 219 739 l 138 225 q 135 185 135 204 z "},"Ŵ":{"ha":1361,"x_min":208,"x_max":1433,"o":"m 646 1107 l 858 1288 l 888 1288 l 1024 1107 l 1000 1107 l 869 1267 l 671 1107 l 646 1107 m 208 1017 l 242 1017 l 439 35 l 936 1017 l 972 1017 l 764 599 l 899 33 l 1397 1017 l 1433 1017 l 919 0 l 872 0 l 739 550 l 458 0 l 411 0 l 208 1017 z "},"ŵ":{"ha":1119,"x_min":131,"x_max":1139,"o":"m 465 828 l 678 1008 l 707 1008 l 843 828 l 819 828 l 689 988 l 490 828 l 465 828 m 749 724 q 706 608 749 686 l 618 457 l 725 42 l 1061 619 q 1115 739 1111 706 l 1136 739 q 1138 726 1138 733 q 1094 611 1138 689 l 740 0 l 703 0 l 594 417 l 353 0 l 317 0 l 131 738 l 164 738 l 340 44 l 672 618 q 726 736 722 706 l 747 736 q 749 724 749 731 z "},"Ŷ":{"ha":872,"x_min":208,"x_max":944,"o":"m 401 1107 l 614 1288 l 643 1288 l 779 1107 l 756 1107 l 625 1267 l 426 1107 l 401 1107 m 208 1017 l 246 1017 l 463 406 l 904 1017 l 944 1017 l 475 361 l 418 0 l 385 0 l 442 361 l 208 1017 z "},"ŷ":{"ha":744,"x_min":131,"x_max":758,"o":"m 263 831 l 475 1011 l 504 1011 l 640 831 l 617 831 l 486 990 l 288 831 l 263 831 m 757 725 q 726 619 757 685 l 431 1 q 217 -333 322 -237 q 135 -374 172 -374 l 135 -354 q 199 -318 163 -354 q 269 -231 236 -282 q 375 -36 333 -128 l 393 0 q 246 153 275 11 l 131 738 l 164 738 l 278 161 q 410 35 303 35 l 694 631 q 733 747 726 701 l 754 747 q 757 725 757 738 z "},"Ÿ":{"ha":872,"x_min":208,"x_max":944,"o":"m 422 1156 q 439 1149 433 1156 q 442 1132 444 1142 q 414 1107 438 1107 q 398 1115 404 1107 q 393 1132 392 1122 q 422 1156 399 1156 m 776 1156 q 793 1149 788 1156 q 796 1132 799 1142 q 768 1107 792 1107 q 752 1115 758 1107 q 747 1132 746 1122 q 776 1156 753 1156 m 208 1017 l 246 1017 l 463 406 l 904 1017 l 944 1017 l 475 361 l 418 0 l 385 0 l 442 361 l 208 1017 z "},"Ź":{"ha":704,"x_min":49,"x_max":853,"o":"m 536 1107 l 733 1292 l 769 1292 l 556 1107 l 536 1107 m 49 0 l 54 33 l 803 983 l 204 983 l 210 1017 l 853 1017 l 847 983 l 99 33 l 697 33 l 692 0 l 49 0 z "},"ź":{"ha":624,"x_min":63,"x_max":708,"o":"m 438 828 l 635 1013 l 671 1013 l 457 828 l 438 828 m 63 1 l 68 35 l 656 704 l 153 704 l 158 738 l 708 738 l 703 704 l 114 35 l 597 35 l 592 1 l 63 1 z "},"Ż":{"ha":704,"x_min":49,"x_max":853,"o":"m 513 1200 l 528 1200 q 542 1183 544 1200 l 528 1097 q 508 1081 525 1081 l 493 1081 q 479 1097 476 1081 l 493 1183 q 513 1200 496 1200 m 49 0 l 54 33 l 803 983 l 204 983 l 210 1017 l 853 1017 l 847 983 l 99 33 l 697 33 l 692 0 l 49 0 z "},"ż":{"ha":624,"x_min":63,"x_max":708,"o":"m 460 947 l 475 947 q 489 931 492 947 l 475 844 q 456 828 472 828 l 440 828 q 426 844 424 828 l 440 931 q 460 947 443 947 m 63 1 l 68 35 l 656 704 l 153 704 l 158 738 l 708 738 l 703 704 l 114 35 l 597 35 l 592 1 l 63 1 z "},"Ž":{"ha":704,"x_min":49,"x_max":853,"o":"m 386 1288 l 410 1288 l 540 1128 l 739 1288 l 764 1288 l 551 1107 l 522 1107 l 386 1288 m 49 0 l 54 33 l 803 983 l 204 983 l 210 1017 l 853 1017 l 847 983 l 99 33 l 697 33 l 692 0 l 49 0 z "},"ž":{"ha":624,"x_min":63,"x_max":708,"o":"m 288 1008 l 311 1008 l 442 849 l 640 1008 l 665 1008 l 453 828 l 424 828 l 288 1008 m 63 1 l 68 35 l 656 704 l 153 704 l 158 738 l 708 738 l 703 704 l 114 35 l 597 35 l 592 1 l 63 1 z "},"ƒ":{"ha":738,"x_min":-11,"x_max":964,"o":"m 100 -250 q 228 -183 175 -250 q 310 -46 285 -108 q 368 122 342 39 l 514 585 l 372 585 l 383 619 l 525 619 l 553 703 q 572 763 558 719 q 592 824 586 807 q 612 880 599 842 q 633 935 625 918 l 657 982 q 685 1026 672 1013 q 715 1060 697 1040 q 751 1089 733 1081 q 857 1111 800 1111 q 964 1094 914 1111 l 957 1078 l 835 1078 q 753 1052 789 1078 q 685 963 717 1026 q 640 862 654 900 q 609 775 625 824 q 592 722 593 726 q 590 713 592 718 q 586 703 588 707 l 558 618 l 758 618 l 747 585 l 547 585 l 401 122 q 300 -140 343 -67 q 96 -283 217 -282 q -11 -267 10 -283 l -4 -250 l 100 -250 z "},"ˆ":{"ha":464,"x_min":92,"x_max":469,"o":"m 92 738 l 304 918 l 333 918 l 469 738 l 446 738 l 315 897 l 117 738 l 92 738 z "},"ˇ":{"ha":560,"x_min":44,"x_max":422,"o":"m 44 918 l 68 918 l 199 758 l 397 918 l 422 918 l 210 738 l 181 738 l 44 918 z "},"˘":{"ha":378,"x_min":81,"x_max":403,"o":"m 100 869 q 131 792 100 828 q 215 756 161 756 q 327 795 281 756 q 383 894 374 835 l 403 894 q 336 778 392 821 q 219 736 281 736 q 119 775 157 736 q 81 867 81 814 q 83 894 81 879 l 103 894 q 100 869 100 882 z "},"˙":{"ha":239,"x_min":97,"x_max":161,"o":"m 132 879 l 147 879 q 161 863 164 879 l 147 776 q 128 760 144 760 l 113 760 q 99 776 96 760 l 113 863 q 132 879 115 879 z "},"˚":{"ha":488,"x_min":192,"x_max":479,"o":"m 247 974 q 274 998 247 974 q 360 1021 301 1021 q 449 984 418 1021 q 479 903 479 947 q 426 782 479 828 q 314 736 372 736 q 224 773 256 736 q 192 853 192 810 q 247 974 192 928 m 214 857 q 241 789 214 821 q 318 757 268 757 q 408 792 368 757 q 458 899 458 836 q 432 968 458 936 q 356 1000 406 1000 q 264 964 306 1000 q 214 857 214 919 z "},"˛":{"ha":365,"x_min":204,"x_max":367,"o":"m 206 -153 q 343 0 206 -57 l 360 0 q 247 -87 281 -31 q 232 -142 232 -117 q 247 -189 232 -167 q 361 -232 278 -232 q 367 -232 364 -232 l 364 -251 q 332 -254 347 -254 q 240 -222 274 -254 q 206 -153 206 -190 z "},"˜":{"ha":689,"x_min":186,"x_max":663,"o":"m 346 875 q 430 824 374 875 q 507 774 486 774 q 642 836 554 774 q 656 847 654 846 l 663 838 q 608 793 626 807 q 503 751 551 751 q 418 802 472 751 q 348 853 364 853 q 322 851 332 853 q 299 845 311 850 q 279 837 288 840 q 258 825 271 833 q 238 814 244 817 q 192 783 219 804 l 186 794 q 346 875 290 875 z "},"˝":{"ha":642,"x_min":214,"x_max":640,"o":"m 214 738 l 411 922 l 447 922 l 233 738 l 214 738 m 407 738 l 604 922 l 640 922 l 426 738 l 407 738 z "},"̸":{"ha":900,"x_min":126,"x_max":882,"o":"m 494 1017 l 681 1017 q 847 953 800 1017 q 882 836 882 906 q 878 788 882 813 l 788 213 q 701 48 769 96 q 519 0 632 0 l 333 0 q 172 57 229 0 q 128 179 128 100 q 132 232 128 204 l 221 796 q 314 960 238 904 q 494 1017 390 1017 m 164 225 q 160 172 160 203 q 176 111 160 142 l 822 929 q 675 983 781 983 l 489 983 q 331 933 394 983 q 254 792 268 882 l 164 225 m 339 33 l 525 33 q 754 225 725 33 l 844 792 q 849 849 849 817 q 832 913 849 882 l 189 92 q 339 33 235 33 z "},"Ω":{"ha":1092,"x_min":99,"x_max":1040,"o":"m 181 306 q 165 433 165 376 q 176 556 165 489 q 679 1026 253 1026 q 1040 671 1040 1026 q 1028 526 1040 604 q 920 258 1006 393 q 692 32 835 122 l 953 17 l 950 0 l 633 0 l 639 33 q 883 258 794 126 q 994 535 971 389 q 1007 685 1007 624 q 989 803 1007 747 q 936 901 971 858 q 678 993 863 993 q 339 856 449 993 q 207 532 240 736 q 199 408 199 478 q 410 33 199 221 l 404 0 l 99 0 l 101 17 l 367 33 q 181 306 211 163 z "},"π":{"ha":863,"x_min":128,"x_max":828,"o":"m 568 231 q 560 143 560 183 q 667 28 560 28 l 782 28 l 779 8 q 668 -7 704 -7 q 547 46 579 -7 q 526 128 526 78 q 535 231 526 179 l 610 704 l 281 704 l 169 0 l 136 0 l 247 704 l 128 704 l 133 738 l 828 738 l 822 704 l 643 704 l 568 231 z "},"Ḃ":{"ha":819,"x_min":111,"x_max":854,"o":"m 581 1226 l 596 1226 q 610 1210 613 1226 l 596 1124 q 576 1107 593 1107 l 561 1107 q 547 1124 544 1107 l 561 1210 q 581 1226 564 1226 m 624 1017 q 819 956 769 1017 q 854 838 854 911 q 768 611 854 701 q 632 533 703 542 q 735 458 690 519 q 779 324 779 396 q 775 274 779 300 q 463 0 732 0 l 111 0 l 272 1017 l 624 1017 m 468 35 q 743 283 703 35 q 746 322 746 303 q 694 454 746 393 q 551 515 643 515 q 544 515 549 515 l 226 515 l 150 35 l 468 35 m 550 549 q 720 609 647 549 q 814 771 793 669 q 822 842 822 810 q 789 936 822 906 q 618 983 740 983 l 300 983 l 232 549 l 550 549 z "},"ḃ":{"ha":757,"x_min":83,"x_max":717,"o":"m 297 1293 l 313 1293 q 326 1276 329 1293 l 313 1190 q 293 1174 310 1174 l 278 1174 q 264 1190 261 1174 l 278 1276 q 297 1293 281 1293 m 510 749 q 715 496 715 749 q 613 111 715 269 q 519 24 576 56 q 393 -8 463 -8 q 238 23 324 -8 q 128 82 153 54 l 101 0 l 83 0 l 256 1090 l 286 1090 l 224 693 q 374 733 290 718 q 510 749 457 749 m 392 25 q 565 110 488 25 q 669 365 642 194 q 679 487 679 449 q 678 540 679 525 q 646 647 675 608 q 583 701 617 686 q 501 715 549 715 q 222 674 389 715 l 132 101 q 392 25 271 25 z "},"Ḋ":{"ha":914,"x_min":111,"x_max":919,"o":"m 599 1226 l 614 1226 q 628 1210 631 1226 l 614 1124 q 594 1107 611 1107 l 579 1107 q 565 1124 563 1107 l 579 1210 q 599 1226 582 1226 m 622 1017 q 775 981 713 1017 q 868 892 838 946 q 919 663 919 803 q 901 490 919 592 q 849 303 882 388 q 765 148 815 218 q 639 39 714 78 q 471 0 564 0 l 111 0 l 272 1017 l 622 1017 m 471 33 q 634 77 561 33 q 753 194 707 121 q 869 506 842 335 q 885 669 885 597 q 843 865 885 792 q 615 983 776 983 l 300 983 l 150 33 l 471 33 z "},"ḋ":{"ha":724,"x_min":113,"x_max":835,"o":"m 804 1267 l 819 1267 q 835 1250 836 1267 l 821 1164 q 801 1147 818 1147 l 786 1147 q 772 1164 769 1147 l 786 1250 q 804 1267 788 1267 m 440 749 q 569 733 492 749 q 706 693 647 718 l 768 1090 l 799 1090 l 626 0 l 608 0 l 607 82 q 480 23 572 54 q 318 -8 388 -8 q 201 28 249 -8 q 136 119 154 64 q 114 263 114 196 q 124 376 114 329 q 440 749 183 749 m 147 253 q 181 107 147 160 q 331 25 232 25 q 610 101 449 25 l 701 674 q 439 715 549 715 q 203 542 275 715 q 160 386 174 469 q 147 253 147 303 z "},"Ḟ":{"ha":771,"x_min":111,"x_max":857,"o":"m 614 1226 l 629 1226 q 643 1210 646 1226 l 629 1124 q 610 1107 626 1107 l 594 1107 q 581 1124 578 1107 l 594 1210 q 614 1226 597 1226 m 435 1017 q 446 1017 440 1017 l 857 1003 l 854 983 l 439 983 q 328 949 368 983 q 276 836 289 914 l 226 521 l 725 514 l 721 494 l 222 488 l 144 0 l 111 0 l 242 831 q 310 978 258 940 q 435 1017 361 1017 z "},"ḟ":{"ha":499,"x_min":128,"x_max":644,"o":"m 496 1294 l 511 1294 q 525 1278 528 1294 l 511 1192 q 492 1175 508 1175 l 476 1175 q 463 1192 460 1175 l 476 1278 q 496 1294 479 1294 m 366 1069 q 374 1075 366 1069 q 403 1085 382 1081 q 447 1092 424 1090 q 530 1093 471 1093 q 644 1076 589 1093 l 642 1058 l 444 1058 q 351 1013 379 1058 q 308 875 322 968 l 288 738 l 535 738 l 529 704 l 282 704 l 171 0 l 138 0 l 249 704 l 128 704 l 131 724 l 254 738 l 275 875 q 286 939 275 892 q 303 995 297 986 q 317 1023 308 1004 q 338 1050 326 1042 q 366 1069 350 1058 z "},"Ṁ":{"ha":1069,"x_min":99,"x_max":1061,"o":"m 743 1226 l 758 1226 q 772 1210 775 1226 l 758 1124 q 739 1107 756 1107 l 724 1107 q 710 1124 707 1107 l 724 1210 q 743 1226 726 1226 m 99 0 l 372 1017 l 419 1017 l 565 57 l 1007 1017 l 1061 1017 l 1017 0 l 982 0 l 1026 974 l 576 0 l 538 0 l 394 967 l 133 0 l 99 0 z "},"ṁ":{"ha":1279,"x_min":83,"x_max":1257,"o":"m 768 953 l 783 953 q 797 936 800 953 l 785 850 q 765 833 782 833 l 750 833 q 736 850 733 833 l 749 936 q 768 953 751 953 m 219 738 l 219 651 q 530 750 388 750 q 715 636 672 750 q 882 715 781 679 q 1063 750 983 750 q 1218 681 1168 750 q 1257 558 1257 628 q 1253 514 1257 536 l 1171 0 l 1138 0 l 1219 514 q 1222 554 1222 535 q 1190 658 1222 614 q 1057 717 1147 717 q 721 619 918 717 q 729 562 729 589 q 726 514 729 535 l 644 0 l 611 0 l 693 514 q 696 554 696 535 q 664 658 696 614 q 533 717 621 717 q 376 697 444 717 q 217 632 307 678 l 117 0 l 83 0 l 200 738 l 219 738 z "},"Ṗ":{"ha":811,"x_min":104,"x_max":856,"o":"m 581 1226 l 596 1226 q 610 1210 613 1226 l 596 1124 q 576 1107 593 1107 l 561 1107 q 547 1124 544 1107 l 561 1210 q 581 1226 564 1226 m 649 1017 q 806 972 763 1017 q 856 850 856 918 q 849 739 856 810 q 775 538 825 597 q 726 488 750 507 q 669 461 703 468 q 564 449 617 449 q 363 454 511 449 q 211 463 215 460 l 138 0 l 104 0 l 265 1017 l 649 1017 m 564 482 q 717 528 656 482 q 814 740 792 583 q 821 837 821 801 q 808 899 821 872 q 781 942 794 925 q 742 967 767 958 q 643 982 701 982 l 293 982 l 214 482 l 564 482 z "},"ṗ":{"ha":732,"x_min":24,"x_max":722,"o":"m 499 949 l 514 949 q 528 932 531 949 l 514 846 q 494 829 511 829 l 479 829 q 465 846 463 829 l 479 932 q 499 949 482 949 m 515 746 q 692 644 643 746 q 722 505 722 581 q 710 351 722 429 q 676 210 697 274 q 619 93 656 146 q 394 -14 549 -14 q 260 1 340 -14 q 122 40 181 15 l 57 -375 l 24 -375 l 200 732 q 515 746 289 746 m 126 63 q 406 19 290 19 q 585 107 521 19 q 678 372 649 194 q 688 497 688 432 q 664 619 688 563 q 507 713 625 713 l 229 713 l 126 63 z "},"Ṡ":{"ha":785,"x_min":110,"x_max":818,"o":"m 567 1228 l 582 1228 q 596 1211 599 1228 l 582 1125 q 563 1108 579 1108 l 547 1108 q 533 1125 531 1108 l 547 1211 q 567 1228 550 1228 m 442 22 q 672 118 613 22 q 706 217 697 158 l 719 311 q 724 357 724 336 q 696 442 724 413 q 556 482 658 482 l 400 482 q 208 546 247 482 q 185 626 185 586 q 192 692 185 665 l 207 783 q 306 974 229 924 q 521 1025 382 1025 q 818 999 660 1025 l 815 981 l 508 992 q 490 992 499 992 q 324 945 388 992 q 240 778 260 899 l 225 686 q 221 638 221 660 q 259 546 221 576 q 403 515 297 515 l 561 515 q 728 458 689 515 q 757 356 757 418 q 753 304 757 332 l 739 210 q 625 25 717 68 q 433 -11 546 -11 q 264 -5 375 -11 q 110 10 153 1 l 113 31 q 442 22 203 22 z "},"ṡ":{"ha":700,"x_min":89,"x_max":686,"o":"m 461 947 l 476 947 q 490 931 493 947 l 476 844 q 457 828 474 828 l 442 828 q 428 844 425 828 l 442 931 q 461 947 444 947 m 431 26 q 575 83 540 26 q 599 157 592 111 l 610 225 q 611 247 611 236 q 584 318 611 286 q 486 350 557 350 l 304 350 q 165 376 197 350 q 133 460 133 403 q 138 513 133 483 l 147 576 q 211 704 161 664 q 367 744 261 744 q 686 732 558 744 l 682 713 l 361 713 q 233 678 275 713 q 181 568 192 644 l 171 504 q 167 465 167 482 q 170 435 167 447 q 178 413 174 422 q 194 399 183 404 q 215 390 206 393 q 242 385 224 388 q 272 383 260 383 l 488 383 q 607 343 568 383 q 646 249 646 303 q 643 217 646 233 l 632 149 q 528 4 613 28 q 422 -7 488 -7 q 89 7 217 -7 l 92 26 l 431 26 z "},"Ṫ":{"ha":876,"x_min":193,"x_max":946,"o":"m 599 1226 l 614 1226 q 628 1210 631 1226 l 614 1124 q 594 1107 611 1107 l 579 1107 q 565 1124 563 1107 l 579 1210 q 599 1226 582 1226 m 193 983 l 199 1017 l 946 1017 l 940 983 l 579 983 l 424 0 l 390 0 l 546 983 l 193 983 z "},"ṫ":{"ha":478,"x_min":128,"x_max":526,"o":"m 338 1147 l 353 1147 q 367 1131 369 1147 l 353 1044 q 333 1028 350 1028 l 318 1028 q 304 1044 301 1028 l 318 1131 q 338 1147 321 1147 m 308 -1 q 165 165 165 -1 q 174 261 165 207 l 244 706 l 128 706 l 132 728 l 250 739 l 293 944 l 315 944 l 283 739 l 526 739 l 521 706 l 278 706 l 207 261 q 199 176 199 211 q 202 119 199 140 q 216 81 206 99 q 234 56 226 64 q 258 42 242 47 q 335 25 281 33 q 399 17 389 17 l 396 -1 l 308 -1 z "},"Ẁ":{"ha":1361,"x_min":208,"x_max":1433,"o":"m 669 1292 l 706 1292 l 844 1107 l 825 1107 l 669 1292 m 208 1017 l 242 1017 l 439 35 l 936 1017 l 972 1017 l 764 599 l 899 33 l 1397 1017 l 1433 1017 l 919 0 l 872 0 l 739 550 l 458 0 l 411 0 l 208 1017 z "},"ẁ":{"ha":1119,"x_min":131,"x_max":1139,"o":"m 517 1013 l 553 1013 l 692 828 l 672 828 l 517 1013 m 749 724 q 706 608 749 686 l 618 457 l 725 42 l 1061 619 q 1115 739 1111 706 l 1136 739 q 1138 726 1138 733 q 1094 611 1138 689 l 740 0 l 703 0 l 594 417 l 353 0 l 317 0 l 131 738 l 164 738 l 340 44 l 672 618 q 726 736 722 706 l 747 736 q 749 724 749 731 z "},"Ẃ":{"ha":1361,"x_min":208,"x_max":1433,"o":"m 825 1107 l 1022 1292 l 1058 1292 l 844 1107 l 825 1107 m 208 1017 l 242 1017 l 439 35 l 936 1017 l 972 1017 l 764 599 l 899 33 l 1397 1017 l 1433 1017 l 919 0 l 872 0 l 739 550 l 458 0 l 411 0 l 208 1017 z "},"ẃ":{"ha":1119,"x_min":131,"x_max":1139,"o":"m 625 821 l 822 1006 l 858 1006 l 644 821 l 625 821 m 749 724 q 706 608 749 686 l 618 457 l 725 42 l 1061 619 q 1115 739 1111 706 l 1136 739 q 1138 726 1138 733 q 1094 611 1138 689 l 740 0 l 703 0 l 594 417 l 353 0 l 317 0 l 131 738 l 164 738 l 340 44 l 672 618 q 726 736 722 706 l 747 736 q 749 724 749 731 z "},"Ẅ":{"ha":1361,"x_min":208,"x_max":1433,"o":"m 667 1156 q 683 1149 678 1156 q 686 1132 689 1142 q 658 1107 682 1107 q 642 1115 649 1107 q 638 1132 636 1122 q 667 1156 643 1156 m 1021 1156 q 1038 1149 1032 1156 q 1040 1132 1043 1142 q 1013 1107 1036 1107 q 997 1115 1003 1107 q 992 1132 990 1122 q 1021 1156 997 1156 m 208 1017 l 242 1017 l 439 35 l 936 1017 l 972 1017 l 764 599 l 899 33 l 1397 1017 l 1433 1017 l 919 0 l 872 0 l 739 550 l 458 0 l 411 0 l 208 1017 z "},"ẅ":{"ha":1119,"x_min":131,"x_max":1139,"o":"m 472 876 q 488 869 482 876 q 492 853 493 863 q 464 828 486 828 q 447 835 453 828 q 443 853 440 843 q 472 876 447 876 m 826 876 q 842 869 836 876 q 846 853 847 863 q 818 828 840 828 q 801 835 807 828 q 797 853 794 843 q 826 876 801 876 m 749 724 q 706 608 749 686 l 618 457 l 725 42 l 1061 619 q 1115 739 1111 706 l 1136 739 q 1138 726 1138 733 q 1094 611 1138 689 l 740 0 l 703 0 l 594 417 l 353 0 l 317 0 l 131 738 l 164 738 l 340 44 l 672 618 q 726 736 722 706 l 747 736 q 749 724 749 731 z "},"Ỳ":{"ha":872,"x_min":208,"x_max":944,"o":"m 425 1292 l 461 1292 l 600 1107 l 581 1107 l 425 1292 m 208 1017 l 246 1017 l 463 406 l 904 1017 l 944 1017 l 475 361 l 418 0 l 385 0 l 442 361 l 208 1017 z "},"ỳ":{"ha":744,"x_min":131,"x_max":758,"o":"m 300 1015 l 336 1015 l 475 831 l 456 831 l 300 1015 m 757 725 q 726 619 757 685 l 431 1 q 217 -333 322 -237 q 135 -374 172 -374 l 135 -354 q 199 -318 163 -354 q 269 -231 236 -282 q 375 -36 333 -128 l 393 0 q 246 153 275 11 l 131 738 l 164 738 l 278 161 q 410 35 303 35 l 694 631 q 733 747 726 701 l 754 747 q 757 725 757 738 z "},"–":{"ha":600,"x_min":83,"x_max":746,"o":"m 83 382 l 89 417 l 746 417 l 740 382 l 83 382 z "},"—":{"ha":1029,"x_min":82,"x_max":1054,"o":"m 82 385 l 88 419 l 1054 419 l 1049 385 l 82 385 z "},"‘":{"ha":235,"x_min":219,"x_max":304,"o":"m 243 963 q 262 1006 247 993 q 283 1018 276 1018 q 304 1015 289 1018 l 301 1006 q 300 1006 301 1006 q 271 979 275 1006 l 264 928 l 274 928 q 287 922 282 928 q 290 906 292 915 l 276 818 q 253 796 274 796 l 236 796 q 219 818 217 796 l 243 963 z "},"’":{"ha":235,"x_min":219,"x_max":306,"o":"m 224 807 q 251 832 247 807 l 260 885 l 250 885 q 232 906 229 885 l 249 994 q 272 1017 251 1017 l 288 1017 q 306 994 308 1017 l 281 849 q 262 806 276 818 q 241 794 247 794 q 219 797 235 794 l 221 807 q 224 807 222 807 z "},"‚":{"ha":235,"x_min":79,"x_max":165,"o":"m 85 -79 q 113 -53 108 -79 l 121 0 l 111 0 q 93 21 90 0 l 107 108 q 132 132 111 132 l 147 132 q 164 108 168 132 l 142 -36 q 122 -79 136 -67 q 101 -92 108 -92 q 81 -89 94 -92 l 82 -79 q 85 -79 83 -79 z "},"“":{"ha":354,"x_min":211,"x_max":431,"o":"m 235 963 q 254 1006 240 993 q 274 1018 268 1018 q 294 1015 281 1018 l 293 1006 q 290 1006 292 1006 q 264 979 268 1006 l 256 928 l 264 928 q 279 922 274 928 q 283 906 285 915 l 269 818 q 243 796 265 796 l 228 796 q 213 818 208 796 l 235 963 m 368 963 q 388 1006 374 993 q 408 1018 401 1018 q 429 1015 415 1018 l 428 1006 q 425 1006 426 1006 q 397 979 401 1006 l 389 928 l 399 928 q 413 922 407 928 q 417 906 418 915 l 403 818 q 378 796 399 796 l 363 796 q 346 818 342 796 l 368 963 z "},"”":{"ha":353,"x_min":213,"x_max":431,"o":"m 243 885 q 226 906 222 885 l 240 994 q 264 1017 243 1017 l 279 1017 q 297 994 300 1017 l 274 849 q 255 806 269 818 q 234 794 240 794 q 213 797 228 794 l 214 807 q 243 832 239 806 l 251 885 l 243 885 m 350 807 q 378 832 374 807 l 386 885 l 376 885 q 360 906 356 885 l 374 994 q 397 1017 376 1017 l 414 1017 q 431 994 433 1017 l 407 849 q 388 806 403 818 q 367 794 374 794 q 346 797 361 794 l 347 807 q 350 807 349 807 z "},"„":{"ha":353,"x_min":72,"x_max":292,"o":"m 76 -76 q 104 -50 100 -76 l 113 3 l 104 3 q 86 24 83 3 l 100 111 q 125 135 104 135 l 140 135 q 157 111 161 135 l 135 -33 q 115 -76 129 -64 q 94 -89 101 -89 q 74 -86 88 -89 l 75 -76 q 76 -76 76 -76 m 211 -76 q 239 -50 235 -76 l 247 3 l 238 3 q 219 24 217 3 l 233 111 q 258 135 238 135 l 275 135 q 292 118 292 135 q 290 111 292 115 l 268 -33 q 249 -76 263 -64 q 228 -89 235 -89 q 207 -86 221 -89 l 208 -76 q 211 -76 210 -76 z "},"†":{"ha":719,"x_min":157,"x_max":638,"o":"m 157 711 l 160 731 l 383 736 l 443 1069 l 463 1069 l 417 736 l 638 731 l 635 711 l 411 704 l 276 -100 l 257 -100 l 378 704 l 157 711 z "},"‡":{"ha":615,"x_min":135,"x_max":686,"o":"m 135 269 l 138 289 l 364 294 l 426 704 l 204 711 l 208 731 l 431 736 l 490 1069 l 510 1069 l 464 736 l 686 731 l 682 711 l 460 704 l 390 294 l 615 289 l 613 269 l 385 263 l 324 -100 l 304 -100 l 358 263 l 135 269 z "},"•":{"ha":468,"x_min":192,"x_max":328,"o":"m 253 599 l 286 599 q 328 561 328 599 q 326 550 328 556 l 321 508 q 264 464 314 464 l 231 464 q 192 497 192 464 q 193 508 192 503 l 199 550 q 253 599 206 599 z "},"…":{"ha":1019,"x_min":204,"x_max":1021,"o":"m 239 119 l 254 119 q 268 103 271 119 l 253 17 q 235 0 250 0 l 218 0 q 204 17 201 0 l 219 103 q 239 119 222 119 m 617 119 l 633 119 q 646 103 649 119 l 631 17 q 613 0 628 0 l 597 0 q 582 17 579 0 l 597 103 q 617 119 600 119 m 992 119 l 1008 119 q 1021 103 1024 119 l 1006 17 q 988 0 1003 0 l 972 0 q 957 17 954 0 l 972 103 q 992 119 975 119 z "},"‰":{"ha":1868,"x_min":111,"x_max":1832,"o":"m 350 1017 l 490 1017 q 622 975 589 1017 q 644 909 644 947 q 640 843 644 871 l 611 658 q 553 525 597 565 q 408 485 510 485 l 268 485 q 135 525 168 485 q 111 593 111 554 q 115 658 111 632 l 144 843 q 203 976 158 935 q 350 1017 249 1017 m 136 658 q 132 596 132 631 q 268 506 132 506 l 408 506 q 535 538 493 506 q 590 658 576 569 l 619 843 q 624 903 624 869 q 604 961 624 938 q 489 996 576 996 l 349 996 q 221 964 263 996 q 165 843 179 932 l 136 658 m 268 0 l 1038 1017 l 1067 1017 l 297 0 l 268 0 m 944 536 l 1085 536 q 1218 494 1185 536 q 1242 428 1242 467 q 1238 363 1242 389 l 1208 178 q 1150 44 1194 85 q 1004 4 1106 4 l 864 4 q 732 44 765 4 q 708 113 708 74 q 713 178 708 151 l 742 363 q 799 496 756 456 q 944 536 843 536 m 733 178 q 729 115 729 150 q 864 25 729 25 l 1004 25 q 1131 57 1089 25 q 1188 178 1174 89 l 1217 363 q 1221 422 1221 388 q 1085 515 1221 515 l 944 515 q 817 483 858 515 q 763 363 776 451 l 733 178 m 1536 532 l 1676 532 q 1808 492 1775 532 q 1832 424 1832 463 q 1828 358 1832 385 l 1799 174 q 1740 40 1785 81 q 1594 0 1696 0 l 1454 0 q 1322 42 1356 0 q 1299 108 1299 69 q 1303 174 1299 147 l 1332 358 q 1390 492 1346 451 q 1536 532 1435 532 m 1324 174 q 1319 111 1319 146 q 1454 21 1319 21 l 1594 21 q 1722 53 1679 21 q 1778 174 1764 85 l 1807 358 q 1811 418 1811 383 q 1675 511 1811 511 l 1535 511 q 1408 479 1449 511 q 1353 358 1367 447 l 1324 174 z "},"‹":{"ha":385,"x_min":53,"x_max":404,"o":"m 53 492 l 383 774 l 404 751 l 96 489 l 324 225 l 300 203 l 53 492 z "},"›":{"ha":521,"x_min":147,"x_max":506,"o":"m 147 226 l 463 494 l 242 754 l 264 774 l 506 492 l 167 203 l 147 226 z "},"⁄":{"ha":1047,"x_min":125,"x_max":858,"o":"m 125 0 l 831 1069 l 858 1069 l 153 0 l 125 0 z "},"⁰":{"ha":671,"x_min":119,"x_max":667,"o":"m 368 1153 l 531 1153 q 667 1035 667 1153 q 663 992 667 1015 l 607 638 q 540 515 593 543 q 425 493 499 493 l 263 493 q 154 520 188 493 q 121 601 121 547 q 125 650 121 624 l 181 1004 q 240 1119 193 1086 q 368 1153 288 1153 m 150 651 q 146 596 146 628 q 171 541 146 564 q 272 518 196 518 l 424 518 q 538 547 507 518 q 582 651 569 576 l 636 994 q 639 1044 639 1015 q 622 1094 639 1072 q 521 1128 596 1128 l 369 1128 q 253 1098 292 1128 q 204 994 215 1068 l 150 651 z "},"⁴":{"ha":675,"x_min":160,"x_max":672,"o":"m 160 739 l 489 1153 l 521 1153 l 201 751 l 565 751 l 593 919 l 615 986 l 628 986 l 590 751 l 672 751 l 671 740 l 586 725 l 550 494 l 525 494 l 561 725 l 163 725 l 160 739 z "},"⁵":{"ha":586,"x_min":110,"x_max":644,"o":"m 353 875 l 465 874 q 573 845 546 874 q 600 771 600 817 q 597 735 600 754 l 583 646 q 407 488 558 488 q 110 497 167 488 l 113 514 l 406 514 q 560 651 538 514 l 571 729 q 574 770 574 756 q 574 792 574 785 q 464 849 571 849 l 311 849 q 223 817 264 849 q 175 747 182 786 l 150 747 l 235 1153 l 644 1153 l 640 1128 l 253 1128 l 185 806 q 353 875 226 875 z "},"⁶":{"ha":592,"x_min":133,"x_max":654,"o":"m 242 1103 q 301 1147 272 1135 q 376 1160 331 1158 q 504 1161 422 1161 q 654 1151 586 1161 l 651 1135 l 367 1135 q 241 1058 285 1135 q 174 840 197 982 q 485 850 264 850 q 592 826 571 850 q 614 776 614 801 q 611 733 614 750 l 594 635 q 435 493 571 493 l 276 493 q 207 506 235 493 q 156 556 179 518 q 133 661 133 593 q 149 840 133 729 q 242 1103 182 1039 m 171 825 q 156 703 156 746 q 200 543 156 581 q 281 518 228 518 l 429 518 q 569 639 547 518 l 588 739 q 589 763 589 751 q 565 811 589 797 q 476 825 542 825 l 171 825 z "},"⁷":{"ha":611,"x_min":172,"x_max":640,"o":"m 172 1131 l 176 1156 l 631 1156 l 640 1135 l 285 494 l 256 494 l 610 1131 l 172 1131 z "},"⁸":{"ha":582,"x_min":165,"x_max":696,"o":"m 301 822 q 217 926 217 839 q 218 946 217 936 l 228 1001 q 289 1126 243 1092 q 411 1160 335 1160 l 564 1160 q 696 1039 696 1160 q 692 994 696 1018 l 682 939 q 645 867 676 900 q 567 831 614 835 q 626 796 603 824 q 649 735 649 768 q 647 717 649 726 l 633 636 q 580 523 621 554 q 475 492 539 492 l 301 492 q 167 600 167 492 q 169 636 167 617 l 185 724 q 229 795 192 769 q 301 822 267 821 m 196 642 q 193 593 193 621 q 215 541 193 565 q 308 517 236 517 l 464 517 q 563 545 528 517 q 610 642 599 574 l 621 711 q 622 728 622 719 q 593 790 622 765 q 526 815 564 815 l 353 815 q 256 787 297 815 q 207 714 214 758 l 196 642 m 243 925 q 268 865 243 889 q 343 840 293 840 l 525 840 q 610 869 571 840 q 658 947 650 897 l 665 992 q 669 1051 669 1018 q 647 1110 669 1085 q 550 1135 624 1135 l 415 1135 q 303 1103 342 1135 q 251 992 264 1072 l 244 947 q 243 925 243 935 z "},"⁹":{"ha":704,"x_min":167,"x_max":686,"o":"m 454 519 q 579 595 536 519 q 646 814 622 671 q 338 804 556 804 q 229 828 251 804 q 207 877 207 853 q 210 918 207 901 l 225 1024 q 394 1161 246 1161 l 540 1161 q 675 1064 649 1161 q 686 998 686 1029 q 685 933 686 967 q 669 808 685 900 q 631 649 654 715 q 577 551 607 583 q 518 508 547 519 q 443 494 489 496 q 316 493 397 493 q 167 503 235 493 l 169 519 l 454 519 m 233 892 q 256 843 233 857 q 343 829 278 829 l 649 829 q 664 951 664 908 q 619 1111 664 1074 q 539 1136 592 1136 l 392 1136 q 250 1015 269 1136 l 235 915 q 233 892 233 901 z "},"₀":{"ha":686,"x_min":142,"x_max":689,"o":"m 390 382 l 553 382 q 689 264 689 382 q 685 221 689 244 l 629 -133 q 563 -256 615 -228 q 447 -278 521 -278 l 285 -278 q 176 -251 210 -278 q 143 -169 143 -224 q 147 -121 143 -147 l 203 233 q 263 349 215 315 q 390 382 310 382 m 172 -119 q 168 -175 168 -143 q 193 -230 168 -207 q 294 -253 218 -253 l 446 -253 q 560 -224 529 -253 q 604 -119 592 -194 l 658 224 q 661 273 661 244 q 644 325 661 301 q 543 357 618 357 l 392 357 q 276 327 314 357 q 226 224 238 297 l 172 -119 z "},"₁":{"ha":404,"x_min":60,"x_max":306,"o":"m 60 279 l 61 294 q 166 318 111 294 q 250 364 221 342 l 281 388 l 306 388 l 200 -276 l 175 -276 l 274 350 q 60 279 181 279 z "},"₂":{"ha":646,"x_min":60,"x_max":572,"o":"m 491 103 q 500 116 491 103 q 522 153 508 128 q 540 202 536 179 q 543 260 543 225 q 524 325 543 294 q 403 368 496 368 l 157 368 l 158 382 l 160 383 q 415 393 242 393 q 547 339 511 393 q 571 260 571 300 q 566 192 571 221 q 538 124 561 163 q 475 44 514 85 q 397 -33 436 4 q 308 -108 358 -69 q 226 -171 258 -147 q 115 -251 122 -249 l 493 -251 l 489 -276 l 60 -276 l 63 -257 q 100 -231 65 -256 q 151 -194 135 -206 q 206 -153 167 -183 q 269 -106 246 -124 q 331 -56 293 -87 q 392 -2 368 -25 q 444 50 415 21 q 491 103 474 79 z "},"₃":{"ha":549,"x_min":4,"x_max":519,"o":"m 249 -257 q 381 -226 338 -257 q 438 -111 425 -194 l 442 -79 q 443 -60 443 -69 q 406 15 443 -15 q 308 46 368 44 l 110 51 l 113 65 l 303 71 q 426 105 371 74 q 486 186 481 136 l 492 236 q 494 264 494 251 q 367 361 494 361 l 99 361 l 100 375 q 372 386 158 386 q 489 348 458 386 q 519 261 519 310 q 517 232 519 247 l 508 179 q 455 94 501 126 q 374 58 408 61 q 438 19 407 51 q 469 -57 469 -14 q 468 -78 469 -67 l 461 -119 q 403 -240 449 -199 q 260 -282 357 -282 q 4 -267 74 -282 l 6 -257 l 249 -257 z "},"₄":{"ha":589,"x_min":6,"x_max":518,"o":"m 6 -32 l 335 382 l 367 382 l 47 -19 l 411 -19 l 439 149 l 461 215 l 474 215 l 436 -19 l 518 -19 l 517 -31 l 432 -46 l 396 -276 l 371 -276 l 407 -46 l 8 -46 l 6 -32 z "},"₅":{"ha":583,"x_min":10,"x_max":544,"o":"m 253 104 l 365 103 q 473 74 446 103 q 500 0 500 46 q 497 -36 500 -17 l 483 -125 q 307 -283 458 -283 q 10 -274 67 -283 l 13 -257 l 306 -257 q 460 -119 438 -257 l 471 -42 q 474 -1 474 -15 q 474 19 474 14 q 364 78 471 78 l 211 78 q 123 47 164 78 q 75 -24 82 15 l 50 -24 l 135 382 l 544 382 l 540 357 l 153 357 l 85 35 q 253 104 126 104 z "},"₆":{"ha":589,"x_min":33,"x_max":554,"o":"m 142 332 q 201 376 172 364 q 276 389 231 388 q 404 390 322 390 q 554 381 486 390 l 551 364 l 267 364 q 141 288 185 364 q 74 69 97 211 q 385 79 164 79 q 492 55 471 79 q 514 5 514 31 q 511 -37 514 -21 l 494 -136 q 335 -278 471 -278 l 176 -278 q 107 -265 135 -278 q 56 -215 79 -253 q 33 -110 33 -178 q 49 69 33 -42 q 142 332 82 268 m 71 54 q 56 -68 56 -25 q 100 -228 56 -190 q 181 -253 128 -253 l 329 -253 q 469 -132 447 -253 l 488 -32 q 489 -8 489 -19 q 465 40 489 26 q 376 54 442 54 l 71 54 z "},"₇":{"ha":610,"x_min":72,"x_max":540,"o":"m 72 360 l 76 385 l 531 385 l 540 364 l 185 -276 l 156 -276 l 510 360 l 72 360 z "},"₈":{"ha":585,"x_min":65,"x_max":596,"o":"m 201 51 q 117 156 117 68 q 118 175 117 165 l 128 231 q 189 355 143 321 q 311 389 235 389 l 464 389 q 596 268 596 389 q 592 224 596 247 l 582 168 q 545 97 576 129 q 467 60 514 64 q 526 25 503 53 q 549 -36 549 -3 q 547 -54 549 -44 l 533 -135 q 480 -248 521 -217 q 375 -279 439 -279 l 201 -279 q 67 -171 67 -279 q 69 -135 67 -154 l 85 -47 q 129 24 92 -1 q 201 51 167 50 m 96 -129 q 93 -178 93 -150 q 115 -230 93 -206 q 208 -254 136 -254 l 364 -254 q 463 -226 428 -254 q 510 -129 499 -197 l 521 -60 q 522 -43 522 -51 q 493 19 522 -6 q 426 44 464 44 l 253 44 q 156 16 197 44 q 107 -57 114 -12 l 96 -129 m 143 154 q 168 94 143 118 q 243 69 193 69 l 425 69 q 510 98 471 69 q 558 176 550 126 l 565 221 q 569 281 569 247 q 547 339 569 314 q 450 364 524 364 l 315 364 q 203 333 242 364 q 151 221 164 301 l 144 176 q 143 154 143 164 z "},"₉":{"ha":700,"x_min":67,"x_max":586,"o":"m 354 -251 q 479 -176 436 -251 q 546 43 522 -100 q 238 33 456 33 q 129 58 151 33 q 107 106 107 82 q 110 147 107 131 l 125 253 q 294 390 146 390 l 440 390 q 575 293 549 390 q 586 227 586 258 q 585 163 586 196 q 569 37 585 129 q 531 -122 554 -56 q 477 -219 507 -187 q 418 -263 447 -251 q 343 -276 389 -275 q 216 -278 297 -278 q 67 -268 135 -278 l 69 -251 l 354 -251 m 133 121 q 156 72 133 86 q 243 58 178 58 l 549 58 q 564 181 564 138 q 519 340 564 303 q 439 365 492 365 l 292 365 q 150 244 169 365 l 135 144 q 133 121 133 131 z "},"€":{"ha":1011,"x_min":97,"x_max":942,"o":"m 647 376 l 435 376 q 251 372 247 376 q 243 282 243 324 q 286 122 243 186 q 489 25 350 28 q 540 25 506 25 q 753 36 644 25 l 796 42 l 792 21 q 492 -8 663 -8 q 322 36 390 -8 q 232 151 253 85 q 210 274 210 222 q 218 372 210 326 l 97 378 l 100 397 l 224 401 l 254 597 l 133 601 l 136 619 l 258 625 q 328 857 282 776 q 647 1028 425 1028 q 942 1000 796 1028 l 939 981 q 658 994 744 994 q 513 973 571 994 q 417 919 454 951 q 354 836 381 886 q 292 625 311 753 l 686 621 l 683 601 l 288 597 l 257 401 l 650 396 l 647 376 z "},"ℓ":{"ha":564,"x_min":96,"x_max":585,"o":"m 289 -1 q 153 161 153 -1 q 161 261 153 204 l 181 379 q 103 328 154 351 l 96 344 q 188 422 136 376 l 260 878 q 320 986 272 946 q 441 1026 368 1026 q 556 969 514 1026 q 583 875 583 928 q 542 735 583 803 q 446 611 500 668 q 218 408 361 522 l 194 261 q 186 140 186 175 q 202 80 186 104 q 237 46 218 56 q 317 26 256 36 q 388 17 378 17 l 385 -1 l 289 -1 m 459 672 q 470 686 459 672 q 506 739 482 701 q 538 810 529 776 q 546 863 546 844 q 519 956 546 926 q 433 990 488 990 l 389 983 q 326 944 354 975 q 292 869 299 914 l 225 453 q 275 494 235 461 q 338 548 315 528 q 398 605 360 568 q 459 672 436 642 z "},"№":{"ha":1489,"x_min":100,"x_max":1550,"o":"m 685 40 q 693 32 685 40 q 722 25 701 25 q 765 34 743 25 q 805 66 788 43 q 829 119 822 89 q 935 789 896 543 q 999 968 954 915 q 1135 1021 1044 1021 l 1389 1021 q 1528 958 1493 1021 q 1550 869 1550 921 q 1542 768 1550 817 q 1474 589 1522 649 q 1324 529 1425 529 l 1233 529 q 1097 600 1126 529 q 1082 700 1082 636 q 1096 854 1082 764 l 1121 854 q 1107 705 1107 763 q 1118 617 1107 647 q 1232 554 1142 554 l 1329 554 q 1455 607 1410 554 q 1517 768 1500 660 q 1525 833 1525 810 q 1522 884 1525 857 q 1510 935 1518 911 q 1479 972 1501 960 q 1389 992 1444 992 l 1128 992 q 968 792 1000 992 l 860 104 q 800 13 850 46 q 739 -10 764 -10 q 629 72 647 -10 l 442 928 q 371 990 426 990 q 315 968 346 990 q 276 896 285 946 l 135 0 l 100 0 l 243 903 q 306 1003 254 969 q 374 1024 340 1024 l 411 1017 q 475 942 463 1000 l 663 79 q 685 40 668 54 z "},"™":{"ha":874,"x_min":65,"x_max":938,"o":"m 65 997 l 68 1017 l 428 1017 l 425 997 l 256 997 l 182 532 l 163 532 l 236 997 l 65 997 m 406 532 l 519 1017 l 533 1017 l 664 563 l 921 1017 l 938 1017 l 904 532 l 888 532 l 917 972 l 668 532 l 654 532 l 526 974 l 424 532 l 406 532 z "},"℮":{"ha":1081,"x_min":136,"x_max":972,"o":"m 972 358 q 294 358 633 358 q 290 343 290 358 l 290 158 q 369 76 290 124 q 539 29 447 29 q 702 62 631 29 q 819 146 774 94 l 897 146 q 738 31 817 61 q 554 0 660 0 q 249 105 363 0 q 136 368 136 210 q 253 636 136 526 q 547 740 369 740 q 844 648 725 740 q 972 358 964 556 m 290 394 q 303 382 290 382 l 799 382 q 808 382 803 382 q 817 392 817 388 l 817 576 q 729 667 817 621 q 563 714 642 714 q 419 688 483 714 q 323 632 356 661 q 290 585 290 603 l 290 394 z "},"∂":{"ha":940,"x_min":124,"x_max":856,"o":"m 129 315 q 249 541 154 471 q 525 611 344 611 q 807 535 706 611 q 821 713 821 622 q 786 876 821 804 q 549 994 731 994 q 279 917 418 994 l 274 933 q 419 1007 361 986 q 558 1028 476 1028 q 856 700 856 1028 q 839 526 856 626 q 791 334 822 425 q 710 163 760 243 q 584 38 661 83 q 426 -7 507 -7 q 290 14 346 -7 q 135 172 168 58 q 124 247 124 210 q 129 315 124 283 m 157 256 q 217 100 157 157 q 418 26 292 26 q 559 65 494 26 q 664 157 624 103 q 736 283 704 211 q 803 515 782 390 q 683 558 767 538 q 525 578 599 578 q 276 518 368 578 q 163 317 185 458 q 157 256 157 285 z "},"∆":{"ha":1036,"x_min":28,"x_max":978,"o":"m 28 0 l 658 1017 l 686 1017 l 978 0 l 28 0 m 89 33 l 932 33 l 667 965 l 89 33 z "},"∏":{"ha":804,"x_min":147,"x_max":931,"o":"m 147 0 l 303 983 l 183 983 l 189 1017 l 931 1017 l 925 983 l 804 983 l 649 0 l 615 0 l 771 983 l 336 983 l 181 0 l 147 0 z "},"∑":{"ha":690,"x_min":11,"x_max":892,"o":"m 11 -278 l 17 -240 l 410 374 l 211 983 l 217 1017 l 892 1017 l 886 983 l 250 983 l 453 369 l 63 -240 l 692 -240 l 686 -278 l 11 -278 z "},"−":{"ha":599,"x_min":97,"x_max":639,"o":"m 97 478 l 103 511 l 639 511 l 633 478 l 97 478 z "},"√":{"ha":757,"x_min":89,"x_max":939,"o":"m 89 464 l 94 497 l 238 497 l 363 57 l 906 1111 l 939 1111 l 368 0 l 343 0 l 214 464 l 89 464 z "},"∞":{"ha":960,"x_min":75,"x_max":1044,"o":"m 317 714 q 460 649 393 714 q 564 506 528 583 q 710 646 621 578 q 863 714 799 714 q 963 697 926 714 q 1017 658 1000 681 q 1044 549 1044 622 q 1036 467 1044 522 q 1015 374 1028 411 q 976 303 1001 338 q 800 233 926 233 q 650 301 715 233 q 553 447 585 368 q 416 297 494 360 q 253 235 338 235 q 124 269 168 235 q 76 358 81 304 q 75 407 75 378 q 81 481 75 436 q 94 551 88 525 q 117 613 100 578 q 156 667 133 649 q 317 714 213 714 m 115 476 q 110 394 110 438 q 129 318 110 350 q 253 268 160 268 q 542 476 386 268 q 317 681 435 681 q 176 636 218 681 q 115 476 133 592 m 800 268 q 943 320 900 268 q 1001 474 986 372 q 1008 557 1008 515 q 992 631 1008 599 q 865 681 967 681 q 722 616 808 681 q 575 476 635 551 q 670 328 611 389 q 800 268 729 268 z "},"∫":{"ha":533,"x_min":-11,"x_max":763,"o":"m 125 -250 q 253 -158 215 -250 q 310 100 283 -79 q 313 122 311 115 l 404 703 q 460 976 438 913 q 622 1111 514 1108 q 763 1097 711 1111 l 760 1078 l 624 1078 q 526 1031 557 1078 q 497 981 508 1001 q 475 910 486 961 q 450 781 457 836 q 438 703 440 717 l 346 122 q 299 -132 314 -81 q 130 -283 253 -283 q -11 -269 7 -283 l -8 -250 l 125 -250 z "},"≈":{"ha":657,"x_min":124,"x_max":639,"o":"m 283 429 q 367 378 311 429 q 444 328 424 328 q 579 392 492 328 q 593 401 592 400 l 600 392 q 544 347 564 361 q 440 306 489 306 q 356 356 410 306 q 285 407 301 407 q 259 406 269 407 q 237 399 249 404 q 217 391 225 394 q 195 379 208 388 q 175 367 182 371 q 129 338 157 358 l 124 349 q 283 429 228 429 m 482 572 q 632 646 533 572 l 639 636 q 583 592 603 606 q 479 550 528 550 q 394 601 449 550 q 324 651 340 651 q 298 650 308 651 q 276 644 288 649 q 256 635 264 639 q 234 624 247 632 q 214 611 221 615 q 168 582 196 603 l 163 593 q 322 674 267 674 q 406 623 350 674 q 482 572 461 572 z "},"≠":{"ha":774,"x_min":174,"x_max":829,"o":"m 174 294 l 179 328 l 365 328 l 615 654 l 231 654 l 236 688 l 640 688 l 721 792 l 746 792 l 665 688 l 829 688 l 824 654 l 640 654 l 390 328 l 772 328 l 767 294 l 364 294 l 272 175 l 247 175 l 339 294 l 174 294 z "},"≤":{"ha":788,"x_min":139,"x_max":731,"o":"m 139 178 l 144 211 l 669 211 l 664 178 l 139 178 m 204 590 l 208 618 l 731 885 l 724 846 l 247 603 l 644 342 l 639 307 l 204 590 z "},"≥":{"ha":628,"x_min":92,"x_max":686,"o":"m 92 178 l 97 211 l 622 211 l 617 178 l 92 178 m 158 307 l 164 346 l 643 607 l 243 849 l 250 885 l 686 618 l 682 590 l 158 307 z "},"◊":{"ha":756,"x_min":110,"x_max":779,"o":"m 110 518 l 511 1017 l 544 1017 l 779 518 l 383 0 l 350 0 l 110 518 m 147 514 l 371 36 l 740 521 l 525 985 l 147 514 z "},"ﬀ":{"ha":1011,"x_min":128,"x_max":1158,"o":"m 396 1056 q 483 1078 438 1078 q 644 1054 529 1078 l 642 1035 l 494 1044 q 483 1044 489 1044 q 321 861 349 1044 l 301 738 l 768 738 l 790 875 q 878 1069 817 1029 q 949 1092 908 1092 q 1057 1084 989 1092 q 1158 1067 1125 1076 l 1154 1047 l 960 1058 q 950 1058 956 1058 q 866 1010 894 1058 q 824 875 838 963 l 801 738 l 1049 738 l 1043 704 l 796 704 l 685 -3 l 651 -3 l 763 704 l 296 704 l 185 0 l 151 0 l 263 704 l 128 704 l 131 721 l 268 738 l 288 861 q 396 1056 315 1014 z "},"ﬁ":{"ha":764,"x_min":83,"x_max":772,"o":"m 238 811 q 331 1015 258 939 q 532 1092 404 1092 q 772 1065 660 1092 l 769 1047 l 535 1058 q 522 1058 528 1058 q 360 999 429 1058 q 271 811 290 939 l 258 731 l 772 721 l 657 0 l 624 0 l 735 697 l 253 697 l 142 0 l 108 0 l 219 697 l 83 697 l 86 717 l 225 731 l 238 811 z "},"ﬂ":{"ha":968,"x_min":128,"x_max":946,"o":"m 854 4 q 713 169 713 4 q 721 267 713 213 l 847 1058 l 556 1058 q 400 997 467 1058 q 314 811 333 936 l 303 738 l 507 738 l 501 704 l 297 704 l 186 0 l 153 0 l 264 704 l 128 704 l 131 724 l 269 738 l 281 811 q 367 1013 300 935 q 553 1092 435 1092 l 885 1092 l 754 267 q 746 181 746 217 q 749 125 746 146 q 763 87 753 104 q 781 61 774 69 q 806 47 789 53 q 882 31 828 39 q 946 22 936 22 l 943 4 l 854 4 z "},"ﬃ":{"ha":1336,"x_min":128,"x_max":1317,"o":"m 396 1056 q 483 1078 438 1078 q 644 1054 529 1078 l 642 1035 l 494 1044 q 483 1044 489 1044 q 321 861 349 1044 l 301 738 l 769 738 l 781 811 q 876 1015 801 939 q 1076 1092 950 1092 q 1315 1065 1203 1092 l 1313 1046 l 1075 1057 q 1063 1057 1068 1057 q 902 998 971 1057 q 814 811 833 939 l 803 738 l 1317 728 l 1201 0 l 1168 0 l 1279 704 l 797 704 l 686 0 l 653 0 l 764 704 l 296 704 l 185 0 l 151 0 l 263 704 l 128 704 l 131 721 l 268 738 l 288 861 q 396 1056 315 1014 z "},"ﬄ":{"ha":1533,"x_min":128,"x_max":1442,"o":"m 1344 4 q 1206 167 1206 4 q 1215 267 1206 211 l 1342 1058 l 1043 1058 q 891 997 954 1058 q 808 811 828 936 l 797 738 l 1001 738 l 996 704 l 792 704 l 681 0 l 647 0 l 758 704 l 296 704 l 185 0 l 151 0 l 263 704 l 128 704 l 131 721 l 268 738 l 288 861 q 353 1025 308 979 q 410 1062 374 1046 q 488 1078 447 1078 q 644 1054 529 1078 l 642 1035 l 494 1044 q 483 1044 489 1044 q 321 861 349 1044 l 301 738 l 764 738 l 775 818 q 860 1016 794 940 q 1036 1092 926 1092 q 1040 1092 1039 1092 l 1379 1092 l 1249 267 q 1240 181 1240 217 q 1244 125 1240 146 q 1258 87 1247 104 q 1276 61 1268 69 q 1300 47 1283 53 q 1377 31 1322 39 q 1442 22 1432 22 l 1438 4 l 1344 4 z "},"ﬆ":{"ha":1151,"x_min":89,"x_max":1231,"o":"m 1011 -3 q 869 163 869 -3 q 878 260 869 206 l 949 706 l 358 706 q 232 670 274 706 q 179 557 190 635 l 169 493 q 167 456 167 472 q 201 388 167 401 q 310 379 224 379 l 488 379 q 608 346 569 379 q 647 263 647 313 q 644 235 647 249 l 635 157 q 553 17 621 50 q 421 -11 497 -11 q 89 3 217 -11 l 92 22 l 431 22 q 601 167 578 22 l 611 235 q 613 256 613 246 q 583 319 613 293 q 482 346 554 346 l 304 346 q 176 361 201 346 q 138 404 140 385 q 133 438 135 424 q 131 465 131 453 q 136 500 131 478 l 146 567 q 210 697 158 654 q 367 739 263 739 l 954 739 l 997 944 l 1019 944 l 988 739 l 1231 739 l 1225 706 l 982 706 l 911 260 q 903 174 903 210 q 906 118 903 139 q 920 80 910 97 q 938 54 931 63 q 961 40 946 46 q 1039 24 985 32 q 1103 15 1093 15 l 1100 -3 l 1011 -3 z "}}}
